<svg width="27" height="22" viewBox="0 0 27 22" fill="none" xmlns="http://www.w3.org/2000/svg">
<rect x="3.83696" y="11.5557" width="0.767673" height="3.93506" stroke="#04294B" stroke-width="0.767673"/>
<path d="M26.4972 16.7495C26.5227 16.4433 26.3755 16.0356 26.0301 15.5445C25.6943 15.067 25.2212 14.5815 24.7254 14.1396C24.2936 13.7547 23.8562 13.4131 23.5 13.1502V18.5772C23.848 18.4943 24.3051 18.368 24.7624 18.1918C25.2296 18.0117 25.6703 17.7897 25.9943 17.5278C26.3193 17.265 26.4758 17.0056 26.4972 16.7495Z" stroke="#04294B"/>
<path d="M3.50283 16.7495C3.47734 16.4433 3.62446 16.0356 3.96991 15.5445C4.30574 15.067 4.77877 14.5815 5.27461 14.1396C5.70643 13.7547 6.14381 13.4131 6.5 13.1502V18.5772C6.15204 18.4943 5.69486 18.368 5.2376 18.1918C4.77036 18.0117 4.32971 17.7897 4.00569 17.5278C3.68068 17.265 3.52416 17.0056 3.50283 16.7495Z" stroke="#04294B"/>
<path d="M3.77219 10.6708L3.4761 10.043H4.96959L4.6735 10.6708H3.77219Z" stroke="#04294B"/>
<path d="M0.808835 9.04277L0.588238 7.69141H8.04808L7.82749 9.04277H0.808835Z" stroke="#04294B"/>
<path d="M8.5 11.4087L10.3399 9.69141L12.3487 9.69141L14.3888 11.9581C14.7936 12.408 15.5021 12.3979 15.894 11.9368L17.8026 9.69141L19.8813 9.69141L21.5 11.1302V11.1914V20.6914L8.5 20.6914L8.5 11.4087Z" stroke="#04294B"/>
<path d="M6 16.6914C6 17.5198 5.32843 18.1914 4.5 18.1914C3.67157 18.1914 3 17.5198 3 16.6914C3 15.863 3.67157 15.1914 4.5 15.1914C5.32843 15.1914 6 15.863 6 16.6914ZM4.0674 16.6914C4.0674 16.9303 4.26108 17.124 4.5 17.124C4.73892 17.124 4.9326 16.9303 4.9326 16.6914C4.9326 16.4525 4.73892 16.2588 4.5 16.2588C4.26108 16.2588 4.0674 16.4525 4.0674 16.6914Z" fill="#04294B"/>
<mask id="path-8-inside-1_5663_608" fill="white">
<path d="M20.0781 4.50008C20.0781 6.98536 17.7692 8.99639 15.0078 8.99639C12.2464 8.99639 10.0781 6.98145 10.0781 4.49617C10.0781 2.01089 12.2464 7.84013e-05 15.0078 7.84013e-05C17.7692 7.84013e-05 20.0781 2.0148 20.0781 4.50008ZM11.0781 4.49617C11.0781 6.69737 12.562 7.99617 15.0078 7.99617C17.4536 7.99617 19.0781 6.70128 19.0781 4.50008C19.0781 2.29888 17.4536 0.996172 15.0078 0.996172C12.562 0.996172 11.0781 2.29497 11.0781 4.49617Z"/>
</mask>
<path d="M20.0781 4.50008C20.0781 6.98536 17.7692 8.99639 15.0078 8.99639C12.2464 8.99639 10.0781 6.98145 10.0781 4.49617C10.0781 2.01089 12.2464 7.84013e-05 15.0078 7.84013e-05C17.7692 7.84013e-05 20.0781 2.0148 20.0781 4.50008ZM11.0781 4.49617C11.0781 6.69737 12.562 7.99617 15.0078 7.99617C17.4536 7.99617 19.0781 6.70128 19.0781 4.50008C19.0781 2.29888 17.4536 0.996172 15.0078 0.996172C12.562 0.996172 11.0781 2.29497 11.0781 4.49617Z" fill="#6DDFD8"/>
<path d="M18.0781 4.50008C18.0781 5.65189 16.9084 6.99639 15.0078 6.99639V10.9964C18.6301 10.9964 22.0781 8.31883 22.0781 4.50008H18.0781ZM15.0078 6.99639C13.1862 6.99639 12.0781 5.71903 12.0781 4.49617H8.0781C8.0781 8.24388 11.3066 10.9964 15.0078 10.9964V6.99639ZM12.0781 4.49617C12.0781 3.27559 13.1837 2.00008 15.0078 2.00008V-1.99992C11.309 -1.99992 8.0781 0.746193 8.0781 4.49617H12.0781ZM15.0078 2.00008C16.9061 2.00008 18.0781 3.34628 18.0781 4.50008H22.0781C22.0781 0.683312 18.6323 -1.99992 15.0078 -1.99992V2.00008ZM9.0781 4.49617C9.0781 6.06999 9.62529 7.52775 10.7991 8.56826C11.9412 9.58068 13.4479 9.99617 15.0078 9.99617V5.99617C14.1219 5.99617 13.6637 5.76226 13.4525 5.57498C13.2729 5.41579 13.0781 5.12356 13.0781 4.49617H9.0781ZM15.0078 9.99617C16.5646 9.99617 18.0827 9.5841 19.2477 8.60402C20.454 7.5891 21.0781 6.13262 21.0781 4.50008H17.0781C17.0781 5.06874 16.8899 5.3603 16.6726 5.54313C16.4139 5.7608 15.8968 5.99617 15.0078 5.99617V9.99617ZM21.0781 4.50008C21.0781 2.86811 20.4546 1.4109 19.2501 0.394301C18.0859 -0.588343 16.5674 -1.00383 15.0078 -1.00383V2.99617C15.894 2.99617 16.4106 3.23204 16.6701 3.45105C16.8894 3.6361 17.0781 3.93085 17.0781 4.50008H21.0781ZM15.0078 -1.00383C13.4479 -1.00383 11.9412 -0.58834 10.7991 0.42408C9.62529 1.46459 9.0781 2.92236 9.0781 4.49617H13.0781C13.0781 3.86879 13.2729 3.57655 13.4525 3.41736C13.6637 3.23008 14.1219 2.99617 15.0078 2.99617V-1.00383Z" fill="#04294B" mask="url(#path-8-inside-1_5663_608)"/>
</svg>
