<svg width="17" height="22" viewBox="0 0 17 22" fill="none" xmlns="http://www.w3.org/2000/svg">
<mask id="path-1-inside-1_6788_776" fill="white">
<path d="M13.0117 4.29009C13.0117 6.65944 10.7028 8.57666 7.94141 8.57666C5.17998 8.57666 3.01172 6.65571 3.01172 4.28636C3.01172 1.91701 5.17998 0 7.94141 0C10.7028 0 13.0117 1.92074 13.0117 4.29009ZM4.01172 4.28636C4.01172 6.38488 5.49563 7.6231 7.94141 7.6231C10.3872 7.6231 12.0117 6.38861 12.0117 4.29009C12.0117 2.19157 10.3872 0.949629 7.94141 0.949629C5.49563 0.949629 4.01172 2.18784 4.01172 4.28636Z"/>
</mask>
<path d="M13.0117 4.29009C13.0117 6.65944 10.7028 8.57666 7.94141 8.57666C5.17998 8.57666 3.01172 6.65571 3.01172 4.28636C3.01172 1.91701 5.17998 0 7.94141 0C10.7028 0 13.0117 1.92074 13.0117 4.29009ZM4.01172 4.28636C4.01172 6.38488 5.49563 7.6231 7.94141 7.6231C10.3872 7.6231 12.0117 6.38861 12.0117 4.29009C12.0117 2.19157 10.3872 0.949629 7.94141 0.949629C5.49563 0.949629 4.01172 2.18784 4.01172 4.28636Z" fill="#6DDFD8"/>
<path d="M11.0117 4.29009C11.0117 5.24378 9.93743 6.57666 7.94141 6.57666V10.5767C11.4682 10.5767 15.0117 8.0751 15.0117 4.29009H11.0117ZM7.94141 6.57666C6.02551 6.57666 5.01172 5.30879 5.01172 4.28636H1.01172C1.01172 8.00264 4.33445 10.5767 7.94141 10.5767V6.57666ZM5.01172 4.28636C5.01172 3.26614 6.02299 2 7.94141 2V-2C4.33697 -2 1.01172 0.567883 1.01172 4.28636H5.01172ZM7.94141 2C9.93515 2 11.0117 3.33448 11.0117 4.29009H15.0117C15.0117 0.506995 11.4705 -2 7.94141 -2V2ZM2.01172 4.28636C2.01172 5.8414 2.58236 7.2669 3.76846 8.26925C4.91061 9.23446 6.40355 9.6231 7.94141 9.6231V5.6231C7.03349 5.6231 6.56158 5.39263 6.35033 5.2141C6.18303 5.07272 6.01172 4.82985 6.01172 4.28636H2.01172ZM7.94141 9.6231C9.47703 9.6231 10.9813 9.23714 12.1451 8.30372C13.3602 7.32911 14.0117 5.90647 14.0117 4.29009H10.0117C10.0117 4.77223 9.85094 5.01609 9.6424 5.18335C9.38249 5.39181 8.85156 5.6231 7.94141 5.6231V9.6231ZM14.0117 4.29009C14.0117 2.67436 13.3609 1.25102 12.1475 0.274721C10.9844 -0.661238 9.4797 -1.05037 7.94141 -1.05037V2.94963C8.8489 2.94963 9.37939 3.18146 9.63992 3.3911C9.85032 3.5604 10.0117 3.8073 10.0117 4.29009H14.0117ZM7.94141 -1.05037C6.40355 -1.05037 4.91061 -0.661735 3.76846 0.303473C2.58236 1.30583 2.01172 2.73133 2.01172 4.28636H6.01172C6.01172 3.74287 6.18303 3.50001 6.35033 3.35863C6.56158 3.1801 7.03349 2.94963 7.94141 2.94963V-1.05037Z" fill="#04294B" mask="url(#path-1-inside-1_6788_776)"/>
<path d="M8.09927 9.71289C10.0298 9.71288 11.494 10.2228 12.6143 11.0088C13.7392 11.798 14.5462 12.8861 15.1236 14.0832C16.2844 16.49 16.4837 19.2679 16.499 20.6837C16.5014 20.9081 16.3187 21.1065 16.0474 21.1065L0.962813 21.1065C0.699958 21.1065 0.516725 20.9178 0.5097 20.6972C0.465095 19.2965 0.536919 16.5088 1.55156 14.09C2.05615 12.8871 2.78484 11.7975 3.82776 11.0087C4.86479 10.2243 6.24443 9.7129 8.09927 9.71289Z" stroke="#04294B"/>
<path d="M7.10543 10.3524C7.01812 10.186 7.13886 9.98633 7.32683 9.98633H8.67317C8.86114 9.98633 8.98188 10.186 8.89457 10.3524L8.41904 11.2591C8.37587 11.3415 8.29059 11.393 8.19764 11.393H7.80236C7.70941 11.393 7.62413 11.3415 7.58096 11.2591L7.10543 10.3524Z" stroke="#04294B" stroke-width="0.5"/>
<path d="M9.18949 16.0407C9.22274 16.1952 9.1062 16.3412 8.94824 16.343L7.17071 16.3634C7.01275 16.3652 6.89256 16.2219 6.9219 16.0667L7.66993 12.1101C7.69203 11.9932 7.79346 11.9082 7.91244 11.9068L8.09431 11.9047C8.21328 11.9034 8.31682 11.986 8.34186 12.1024L9.18949 16.0407Z" stroke="#04294B" stroke-width="0.5"/>
</svg>
