<svg width="28" height="28" viewBox="0 0 28 28" fill="none" xmlns="http://www.w3.org/2000/svg">
<rect x="3.98008" y="15.1578" width="0.796105" height="5.41757" stroke="#6DDFD8" stroke-width="0.796105"/>
<path d="M27.4963 22.1522C27.529 21.6522 27.3417 21.0535 26.9806 20.3993C26.624 19.7536 26.1263 19.1041 25.6109 18.5188C25.1675 18.0152 24.719 17.5681 24.3519 17.2221V24.7071C24.7092 24.5984 25.1773 24.4332 25.6456 24.2033C26.6454 23.7125 27.4388 23.0324 27.4963 22.1522Z" stroke="#6DDFD8"/>
<path d="M3.61499 22.1522C3.58232 21.6522 3.76967 21.0535 4.13077 20.3993C4.48728 19.7536 4.98499 19.1041 5.50043 18.5188C5.94381 18.0152 6.39229 17.5681 6.75948 17.2221V24.7071C6.40214 24.5984 5.93406 24.4332 5.46571 24.2033C4.46597 23.7125 3.67251 23.0324 3.61499 22.1522Z" stroke="#6DDFD8"/>
<path d="M3.9313 14.2603L3.50532 13.1094H5.25332L4.82734 14.2603H3.9313Z" stroke="#6DDFD8"/>
<path d="M0.838079 12.1088L0.568148 10.002H8.38804L8.1181 12.1088H0.838079Z" stroke="#6DDFD8"/>
<path d="M10.5343 11.5H12.6335L14.8145 14.7042C15.2177 15.2966 16.0948 15.2851 16.4823 14.6823L18.5281 11.5L20.7026 11.5L22.5 13.6125V13.8333V27.5H8.5V14.0105L10.5343 11.5Z" stroke="#6DDFD8"/>
<path d="M6.22244 22.0542C6.22244 23.1488 5.52599 24.0361 4.66688 24.0361C3.80777 24.0361 3.11133 23.1488 3.11133 22.0542C3.11133 20.9596 3.80777 20.0723 4.66688 20.0723C5.52599 20.0723 6.22244 20.9596 6.22244 22.0542ZM4.21826 22.0542C4.21826 22.3699 4.41912 22.6258 4.66688 22.6258C4.91465 22.6258 5.11551 22.3699 5.11551 22.0542C5.11551 21.7385 4.91465 21.4826 4.66688 21.4826C4.41912 21.4826 4.21826 21.7385 4.21826 22.0542Z" fill="#6DDFD8"/>
<mask id="path-8-inside-1_6022_810" fill="white">
<path d="M21 5.50235C21 8.54116 18.4602 11.0001 15.4226 11.0001C12.3851 11.0001 9.99998 8.53639 9.99998 5.49758C9.99998 2.45876 12.3851 9.58631e-05 15.4226 9.58631e-05C18.4602 9.58631e-05 21 2.46354 21 5.50235ZM11.1 5.49758C11.1 8.18904 12.7323 9.77711 15.4226 9.77711C18.113 9.77711 19.9 8.19381 19.9 5.50235C19.9 2.81089 18.113 1.21804 15.4226 1.21804C12.7323 1.21804 11.1 2.80611 11.1 5.49758Z"/>
</mask>
<path d="M21 5.50235C21 8.54116 18.4602 11.0001 15.4226 11.0001C12.3851 11.0001 9.99998 8.53639 9.99998 5.49758C9.99998 2.45876 12.3851 9.58631e-05 15.4226 9.58631e-05C18.4602 9.58631e-05 21 2.46354 21 5.50235ZM11.1 5.49758C11.1 8.18904 12.7323 9.77711 15.4226 9.77711C18.113 9.77711 19.9 8.19381 19.9 5.50235C19.9 2.81089 18.113 1.21804 15.4226 1.21804C12.7323 1.21804 11.1 2.80611 11.1 5.49758Z" fill="#6DDFD8"/>
<path d="M19 5.50235C19 7.39914 17.3935 9.0001 15.4226 9.0001V13.0001C19.5269 13.0001 23 9.68319 23 5.50235H19ZM15.4226 9.0001C13.5273 9.0001 12 7.4699 12 5.49758H7.99998C7.99998 9.60288 11.2428 13.0001 15.4226 13.0001V9.0001ZM12 5.49758C12 3.52766 13.525 2.0001 15.4226 2.0001V-1.9999C11.2452 -1.9999 7.99998 1.38986 7.99998 5.49758H12ZM15.4226 2.0001C17.3913 2.0001 19 3.60345 19 5.50235H23C23 1.32363 19.5291 -1.9999 15.4226 -1.9999V2.0001ZM9.09998 5.49758C9.09998 7.25102 9.64051 8.8808 10.8487 10.0713C12.0528 11.2577 13.6858 11.7771 15.4226 11.7771V7.77711C14.4691 7.77711 13.9408 7.5025 13.6561 7.22202C13.3756 6.94558 13.1 6.43559 13.1 5.49758H9.09998ZM15.4226 11.7771C17.154 11.7771 18.8028 11.2632 20.0362 10.1098C21.287 8.9402 21.9 7.30873 21.9 5.50235H17.9C17.9 6.38743 17.6195 6.89334 17.3041 7.18824C16.9714 7.49935 16.3816 7.77711 15.4226 7.77711V11.7771ZM21.9 5.50235C21.9 3.69636 21.2873 2.06388 20.0386 0.89233C18.8063 -0.263844 17.1571 -0.781957 15.4226 -0.781957V3.21804C16.3785 3.21804 16.968 3.49635 17.3018 3.80947C17.6191 4.10721 17.9 4.61688 17.9 5.50235H21.9ZM15.4226 -0.781957C13.6858 -0.781957 12.0528 -0.262528 10.8487 0.923888C9.64051 2.11435 9.09998 3.74413 9.09998 5.49758H13.1C13.1 4.55956 13.3756 4.04957 13.6561 3.77314C13.9408 3.49265 14.4691 3.21804 15.4226 3.21804V-0.781957Z" fill="#6DDFD8" mask="url(#path-8-inside-1_6022_810)"/>
</svg>
