<svg width="30" height="30" viewBox="0 0 30 30" fill="none" xmlns="http://www.w3.org/2000/svg">
<path d="M14.9998 18.818C17.1085 18.818 18.818 17.1085 18.818 14.9998C18.818 12.8911 17.1085 11.1816 14.9998 11.1816C12.8911 11.1816 11.1816 12.8911 11.1816 14.9998C11.1816 17.1085 12.8911 18.818 14.9998 18.818Z" stroke="#6DDFD8" stroke-width="2" stroke-linecap="round" stroke-linejoin="round"/>
<path d="M24.4182 18.8182C24.2488 19.2021 24.1982 19.6279 24.2731 20.0407C24.3479 20.4536 24.5448 20.8346 24.8382 21.1345L24.9145 21.2109C25.1512 21.4473 25.339 21.728 25.4671 22.0371C25.5952 22.3461 25.6611 22.6773 25.6611 23.0118C25.6611 23.3463 25.5952 23.6776 25.4671 23.9866C25.339 24.2956 25.1512 24.5763 24.9145 24.8127C24.6781 25.0494 24.3974 25.2371 24.0884 25.3652C23.7794 25.4933 23.4481 25.5593 23.1136 25.5593C22.7791 25.5593 22.4479 25.4933 22.1389 25.3652C21.8299 25.2371 21.5491 25.0494 21.3127 24.8127L21.2364 24.7364C20.9364 24.443 20.5554 24.2461 20.1426 24.1713C19.7297 24.0964 19.3039 24.1469 18.92 24.3164C18.5436 24.4777 18.2225 24.7456 17.9964 25.087C17.7703 25.4285 17.6489 25.8286 17.6473 26.2382V26.4545C17.6473 27.1296 17.3791 27.7771 16.9017 28.2545C16.4244 28.7318 15.7769 29 15.1018 29C14.4267 29 13.7793 28.7318 13.3019 28.2545C12.8245 27.7771 12.5564 27.1296 12.5564 26.4545V26.34C12.5465 25.9187 12.4102 25.5102 12.165 25.1674C11.9199 24.8247 11.5773 24.5636 11.1818 24.4182C10.7979 24.2488 10.3721 24.1982 9.95925 24.2731C9.54638 24.3479 9.16541 24.5448 8.86545 24.8382L8.78909 24.9145C8.55269 25.1512 8.27195 25.339 7.96294 25.4671C7.65393 25.5952 7.32269 25.6611 6.98818 25.6611C6.65367 25.6611 6.32244 25.5952 6.01342 25.4671C5.70441 25.339 5.42368 25.1512 5.18727 24.9145C4.95061 24.6781 4.76286 24.3974 4.63476 24.0884C4.50666 23.7794 4.44072 23.4481 4.44072 23.1136C4.44072 22.7791 4.50666 22.4479 4.63476 22.1389C4.76286 21.8299 4.95061 21.5491 5.18727 21.3127L5.26364 21.2364C5.55705 20.9364 5.75387 20.5554 5.82873 20.1426C5.90359 19.7297 5.85306 19.3039 5.68364 18.92C5.5223 18.5436 5.25442 18.2225 4.91296 17.9964C4.5715 17.7703 4.17136 17.6489 3.76182 17.6473H3.54545C2.87036 17.6473 2.22291 17.3791 1.74555 16.9017C1.26818 16.4244 1 15.7769 1 15.1018C1 14.4267 1.26818 13.7793 1.74555 13.3019C2.22291 12.8245 2.87036 12.5564 3.54545 12.5564H3.66C4.08127 12.5465 4.48982 12.4102 4.83256 12.165C5.1753 11.9199 5.43637 11.5773 5.58182 11.1818C5.75124 10.7979 5.80178 10.3721 5.72691 9.95925C5.65205 9.54638 5.45523 9.16541 5.16182 8.86545L5.08545 8.78909C4.84879 8.55269 4.66104 8.27195 4.53294 7.96294C4.40484 7.65393 4.33891 7.32269 4.33891 6.98818C4.33891 6.65367 4.40484 6.32244 4.53294 6.01342C4.66104 5.70441 4.84879 5.42368 5.08545 5.18727C5.32186 4.95061 5.60259 4.76286 5.91161 4.63476C6.22062 4.50666 6.55185 4.44072 6.88636 4.44072C7.22088 4.44072 7.55211 4.50666 7.86112 4.63476C8.17013 4.76286 8.45087 4.95061 8.68727 5.18727L8.76364 5.26364C9.06359 5.55705 9.44457 5.75387 9.85743 5.82873C10.2703 5.90359 10.6961 5.85306 11.08 5.68364H11.1818C11.5583 5.5223 11.8793 5.25442 12.1054 4.91296C12.3316 4.5715 12.4529 4.17136 12.4545 3.76182V3.54545C12.4545 2.87036 12.7227 2.22291 13.2001 1.74555C13.6775 1.26818 14.3249 1 15 1C15.6751 1 16.3225 1.26818 16.7999 1.74555C17.2773 2.22291 17.5455 2.87036 17.5455 3.54545V3.66C17.5471 4.06955 17.6684 4.46968 17.8946 4.81114C18.1207 5.1526 18.4417 5.42048 18.8182 5.58182C19.2021 5.75124 19.6279 5.80178 20.0407 5.72691C20.4536 5.65205 20.8346 5.45523 21.1345 5.16182L21.2109 5.08545C21.4473 4.84879 21.728 4.66104 22.0371 4.53294C22.3461 4.40484 22.6773 4.33891 23.0118 4.33891C23.3463 4.33891 23.6776 4.40484 23.9866 4.53294C24.2956 4.66104 24.5763 4.84879 24.8127 5.08545C25.0494 5.32186 25.2371 5.60259 25.3652 5.91161C25.4933 6.22062 25.5593 6.55185 25.5593 6.88636C25.5593 7.22088 25.4933 7.55211 25.3652 7.86112C25.2371 8.17013 25.0494 8.45087 24.8127 8.68727L24.7364 8.76364C24.443 9.06359 24.2461 9.44457 24.1713 9.85743C24.0964 10.2703 24.1469 10.6961 24.3164 11.08V11.1818C24.4777 11.5583 24.7456 11.8793 25.087 12.1054C25.4285 12.3316 25.8286 12.4529 26.2382 12.4545H26.4545C27.1296 12.4545 27.7771 12.7227 28.2545 13.2001C28.7318 13.6775 29 14.3249 29 15C29 15.6751 28.7318 16.3225 28.2545 16.7999C27.7771 17.2773 27.1296 17.5455 26.4545 17.5455H26.34C25.9305 17.5471 25.5303 17.6684 25.1889 17.8946C24.8474 18.1207 24.5795 18.4417 24.4182 18.8182V18.8182Z" stroke="#6DDFD8" stroke-width="2" stroke-linecap="round" stroke-linejoin="round"/>
</svg>
