<svg width="25" height="23" viewBox="0 0 25 23" fill="none" xmlns="http://www.w3.org/2000/svg">
<path d="M12.4996 14.364C14.2318 14.364 15.636 13.0819 15.636 11.5004C15.636 9.91881 14.2318 8.63672 12.4996 8.63672C10.7675 8.63672 9.36328 9.91881 9.36328 11.5004C9.36328 13.0819 10.7675 14.364 12.4996 14.364Z" stroke="#04294B" stroke-width="2" stroke-linecap="round" stroke-linejoin="round"/>
<path d="M20.2364 14.3636C20.0972 14.6515 20.0557 14.9709 20.1172 15.2806C20.1787 15.5902 20.3403 15.8759 20.5814 16.1009L20.6441 16.1582C20.8385 16.3355 20.9927 16.546 21.0979 16.7778C21.2032 17.0096 21.2573 17.258 21.2573 17.5089C21.2573 17.7597 21.2032 18.0082 21.0979 18.2399C20.9927 18.4717 20.8385 18.6822 20.6441 18.8595C20.4499 19.037 20.2193 19.1779 19.9655 19.2739C19.7116 19.37 19.4395 19.4195 19.1648 19.4195C18.89 19.4195 18.6179 19.37 18.3641 19.2739C18.1102 19.1779 17.8796 19.037 17.6855 18.8595L17.6227 18.8023C17.3763 18.5822 17.0634 18.4346 16.7243 18.3785C16.3851 18.3223 16.0353 18.3602 15.72 18.4873C15.4108 18.6083 15.1471 18.8092 14.9613 19.0653C14.7756 19.3214 14.6759 19.6215 14.6745 19.9286V20.0909C14.6745 20.5972 14.4543 21.0828 14.0621 21.4408C13.67 21.7989 13.1382 22 12.5836 22C12.0291 22 11.4973 21.7989 11.1051 21.4408C10.713 21.0828 10.4927 20.5972 10.4927 20.0909V20.005C10.4846 19.6891 10.3726 19.3826 10.1713 19.1256C9.9699 18.8685 9.6885 18.6727 9.36364 18.5636C9.04831 18.4366 8.69852 18.3987 8.35938 18.4548C8.02024 18.511 7.7073 18.6586 7.46091 18.8786L7.39818 18.9359C7.20399 19.1134 6.97339 19.2542 6.71956 19.3503C6.46572 19.4464 6.19364 19.4958 5.91886 19.4958C5.64409 19.4958 5.372 19.4464 5.11817 19.3503C4.86434 19.2542 4.63373 19.1134 4.43955 18.9359C4.24514 18.7586 4.09092 18.5481 3.98569 18.3163C3.88047 18.0845 3.82631 17.8361 3.82631 17.5852C3.82631 17.3343 3.88047 17.0859 3.98569 16.8542C4.09092 16.6224 4.24514 16.4118 4.43955 16.2345L4.50227 16.1773C4.74329 15.9523 4.90497 15.6666 4.96646 15.3569C5.02795 15.0473 4.98644 14.7279 4.84727 14.44C4.71475 14.1577 4.4947 13.9169 4.21421 13.7473C3.93373 13.5777 3.60505 13.4867 3.26864 13.4855H3.09091C2.53637 13.4855 2.00453 13.2843 1.61241 12.9263C1.22029 12.5683 1 12.0827 1 11.5764C1 11.07 1.22029 10.5845 1.61241 10.2264C2.00453 9.86841 2.53637 9.66727 3.09091 9.66727H3.185C3.53104 9.65988 3.86664 9.55761 4.14818 9.37376C4.42971 9.18991 4.64416 8.93297 4.76364 8.63636C4.9028 8.34846 4.94432 8.02909 4.88282 7.71944C4.82133 7.40979 4.65965 7.12406 4.41864 6.89909L4.35591 6.84182C4.1615 6.66451 4.00728 6.45396 3.90206 6.2222C3.79683 5.99044 3.74267 5.74202 3.74267 5.49114C3.74267 5.24025 3.79683 4.99183 3.90206 4.76007C4.00728 4.52831 4.1615 4.31776 4.35591 4.14045C4.5501 3.96295 4.7807 3.82214 5.03453 3.72607C5.28837 3.62999 5.56045 3.58054 5.83523 3.58054C6.11 3.58054 6.38209 3.62999 6.63592 3.72607C6.88975 3.82214 7.12036 3.96295 7.31455 4.14045L7.37727 4.19773C7.62366 4.41779 7.93661 4.5654 8.27575 4.62155C8.61489 4.67769 8.96467 4.63979 9.28 4.51273H9.36364C9.67285 4.39173 9.93656 4.19081 10.1223 3.93472C10.3081 3.67862 10.4077 3.37852 10.4091 3.07136V2.90909C10.4091 2.40277 10.6294 1.91718 11.0215 1.55916C11.4136 1.20114 11.9455 1 12.5 1C13.0545 1 13.5864 1.20114 13.9785 1.55916C14.3706 1.91718 14.5909 2.40277 14.5909 2.90909V2.995C14.5923 3.30216 14.6919 3.60226 14.8777 3.85835C15.0634 4.11445 15.3271 4.31536 15.6364 4.43636C15.9517 4.56343 16.3015 4.60133 16.6406 4.54519C16.9798 4.48904 17.2927 4.34142 17.5391 4.12136L17.6018 4.06409C17.796 3.88659 18.0266 3.74578 18.2804 3.6497C18.5343 3.55363 18.8064 3.50418 19.0811 3.50418C19.3559 3.50418 19.628 3.55363 19.8818 3.6497C20.1357 3.74578 20.3663 3.88659 20.5605 4.06409C20.7549 4.24139 20.9091 4.45194 21.0143 4.6837C21.1195 4.91546 21.1737 5.16389 21.1737 5.41477C21.1737 5.66566 21.1195 5.91408 21.0143 6.14584C20.9091 6.3776 20.7549 6.58815 20.5605 6.76545L20.4977 6.82273C20.2567 7.04769 20.095 7.33342 20.0335 7.64307C19.972 7.95272 20.0136 8.27209 20.1527 8.56V8.63636C20.2853 8.91869 20.5053 9.15947 20.7858 9.32907C21.0663 9.49867 21.3949 9.58968 21.7314 9.59091H21.9091C22.4636 9.59091 22.9955 9.79205 23.3876 10.1501C23.7797 10.5081 24 10.9937 24 11.5C24 12.0063 23.7797 12.4919 23.3876 12.8499C22.9955 13.208 22.4636 13.4091 21.9091 13.4091H21.815C21.4786 13.4103 21.1499 13.5013 20.8694 13.6709C20.5889 13.8405 20.3689 14.0813 20.2364 14.3636V14.3636Z" stroke="#04294B" stroke-width="2" stroke-linecap="round" stroke-linejoin="round"/>
</svg>
