<svg width="30" height="30" viewBox="0 0 30 30" fill="none" xmlns="http://www.w3.org/2000/svg">
<path d="M22 29V25.3333C22 23.3884 21.4469 21.5232 20.4623 20.1479C19.4777 18.7726 18.1424 18 16.75 18H6.25C4.85761 18 3.52226 18.7726 2.53769 20.1479C1.55312 21.5232 1 23.3884 1 25.3333V29" stroke="#6DDFD8" stroke-width="2" stroke-linecap="round" stroke-linejoin="round"/>
<path d="M12 13C15.3137 13 18 10.3137 18 7C18 3.68629 15.3137 1 12 1C8.68629 1 6 3.68629 6 7C6 10.3137 8.68629 13 12 13Z" stroke="#6DDFD8" stroke-width="2" stroke-linecap="round" stroke-linejoin="round"/>
<path d="M29 29V25.2521C28.9991 23.5913 28.6058 21.9779 27.8818 20.6653C27.1578 19.3527 26.1442 18.4152 25 18" stroke="#6DDFD8" stroke-width="2" stroke-linecap="round" stroke-linejoin="round"/>
<path d="M20 2C21.1442 2.31269 22.1584 3.02293 22.8826 4.01876C23.6069 5.0146 24 6.23937 24 7.5C24 8.76063 23.6069 9.9854 22.8826 10.9812C22.1584 11.9771 21.1442 12.6873 20 13" stroke="#6DDFD8" stroke-width="2" stroke-linecap="round" stroke-linejoin="round"/>
</svg>
