<svg width="28" height="28" viewBox="0 0 28 28" fill="none" xmlns="http://www.w3.org/2000/svg">
<path d="M6.5 0C4.77608 0 3.12279 0.68479 1.90382 1.90382C0.684852 3.12285 0 4.77608 0 6.5C0 8.22392 0.68479 9.87721 1.90382 11.0962C3.12285 12.3151 4.77608 13 6.5 13C8.22392 13 9.87721 12.3152 11.0962 11.0962C12.3151 9.87715 13 8.22392 13 6.5C13 4.77608 12.3152 3.12279 11.0962 1.90382C9.87715 0.684852 8.22392 0 6.5 0ZM6.5 10.8333C5.35068 10.8333 4.24846 10.3768 3.43596 9.56404C2.62321 8.75154 2.16667 7.64932 2.16667 6.5C2.16667 5.35068 2.62321 4.24846 3.43596 3.43596C4.24846 2.62321 5.35068 2.16667 6.5 2.16667C7.64932 2.16667 8.75154 2.62321 9.56404 3.43596C10.3768 4.24846 10.8333 5.35068 10.8333 6.5C10.8333 7.64932 10.3768 8.75154 9.56404 9.56404C8.75154 10.3768 7.64932 10.8333 6.5 10.8333V10.8333Z" fill="#6DDFD8"/>
<path d="M21.5 13C23.2239 13 24.8772 12.3152 26.0962 11.0962C27.3151 9.87715 28 8.22392 28 6.5C28 4.77608 27.3152 3.12279 26.0962 1.90382C24.8772 0.684852 23.2239 0 21.5 0C19.7761 0 18.1228 0.68479 16.9038 1.90382C15.6849 3.12285 15 4.77608 15 6.5C15 8.22392 15.6848 9.87721 16.9038 11.0962C18.1228 12.3151 19.7761 13 21.5 13ZM21.5 2.16667C22.6493 2.16667 23.7515 2.62321 24.564 3.43596C25.3768 4.24846 25.8333 5.35068 25.8333 6.5C25.8333 7.64932 25.3768 8.75154 24.564 9.56404C23.7515 10.3768 22.6493 10.8333 21.5 10.8333C20.3507 10.8333 19.2485 10.3768 18.436 9.56404C17.6232 8.75154 17.1667 7.64932 17.1667 6.5C17.1667 5.35068 17.6232 4.24846 18.436 3.43596C19.2485 2.62321 20.3507 2.16667 21.5 2.16667V2.16667Z" fill="#6DDFD8"/>
<path d="M21.5 15C19.7761 15 18.1228 15.6848 16.9038 16.9038C15.6849 18.1228 15 19.7761 15 21.5C15 23.2239 15.6848 24.8772 16.9038 26.0962C18.1228 27.3151 19.7761 28 21.5 28C23.2239 28 24.8772 27.3152 26.0962 26.0962C27.3151 24.8772 28 23.2239 28 21.5C28 19.7761 27.3152 18.1228 26.0962 16.9038C24.8772 15.6849 23.2239 15 21.5 15ZM21.5 25.8333C20.3507 25.8333 19.2485 25.3768 18.436 24.564C17.6232 23.7515 17.1667 22.6493 17.1667 21.5C17.1667 20.3507 17.6232 19.2485 18.436 18.436C19.2485 17.6232 20.3507 17.1667 21.5 17.1667C22.6493 17.1667 23.7515 17.6232 24.564 18.436C25.3768 19.2485 25.8333 20.3507 25.8333 21.5C25.8333 22.6493 25.3768 23.7515 24.564 24.564C23.7515 25.3768 22.6493 25.8333 21.5 25.8333Z" fill="#6DDFD8"/>
<path d="M6.5 15C4.77608 15 3.12279 15.6848 1.90382 16.9038C0.684852 18.1228 0 19.7761 0 21.5C0 23.2239 0.68479 24.8772 1.90382 26.0962C3.12285 27.3151 4.77608 28 6.5 28C8.22392 28 9.87721 27.3152 11.0962 26.0962C12.3151 24.8772 13 23.2239 13 21.5C13 19.7761 12.3152 18.1228 11.0962 16.9038C9.87715 15.6849 8.22392 15 6.5 15ZM6.5 25.8333C5.35068 25.8333 4.24846 25.3768 3.43596 24.564C2.62321 23.7515 2.16667 22.6493 2.16667 21.5C2.16667 20.3507 2.62321 19.2485 3.43596 18.436C4.24846 17.6232 5.35068 17.1667 6.5 17.1667C7.64932 17.1667 8.75154 17.6232 9.56404 18.436C10.3768 19.2485 10.8333 20.3507 10.8333 21.5C10.8333 22.6493 10.3768 23.7515 9.56404 24.564C8.75154 25.3768 7.64932 25.8333 6.5 25.8333V25.8333Z" fill="#6DDFD8"/>
</svg>
