<svg width="30" height="30" viewBox="0 0 30 30" fill="none" xmlns="http://www.w3.org/2000/svg">
<path d="M29.2434 13.7211C29.5997 13.6879 29.9559 13.8872 29.9957 14.1861C30.0352 14.4518 29.7977 14.7176 29.4414 14.7838C26.8283 15.2157 24.4925 15.415 22.3545 15.415C12.2586 15.415 7.03244 11.0304 3.3108 6.41365L1.05393 7.44326C0.816418 7.54289 0.539148 7.54289 0.301611 7.44326C0.0641019 7.3105 -0.0546529 7.11101 0.0243329 6.91176L1.48916 0.434795C1.52865 0.268671 1.64741 0.135911 1.84543 0.0694156C2.04344 0.00291992 2.24146 -0.0302123 2.43919 0.036284L10.0804 2.49427C10.3179 2.56077 10.5159 2.76002 10.5159 2.95927C10.5159 3.15853 10.3577 3.35778 10.1199 3.4574L7.82359 4.32094C13.961 14.518 28.61 13.7541 29.2435 13.7208L29.2434 13.7211ZM6.24052 4.22151C6.08227 3.95576 6.24052 3.65688 6.59678 3.52388L8.14087 2.95925L2.71685 1.232L1.68753 5.88201L3.23161 5.18437C3.38986 5.11787 3.58788 5.08474 3.74639 5.11787C3.94441 5.15101 4.06316 5.25063 4.18192 5.35049C7.90363 10.2003 12.8129 14.4847 22.8297 14.3524C17.4057 13.4555 10.0415 11.0309 6.2407 4.22177L6.24052 4.22151Z" fill="#6DDFD8"/>
<path d="M26.9903 20.5C28.3363 20.5 29.4054 21.4965 29.4054 22.7585V26.7443C29.4054 28.0065 28.3363 29.0028 26.9903 29.0028L23.7042 29.003C22.3581 29.003 21.2891 28.0065 21.2891 26.7445V22.7587C21.2891 21.4965 22.3581 20.5002 23.7042 20.5002L26.9903 20.5ZM22.6748 22.7588V26.7445C22.6748 27.3757 23.1499 27.9734 23.7042 27.9734H26.9903C27.5446 27.9734 28.0196 27.4088 28.0196 26.7445V22.7588C28.0196 22.1276 27.5446 21.5298 26.9903 21.5298L23.7042 21.5296C23.1499 21.5296 22.6748 22.1276 22.6748 22.7588V22.7588Z" fill="#6DDFD8"/>
<path d="M17.0059 16.7422C18.352 16.7422 19.421 17.7387 19.421 19.0007V26.7066C19.421 27.9689 18.352 28.9652 17.0059 28.9652H13.7198C12.3737 28.9652 11.3047 27.9686 11.3047 26.7066L11.305 19.0339C11.305 17.7717 12.374 16.7754 13.7201 16.7754H17.006L17.0059 16.7422ZM12.6905 19.0341V26.74C12.6905 27.3712 13.1655 27.9689 13.7198 27.9689H17.0059C17.5602 27.9689 18.0352 27.4043 18.0352 26.74L18.0355 19.0341C18.0355 18.403 17.5605 17.8052 17.0062 17.8052H13.7201C13.1655 17.8052 12.6905 18.3698 12.6905 19.0341H12.6905Z" fill="#6DDFD8"/>
<path d="M2.75495 12.2619H6.04107C7.38713 12.2619 8.45618 13.2584 8.45618 14.5204V26.7104C8.45618 27.9726 7.38713 28.9689 6.04107 28.9689H2.75495C1.4089 28.9689 0.339844 27.9724 0.339844 26.7104V14.5536C0.339844 13.2582 1.4089 12.2617 2.75495 12.2617V12.2619ZM1.76515 26.7437C1.76515 27.3749 2.24017 27.9726 2.79447 27.9726H6.08059C6.63487 27.9726 7.10991 27.408 7.10991 26.7437V14.5537C7.10991 13.9226 6.63489 13.3248 6.08059 13.3248H2.79447C2.2402 13.3248 1.76515 13.8895 1.76515 14.5537V26.7437Z" fill="#6DDFD8"/>
</svg>
