<svg width="28" height="28" viewBox="0 0 28 28" fill="none" xmlns="http://www.w3.org/2000/svg">
<mask id="path-1-inside-1_6022_803" fill="white">
<path d="M20.8676 20.2227C20.4357 19.0015 19.3554 16.2402 18.4139 16.2402H10.1892C9.24794 16.2402 8.16744 19.0015 7.7356 20.2229C6.82635 21.4751 6.83989 24.3771 7.75037 25.3143V26.1422C7.75037 26.6901 7.75037 27.4402 8.89076 27.4402C10.0309 27.4402 10.0309 26.6901 10.0309 26.1422V25.4487H18.5728V26.1422C18.5728 26.6901 18.5728 27.4402 19.7123 27.4402C20.8533 27.4402 20.8533 26.6901 20.8533 26.1422V25.3143C21.7642 24.3771 21.7774 21.4752 20.8676 20.2227ZM8.23989 20.5115C8.24133 20.5097 8.24133 20.5076 8.24276 20.5056C8.25855 20.4841 8.2727 20.4606 8.28213 20.434C8.94838 18.5428 9.84025 16.8475 10.1893 16.8061H18.4124C18.7631 16.8474 19.6553 18.5432 20.3209 20.434C20.3304 20.4606 20.3441 20.4837 20.3603 20.5056C20.3618 20.5074 20.3618 20.5095 20.3632 20.5115C21.1158 21.4895 21.157 24.0888 20.4649 24.8834H8.13804C7.44634 24.0887 7.48768 21.4896 8.23989 20.5115ZM9.44281 26.1424C9.44281 26.7469 9.42435 26.8748 8.89075 26.8748C8.35717 26.8748 8.33832 26.7469 8.33832 26.1424V25.4489H9.44281V26.1424ZM19.7118 26.8746C19.1788 26.8746 19.1604 26.7467 19.1604 26.1422V25.4487H20.2648V26.1422C20.2646 26.7193 20.2646 26.8746 19.7118 26.8746Z"/>
</mask>
<path d="M20.8676 20.2227C20.4357 19.0015 19.3554 16.2402 18.4139 16.2402H10.1892C9.24794 16.2402 8.16744 19.0015 7.7356 20.2229C6.82635 21.4751 6.83989 24.3771 7.75037 25.3143V26.1422C7.75037 26.6901 7.75037 27.4402 8.89076 27.4402C10.0309 27.4402 10.0309 26.6901 10.0309 26.1422V25.4487H18.5728V26.1422C18.5728 26.6901 18.5728 27.4402 19.7123 27.4402C20.8533 27.4402 20.8533 26.6901 20.8533 26.1422V25.3143C21.7642 24.3771 21.7774 21.4752 20.8676 20.2227ZM8.23989 20.5115C8.24133 20.5097 8.24133 20.5076 8.24276 20.5056C8.25855 20.4841 8.2727 20.4606 8.28213 20.434C8.94838 18.5428 9.84025 16.8475 10.1893 16.8061H18.4124C18.7631 16.8474 19.6553 18.5432 20.3209 20.434C20.3304 20.4606 20.3441 20.4837 20.3603 20.5056C20.3618 20.5074 20.3618 20.5095 20.3632 20.5115C21.1158 21.4895 21.157 24.0888 20.4649 24.8834H8.13804C7.44634 24.0887 7.48768 21.4896 8.23989 20.5115ZM9.44281 26.1424C9.44281 26.7469 9.42435 26.8748 8.89075 26.8748C8.35717 26.8748 8.33832 26.7469 8.33832 26.1424V25.4489H9.44281V26.1424ZM19.7118 26.8746C19.1788 26.8746 19.1604 26.7467 19.1604 26.1422V25.4487H20.2648V26.1422C20.2646 26.7193 20.2646 26.8746 19.7118 26.8746Z" fill="#6DDFD8"/>
<path d="M20.8676 20.2227L18.0392 21.2229L18.1844 21.6335L18.4404 21.9858L20.8676 20.2227ZM7.7356 20.2229L10.1632 21.9855L10.4189 21.6333L10.564 21.2229L7.7356 20.2229ZM7.75037 25.3143H10.7504V24.0969L9.90211 23.2238L7.75037 25.3143ZM10.0309 25.4487V22.4487H7.03095V25.4487H10.0309ZM18.5728 25.4487H21.5728V22.4487H18.5728V25.4487ZM20.8533 25.3143L18.702 23.2233L17.8533 24.0965V25.3143H20.8533ZM8.23989 20.5115L5.90684 18.6255L5.88399 18.6538L5.86183 18.6826L8.23989 20.5115ZM8.24276 20.5056L5.82454 18.7301L5.81681 18.7407L8.24276 20.5056ZM8.28213 20.434L11.1101 21.4354L11.1117 21.4308L8.28213 20.434ZM10.1893 16.8061V13.8061H10.0119L9.8357 13.827L10.1893 16.8061ZM18.4124 16.8061L18.7628 13.8267L18.5882 13.8061H18.4124V16.8061ZM20.3209 20.434L17.4912 21.4302L17.493 21.4355L20.3209 20.434ZM20.3603 20.5056L17.9484 22.2896L17.9867 22.3414L18.0272 22.3915L20.3603 20.5056ZM20.3632 20.5115L17.9372 22.2764L17.961 22.309L17.9856 22.3411L20.3632 20.5115ZM20.4649 24.8834V27.8834H21.8303L22.7271 26.8538L20.4649 24.8834ZM8.13804 24.8834L5.87512 26.853L6.77197 27.8834H8.13804V24.8834ZM8.33832 25.4489V22.4489H5.33832V25.4489H8.33832ZM9.44281 25.4489H12.4428V22.4489H9.44281V25.4489ZM19.1604 25.4487V22.4487H16.1604V25.4487H19.1604ZM20.2648 25.4487H23.2648V22.4487H20.2648V25.4487ZM20.2648 26.1422L23.2648 26.1432V26.1422H20.2648ZM23.6959 19.2224C23.466 18.5724 23.0316 17.4163 22.4891 16.381C22.225 15.8772 21.8633 15.2607 21.4027 14.7282C21.0745 14.3487 20.0551 13.2402 18.4139 13.2402V19.2402C17.784 19.2402 17.3425 19.0095 17.1432 18.8806C17.0376 18.8124 16.9661 18.7514 16.9271 18.7158C16.8874 18.6794 16.867 18.6559 16.8648 18.6533C16.8637 18.6521 16.8972 18.6918 16.9606 18.7913C17.0216 18.8869 17.0937 19.0116 17.1746 19.166C17.5156 19.8167 17.8372 20.6517 18.0392 21.2229L23.6959 19.2224ZM18.4139 13.2402H10.1892V19.2402H18.4139V13.2402ZM10.1892 13.2402C8.54797 13.2402 7.52859 14.3488 7.20045 14.7282C6.73992 15.2607 6.37819 15.8772 6.11413 16.381C5.57161 17.4163 5.13712 18.5725 4.9072 19.2228L10.564 21.2229C10.7659 20.6519 11.0876 19.8168 11.4286 19.1661C11.5095 19.0116 11.5816 18.8869 11.6426 18.7913C11.7061 18.6918 11.7395 18.6521 11.7385 18.6533C11.7363 18.6558 11.7159 18.6793 11.6761 18.7158C11.6372 18.7514 11.5657 18.8123 11.4601 18.8806C11.2608 19.0094 10.8193 19.2402 10.1892 19.2402V13.2402ZM5.308 18.4603C4.31704 19.8251 4.05604 21.6079 4.06061 22.8974C4.06313 23.6085 4.14511 24.3652 4.34114 25.0864C4.52417 25.7597 4.87636 26.6613 5.59862 27.4047L9.90211 23.2238C10.0507 23.3768 10.1169 23.5013 10.1344 23.5363C10.1538 23.5752 10.1472 23.572 10.131 23.5125C10.0969 23.3869 10.0616 23.1642 10.0606 22.8761C10.0596 22.5923 10.0922 22.3262 10.1416 22.1227C10.1968 21.8954 10.2393 21.8806 10.1632 21.9855L5.308 18.4603ZM4.75037 25.3143V26.1422H10.7504V25.3143H4.75037ZM4.75037 26.1422C4.75037 26.234 4.68191 27.3966 5.27181 28.4561C6.10069 29.9448 7.59791 30.4402 8.89076 30.4402V24.4402C8.91805 24.4402 9.18994 24.4426 9.55565 24.6225C9.9661 24.8244 10.3013 25.1552 10.514 25.5373C10.6999 25.8711 10.738 26.1456 10.7465 26.2161C10.7539 26.2771 10.7504 26.3068 10.7504 26.1422H4.75037ZM8.89076 30.4402C10.1839 30.4402 11.681 29.9445 12.5097 28.4558C13.0994 27.3964 13.0309 26.234 13.0309 26.1422H7.03095C7.03095 26.3067 7.02745 26.2771 7.03482 26.2161C7.04333 26.1456 7.08142 25.8712 7.26719 25.5375C7.47988 25.1554 7.81498 24.8246 8.22551 24.6226C8.59131 24.4427 8.86333 24.4402 8.89076 24.4402V30.4402ZM13.0309 26.1422V25.4487H7.03095V26.1422H13.0309ZM10.0309 28.4487H18.5728V22.4487H10.0309V28.4487ZM15.5728 25.4487V26.1422H21.5728V25.4487H15.5728ZM15.5728 26.1422C15.5728 26.2341 15.5044 27.3961 16.0936 28.4553C16.922 29.944 18.4189 30.4402 19.7123 30.4402V24.4402C19.7401 24.4402 20.0124 24.4427 20.3785 24.6229C20.7892 24.8251 21.1242 25.1561 21.3368 25.5381C21.5224 25.8717 21.5604 26.146 21.5689 26.2163C21.5763 26.2772 21.5728 26.3068 21.5728 26.1422H15.5728ZM19.7123 30.4402C21.0049 30.4402 22.5022 29.9452 23.3315 28.4566C23.9218 27.3969 23.8533 26.234 23.8533 26.1422H17.8533C17.8533 26.3068 17.8498 26.277 17.8572 26.2159C17.8657 26.1452 17.9039 25.8706 18.0899 25.5367C18.3028 25.1545 18.638 24.824 19.0483 24.6223C19.4137 24.4426 19.6853 24.4402 19.7123 24.4402V30.4402ZM23.8533 26.1422V25.3143H17.8533V26.1422H23.8533ZM23.0046 27.4052C23.7272 26.6618 24.0796 25.7601 24.2627 25.0865C24.4588 24.3652 24.5408 23.6082 24.5432 22.897C24.5476 21.6072 24.2862 19.8243 23.2948 18.4595L18.4404 21.9858C18.3643 21.8812 18.4069 21.8961 18.4621 22.1233C18.5116 22.3267 18.5442 22.5927 18.5432 22.8764C18.5423 23.1644 18.507 23.3869 18.4729 23.5124C18.4567 23.5718 18.4501 23.5748 18.4696 23.5359C18.4872 23.5008 18.5534 23.3763 18.702 23.2233L23.0046 27.4052ZM10.5729 22.3975C10.7649 22.16 10.8869 21.935 10.9627 21.7715C10.9994 21.6922 11.0259 21.626 11.0421 21.5836C11.0504 21.5621 11.0569 21.5444 11.0611 21.5329C11.0651 21.5218 11.0682 21.513 11.0685 21.512C11.072 21.5024 11.0622 21.5301 11.0513 21.5593C11.0387 21.5931 11.017 21.6493 10.9869 21.7175C10.9248 21.8583 10.8249 22.0558 10.6687 22.2705L5.81681 18.7407C5.65995 18.9563 5.55946 19.1549 5.49691 19.2967C5.46661 19.3654 5.44473 19.4221 5.43191 19.4564C5.42543 19.4737 5.4204 19.4876 5.41761 19.4954C5.41536 19.5017 5.41282 19.5088 5.41411 19.5052C5.41437 19.5045 5.4174 19.4959 5.42131 19.4851C5.42542 19.4738 5.43184 19.4564 5.43999 19.4351C5.45606 19.3932 5.4823 19.3275 5.51881 19.2487C5.59414 19.0862 5.71557 18.8621 5.90684 18.6255L10.5729 22.3975ZM10.661 22.2811C10.7834 22.1143 10.9709 21.8284 11.1101 21.4354L5.45422 19.4325C5.5745 19.0929 5.73371 18.8539 5.82456 18.7301L10.661 22.2811ZM11.1117 21.4308C11.4044 20.5998 11.7381 19.8397 12.01 19.3226C12.0758 19.1973 12.1325 19.0969 12.1785 19.0206C12.2012 18.9829 12.2195 18.954 12.2332 18.9332C12.2471 18.9119 12.2539 18.9028 12.2533 18.9035C12.2528 18.9042 12.2496 18.9086 12.2435 18.9162C12.2376 18.9238 12.2277 18.9359 12.2141 18.9518C12.1897 18.9801 12.1377 19.0382 12.0585 19.1106C11.9849 19.1779 11.8426 19.2993 11.6341 19.4214C11.4364 19.5372 11.0609 19.7237 10.5428 19.7852L9.8357 13.827C8.81547 13.9481 8.17235 14.534 8.01036 14.682C7.74979 14.9202 7.55244 15.1685 7.42213 15.3455C7.15256 15.7115 6.90768 16.134 6.69936 16.5302C6.27151 17.3439 5.82609 18.3769 5.45259 19.4371L11.1117 21.4308ZM10.1893 19.8061H18.4124V13.8061H10.1893V19.8061ZM18.062 19.7856C17.5455 19.7249 17.1707 19.5398 16.9724 19.4241C16.7636 19.3022 16.6209 19.181 16.5469 19.1135C16.4674 19.041 16.4151 18.9827 16.3905 18.9542C16.3641 18.9236 16.3509 18.9056 16.3508 18.9055C16.3501 18.9045 16.3568 18.9136 16.3707 18.9347C16.3843 18.9554 16.4026 18.9842 16.4252 19.0218C16.4711 19.0979 16.5277 19.1981 16.5936 19.3233C16.8654 19.8399 17.1988 20.5997 17.4912 21.4301L23.1507 19.4378C22.7775 18.3775 22.332 17.344 21.9036 16.5297C21.695 16.1332 21.4496 15.7101 21.1791 15.3435C21.0483 15.1662 20.8503 14.9175 20.5887 14.6791C20.4247 14.5296 19.7815 13.9465 18.7628 13.8267L18.062 19.7856ZM17.493 21.4355C17.6297 21.8213 17.8137 22.1075 17.9484 22.2896L22.7722 18.7216C22.8745 18.8599 23.031 19.0999 23.1488 19.4325L17.493 21.4355ZM18.0272 22.3915C17.8359 22.1549 17.7145 21.9308 17.6392 21.7682C17.6027 21.6894 17.5764 21.6237 17.5603 21.5818C17.5522 21.5605 17.5458 21.5431 17.5417 21.5317C17.5378 21.521 17.5347 21.5124 17.5345 21.5117C17.5332 21.5081 17.5357 21.5152 17.538 21.5215C17.5408 21.5293 17.5458 21.5432 17.5523 21.5605C17.5651 21.5948 17.587 21.6515 17.6173 21.7202C17.6798 21.8621 17.7803 22.0607 17.9372 22.2764L22.7891 18.7466C22.9453 18.9613 23.0453 19.1589 23.1074 19.2998C23.1375 19.368 23.1591 19.4242 23.1718 19.4579C23.1827 19.4872 23.1925 19.5149 23.189 19.5053C23.1887 19.5043 23.1856 19.4955 23.1816 19.4844C23.1774 19.4729 23.1709 19.4552 23.1626 19.4336C23.1464 19.3913 23.1199 19.325 23.0832 19.2458C23.0074 19.0822 22.8854 18.8572 22.6934 18.6197L18.0272 22.3915ZM17.9856 22.3411C17.8938 22.2217 17.8595 22.1407 17.858 22.1372C17.8545 22.1293 17.8668 22.1567 17.8843 22.2264C17.9208 22.3715 17.9515 22.5852 17.9564 22.8277C17.9615 23.0734 17.9383 23.2607 17.9171 23.3569C17.9071 23.4023 17.9061 23.388 17.9311 23.3294C17.9528 23.2787 18.0282 23.1133 18.2027 22.913L22.7271 26.8538C23.38 26.1043 23.6497 25.2235 23.7765 24.6483C23.9187 24.0031 23.968 23.3305 23.9552 22.7048C23.9423 22.0759 23.8648 21.4068 23.7035 20.7646C23.552 20.1613 23.2762 19.3778 22.7407 18.682L17.9856 22.3411ZM20.4649 21.8834H8.13804V27.8834H20.4649V21.8834ZM10.401 22.9138C10.5753 23.1142 10.6507 23.2795 10.6722 23.33C10.6972 23.3885 10.6962 23.4028 10.6862 23.3573C10.6649 23.261 10.6418 23.0736 10.6469 22.8278C10.6518 22.5852 10.6826 22.3714 10.719 22.2262C10.7365 22.1564 10.7488 22.1289 10.7454 22.1367C10.744 22.1401 10.7097 22.2211 10.6179 22.3404L5.86183 18.6826C5.32678 19.3783 5.05117 20.1617 4.89971 20.7648C4.73847 21.4069 4.66105 22.0758 4.64813 22.7046C4.63528 23.3302 4.68451 24.0027 4.82657 24.6478C4.95322 25.2229 5.22274 26.1034 5.87512 26.853L10.401 22.9138ZM6.44281 26.1424C6.44281 26.3234 6.43885 26.2866 6.44762 26.2021C6.45412 26.1395 6.4996 25.6308 6.86675 25.0772C7.3187 24.3957 7.95153 24.0798 8.39546 23.9558C8.72929 23.8626 8.96665 23.8748 8.89075 23.8748V29.8748C9.08165 29.8748 9.52142 29.8709 10.0088 29.7349C10.6062 29.5681 11.3437 29.1824 11.867 28.3934C12.3055 27.7323 12.3889 27.0782 12.4156 26.8216C12.4445 26.5431 12.4428 26.2636 12.4428 26.1424H6.44281ZM8.89075 23.8748C8.81497 23.8748 9.05211 23.8627 9.38569 23.9557C9.82909 24.0795 10.4615 24.3949 10.9136 25.0756C11.2811 25.629 11.3269 26.1378 11.3335 26.201C11.3423 26.2859 11.3383 26.323 11.3383 26.1424H5.33832C5.33832 26.264 5.33669 26.5437 5.36575 26.8227C5.39254 27.0799 5.47641 27.734 5.91531 28.3949C6.43879 29.1832 7.17596 29.5683 7.77296 29.7349C8.26015 29.8709 8.69974 29.8748 8.89075 29.8748V23.8748ZM11.3383 26.1424V25.4489H5.33832V26.1424H11.3383ZM8.33832 28.4489H9.44281V22.4489H8.33832V28.4489ZM6.44281 25.4489V26.1424H12.4428V25.4489H6.44281ZM19.7118 23.8746C19.6362 23.8746 19.874 23.8624 20.2083 23.9559C20.6531 24.0802 21.2857 24.3967 21.7372 25.0782C22.1037 25.6315 22.1491 26.1398 22.1556 26.2022C22.1643 26.2865 22.1604 26.3231 22.1604 26.1422H16.1604C16.1604 26.2635 16.1587 26.5428 16.1876 26.8211C16.2142 27.0775 16.2974 27.7311 16.7353 28.3919C17.258 29.1809 17.9951 29.5672 18.5932 29.7344C19.0809 29.8707 19.5209 29.8746 19.7118 29.8746V23.8746ZM22.1604 26.1422V25.4487H16.1604V26.1422H22.1604ZM19.1604 28.4487H20.2648V22.4487H19.1604V28.4487ZM17.2648 25.4487V26.1422H23.2648V25.4487H17.2648ZM17.2648 26.1411C17.2648 26.335 17.2621 26.2985 17.2683 26.2295C17.2729 26.1787 17.3085 25.6853 17.6493 25.1384C18.0742 24.4565 18.6917 24.1126 19.1609 23.9704C19.3592 23.9102 19.5148 23.8899 19.5912 23.8821C19.633 23.8779 19.6645 23.8761 19.683 23.8753C19.6925 23.8749 19.6998 23.8747 19.7044 23.8747C19.709 23.8746 19.7116 23.8746 19.7118 23.8746V29.8746C19.9301 29.8746 20.3916 29.867 20.9019 29.7122C21.5266 29.5228 22.2478 29.1041 22.7418 28.3112C23.1517 27.6533 23.2219 27.0129 23.2439 26.7706C23.2674 26.5102 23.2648 26.2379 23.2648 26.1432L17.2648 26.1411Z" fill="#6DDFD8" mask="url(#path-1-inside-1_6022_803)"/>
<mask id="path-3-inside-2_6022_803" fill="white">
<path d="M18.6465 22.9604C18.6465 23.5778 19.0796 24.0798 19.6117 24.0798C20.1442 24.0798 20.5775 23.5776 20.5775 22.9604C20.5775 22.3426 20.144 21.8398 19.6117 21.8398C19.0794 21.8394 18.6465 22.3423 18.6465 22.9604ZM20.036 22.9604C20.036 23.231 19.8459 23.4513 19.6119 23.4513C19.3784 23.4513 19.1885 23.2312 19.1885 22.9604C19.1885 22.6892 19.3784 22.4684 19.6119 22.4684C19.8455 22.4682 20.036 22.689 20.036 22.9604Z"/>
</mask>
<path d="M18.6465 22.9604C18.6465 23.5778 19.0796 24.0798 19.6117 24.0798C20.1442 24.0798 20.5775 23.5776 20.5775 22.9604C20.5775 22.3426 20.144 21.8398 19.6117 21.8398C19.0794 21.8394 18.6465 22.3423 18.6465 22.9604ZM20.036 22.9604C20.036 23.231 19.8459 23.4513 19.6119 23.4513C19.3784 23.4513 19.1885 23.2312 19.1885 22.9604C19.1885 22.6892 19.3784 22.4684 19.6119 22.4684C19.8455 22.4682 20.036 22.689 20.036 22.9604Z" fill="#6DDFD8"/>
<path d="M19.6117 21.8398L19.6101 23.8398H19.6117V21.8398ZM19.6119 22.4684L19.6119 24.4684L19.6138 24.4684L19.6119 22.4684ZM16.6465 22.9604C16.6465 24.3942 17.7074 26.0798 19.6117 26.0798V22.0798C20.0045 22.0798 20.2924 22.2696 20.4441 22.4455C20.5927 22.6177 20.6465 22.8054 20.6465 22.9604H16.6465ZM19.6117 26.0798C21.5158 26.0798 22.5775 24.3948 22.5775 22.9604H18.5775C18.5775 22.8049 18.6315 22.6172 18.78 22.4451C18.9316 22.2693 19.2193 22.0798 19.6117 22.0798V26.0798ZM22.5775 22.9604C22.5775 21.527 21.517 19.8398 19.6117 19.8398V23.8398C19.2184 23.8398 18.9306 23.6497 18.7794 23.4743C18.6312 23.3024 18.5775 23.1152 18.5775 22.9604H22.5775ZM19.6134 19.8398C17.7042 19.8383 16.6465 21.5299 16.6465 22.9604H20.6465C20.6465 23.1141 20.5933 23.3011 20.445 23.4733C20.2934 23.6493 20.0046 23.8402 19.6101 23.8398L19.6134 19.8398ZM18.036 22.9604C18.036 22.412 18.4758 21.4513 19.6119 21.4513V25.4513C21.2159 25.4513 22.036 24.0499 22.036 22.9604H18.036ZM19.6119 21.4513C20.75 21.4513 21.1885 22.414 21.1885 22.9604H17.1885C17.1885 24.0483 18.0068 25.4513 19.6119 25.4513V21.4513ZM21.1885 22.9604C21.1885 23.5014 20.7542 24.4684 19.6119 24.4684V20.4684C18.0025 20.4684 17.1885 21.877 17.1885 22.9604H21.1885ZM19.6138 24.4684C18.4722 24.4695 18.036 23.5036 18.036 22.9604H22.036C22.036 21.8744 21.2188 20.4669 19.61 20.4684L19.6138 24.4684Z" fill="#6DDFD8" mask="url(#path-3-inside-2_6022_803)"/>
<mask id="path-5-inside-3_6022_803" fill="white">
<path d="M17.0075 21.8398H11.5952C10.9579 21.8398 10.4395 22.3425 10.4395 22.9603C10.4395 23.5778 10.9579 24.0798 11.5952 24.0798H17.0075C17.645 24.0798 18.1636 23.5776 18.1636 22.9603C18.1636 22.3425 17.6449 21.8398 17.0075 21.8398ZM17.0075 23.4537H11.5952C11.3142 23.4537 11.086 23.2322 11.086 22.9605C11.086 22.6881 11.3147 22.4663 11.5952 22.4663H17.0075C17.2884 22.4663 17.5169 22.6881 17.5169 22.9605C17.5171 23.2322 17.2884 23.4537 17.0075 23.4537Z"/>
</mask>
<path d="M17.0075 21.8398H11.5952C10.9579 21.8398 10.4395 22.3425 10.4395 22.9603C10.4395 23.5778 10.9579 24.0798 11.5952 24.0798H17.0075C17.645 24.0798 18.1636 23.5776 18.1636 22.9603C18.1636 22.3425 17.6449 21.8398 17.0075 21.8398ZM17.0075 23.4537H11.5952C11.3142 23.4537 11.086 23.2322 11.086 22.9605C11.086 22.6881 11.3147 22.4663 11.5952 22.4663H17.0075C17.2884 22.4663 17.5169 22.6881 17.5169 22.9605C17.5171 23.2322 17.2884 23.4537 17.0075 23.4537Z" fill="#6DDFD8"/>
<path d="M17.5169 22.9605L15.5169 22.9605L15.5169 22.9621L17.5169 22.9605ZM17.0075 19.8398H11.5952V23.8398H17.0075V19.8398ZM11.5952 19.8398C9.91225 19.8398 8.43945 21.1799 8.43945 22.9603H12.4395C12.4395 23.5051 12.0036 23.8398 11.5952 23.8398V19.8398ZM8.43945 22.9603C8.43945 24.742 9.91392 26.0798 11.5952 26.0798V22.0798C12.0018 22.0798 12.4395 22.4136 12.4395 22.9603H8.43945ZM11.5952 26.0798H17.0075V22.0798H11.5952V26.0798ZM17.0075 26.0798C18.6885 26.0798 20.1636 24.7423 20.1636 22.9603H16.1636C16.1636 22.413 16.6015 22.0798 17.0075 22.0798V26.0798ZM20.1636 22.9603C20.1636 21.1792 18.6899 19.8398 17.0075 19.8398V23.8398C16.6 23.8398 16.1636 23.5057 16.1636 22.9603H20.1636ZM17.0075 21.4537H11.5952V25.4537H17.0075V21.4537ZM11.5952 21.4537C12.3596 21.4537 13.086 22.0694 13.086 22.9605H9.086C9.086 24.3951 10.2688 25.4537 11.5952 25.4537V21.4537ZM13.086 22.9605C13.086 23.8492 12.3618 24.4663 11.5952 24.4663V20.4663C10.2675 20.4663 9.086 21.5269 9.086 22.9605H13.086ZM11.5952 24.4663H17.0075V20.4663H11.5952V24.4663ZM17.0075 24.4663C16.2413 24.4663 15.5169 23.8492 15.5169 22.9605H19.5169C19.5169 21.5269 18.3355 20.4663 17.0075 20.4663V24.4663ZM15.5169 22.9621C15.5161 22.0671 16.2458 21.4537 17.0075 21.4537V25.4537C18.3311 25.4537 19.5181 24.3973 19.5169 22.9588L15.5169 22.9621Z" fill="#6DDFD8" mask="url(#path-5-inside-3_6022_803)"/>
<path d="M18.4896 20.3385L18.6628 20.7194H18.6637C18.6317 20.6392 18.6109 20.5457 18.6109 20.4439C18.6109 20.4439 18.6109 20.4438 18.6109 20.4437C18.6109 20.3854 18.6178 20.3286 18.6304 20.2745M18.4896 20.3385L18.6304 20.2745M18.4896 20.3385L18.4122 20.1683L17.9537 20.5822L18.4896 20.3385ZM18.6304 20.2745C18.6389 20.2378 18.6501 20.2023 18.6637 20.1683H18.7175H18.7427H18.8641M18.6304 20.2745L18.7922 20.201L18.8037 20.1957L18.8641 20.1683M18.8641 19.8869C18.9892 19.7794 19.1466 19.7208 19.3067 19.7194L19.3066 19.7194H18.8641M18.8641 19.8869V19.7194M18.8641 19.8869V19.9299M18.8641 19.8869C18.8567 19.8932 18.8494 19.8998 18.8422 19.9065L18.8641 19.9299M18.8641 19.7194H18.66L18.4094 19.1683H18.8641V19.7194ZM18.8641 20.1683L18.8031 20.0342L18.8027 20.0333L18.7761 19.9748C18.7942 19.9541 18.8155 19.9315 18.8399 19.9086L18.8641 19.9344M18.8641 20.1683V20.0802V20.0797V19.9344M18.8641 19.9344L19.0181 20.0983L19.3126 20.4116L19.3347 20.4351L19.3352 20.4357L19.3358 20.4363L19.34 20.4407L19.3428 20.4437L19.343 20.4439L19.3446 20.4456L19.3455 20.4466L19.5247 20.6373L19.3463 20.4463L19.3454 20.4453L19.3441 20.4439L19.344 20.4437L19.3419 20.4416L19.3398 20.4393L19.3393 20.4388L19.3367 20.436L19.3126 20.4102L19.0203 20.0972L18.8641 19.9299M18.8641 19.9344V19.9299M9.93744 20.7194H9.93756L9.96189 20.6659C9.96192 20.6657 9.96196 20.6656 9.962 20.6655C9.96226 20.6645 9.96253 20.6634 9.96281 20.6624L9.93744 20.7194Z" fill="#6DDFD8" stroke="#6DDFD8" stroke-width="2"/>
<mask id="path-8-inside-4_6022_803" fill="white">
<path d="M8.99228 24.0798C9.52502 24.0798 9.95838 23.5776 9.95838 22.9604C9.95838 22.3426 9.52503 21.8398 8.99228 21.8398C8.46012 21.8398 8.02734 22.3428 8.02734 22.9604C8.02715 23.5778 8.46013 24.0798 8.99228 24.0798ZM8.99228 22.4684C9.22634 22.4684 9.41657 22.689 9.41657 22.9604C9.41657 23.2309 9.22615 23.4513 8.99228 23.4513C8.75879 23.4513 8.56894 23.2311 8.56894 22.9604C8.56875 22.6892 8.75879 22.4684 8.99228 22.4684Z"/>
</mask>
<path d="M8.99228 24.0798C9.52502 24.0798 9.95838 23.5776 9.95838 22.9604C9.95838 22.3426 9.52503 21.8398 8.99228 21.8398C8.46012 21.8398 8.02734 22.3428 8.02734 22.9604C8.02715 23.5778 8.46013 24.0798 8.99228 24.0798ZM8.99228 22.4684C9.22634 22.4684 9.41657 22.689 9.41657 22.9604C9.41657 23.2309 9.22615 23.4513 8.99228 23.4513C8.75879 23.4513 8.56894 23.2311 8.56894 22.9604C8.56875 22.6892 8.75879 22.4684 8.99228 22.4684Z" fill="#6DDFD8"/>
<path d="M8.02734 22.9604L10.0273 22.961V22.9604H8.02734ZM8.56894 22.9604L10.5689 22.9604L10.5689 22.959L8.56894 22.9604ZM8.99228 26.0798C10.8961 26.0798 11.9584 24.3953 11.9584 22.9604H7.95838C7.95838 22.8048 8.01244 22.617 8.16094 22.4449C8.31266 22.2691 8.60027 22.0798 8.99228 22.0798V26.0798ZM11.9584 22.9604C11.9584 21.5268 10.8978 19.8398 8.99228 19.8398V23.8398C8.59959 23.8398 8.31183 23.6501 8.16032 23.4744C8.01204 23.3023 7.95838 23.115 7.95838 22.9604H11.9584ZM8.99228 19.8398C7.08499 19.8398 6.02734 21.5298 6.02734 22.9604H10.0273C10.0273 23.1145 9.97396 23.3015 9.82593 23.4734C9.67466 23.6491 9.38643 23.8398 8.99228 23.8398V19.8398ZM6.02734 22.9598C6.02691 24.3938 7.08763 26.0798 8.99228 26.0798V22.0798C9.38507 22.0798 9.67313 22.2696 9.82497 22.4457C9.97361 22.6181 10.0274 22.806 10.0273 22.961L6.02734 22.9598ZM8.99228 24.4684C7.85421 24.4684 7.41657 23.5055 7.41657 22.9604H11.4166C11.4166 21.8724 10.5985 20.4684 8.99228 20.4684V24.4684ZM7.41657 22.9604C7.41657 22.4101 7.85773 21.4513 8.99228 21.4513V25.4513C10.5946 25.4513 11.4166 24.0517 11.4166 22.9604H7.41657ZM8.99228 21.4513C10.1309 21.4513 10.5689 22.4146 10.5689 22.9604H6.56894C6.56894 24.0477 7.38667 25.4513 8.99228 25.4513V21.4513ZM10.5689 22.959C10.5693 23.5019 10.1341 24.4684 8.99228 24.4684V20.4684C7.38353 20.4684 6.56818 21.8765 6.56894 22.9618L10.5689 22.959Z" fill="#6DDFD8" mask="url(#path-8-inside-4_6022_803)"/>
<mask id="path-10-inside-5_6022_803" fill="white">
<path d="M27.9906 7.27615C27.9877 7.25602 27.9856 7.23628 27.9783 7.21735C27.9716 7.19943 27.9615 7.18473 27.9514 7.16862C27.9416 7.15311 27.9326 7.13781 27.9198 7.12351C27.9054 7.1082 27.8886 7.09692 27.8712 7.08504C27.8601 7.07719 27.8524 7.06652 27.84 7.06027L14.1407 0.0304084C14.1319 0.025978 14.1227 0.025978 14.1137 0.0225548C14.0944 0.0147011 14.0755 0.00926372 14.0548 0.0054374C14.0359 0.00201393 14.0181 0 13.9993 0C13.9804 0 13.9626 0.00201388 13.9438 0.0054374C13.923 0.00926367 13.9038 0.0147011 13.8847 0.0227563C13.8759 0.0261799 13.8667 0.0259785 13.8583 0.0302074L0.159005 7.06007C0.146435 7.06652 0.138683 7.07739 0.127371 7.08524C0.110193 7.09733 0.093224 7.1084 0.0789788 7.12371C0.0659901 7.1376 0.057401 7.15311 0.0473454 7.16882C0.03708 7.18473 0.0272341 7.19963 0.0205303 7.21735C0.0134077 7.23648 0.0113124 7.25602 0.00817022 7.27595C0.00607526 7.28924 0 7.30113 0 7.31502L0.000418986 27.7112C0.000418986 27.8709 0.134913 28 0.300834 28L3.70366 27.9344C3.86937 27.9344 4.18642 27.5341 4.18642 27.3744L4.34483 15.0544H23.6552V27.4226C23.6552 27.5823 23.7908 28 23.9569 28H27.6996C27.8657 28 28 27.8709 28 27.7112L27.9998 7.31502C27.9987 7.30113 27.9927 7.28924 27.9906 7.27615ZM23.6552 10.08V11.016H4.32597L4.34483 10.08H23.6552ZM4.32597 11.5936H23.6552V12.7262H4.32597V11.5936ZM24.6392 9.59483C24.6392 9.43554 24.5049 9.30605 24.3388 9.30605L3.86207 8.96C3.69636 8.96 3.37931 9.3605 3.37931 9.52L3.19828 26.88H0.784483V7.84L13.9993 1.04519L26.8534 7.84L26.9199 27.0188H24.6392V9.59483ZM4.34483 14.4944L4.32597 13.44H23.6552V14.4944H4.34483Z"/>
</mask>
<path d="M27.9906 7.27615C27.9877 7.25602 27.9856 7.23628 27.9783 7.21735C27.9716 7.19943 27.9615 7.18473 27.9514 7.16862C27.9416 7.15311 27.9326 7.13781 27.9198 7.12351C27.9054 7.1082 27.8886 7.09692 27.8712 7.08504C27.8601 7.07719 27.8524 7.06652 27.84 7.06027L14.1407 0.0304084C14.1319 0.025978 14.1227 0.025978 14.1137 0.0225548C14.0944 0.0147011 14.0755 0.00926372 14.0548 0.0054374C14.0359 0.00201393 14.0181 0 13.9993 0C13.9804 0 13.9626 0.00201388 13.9438 0.0054374C13.923 0.00926367 13.9038 0.0147011 13.8847 0.0227563C13.8759 0.0261799 13.8667 0.0259785 13.8583 0.0302074L0.159005 7.06007C0.146435 7.06652 0.138683 7.07739 0.127371 7.08524C0.110193 7.09733 0.093224 7.1084 0.0789788 7.12371C0.0659901 7.1376 0.057401 7.15311 0.0473454 7.16882C0.03708 7.18473 0.0272341 7.19963 0.0205303 7.21735C0.0134077 7.23648 0.0113124 7.25602 0.00817022 7.27595C0.00607526 7.28924 0 7.30113 0 7.31502L0.000418986 27.7112C0.000418986 27.8709 0.134913 28 0.300834 28L3.70366 27.9344C3.86937 27.9344 4.18642 27.5341 4.18642 27.3744L4.34483 15.0544H23.6552V27.4226C23.6552 27.5823 23.7908 28 23.9569 28H27.6996C27.8657 28 28 27.8709 28 27.7112L27.9998 7.31502C27.9987 7.30113 27.9927 7.28924 27.9906 7.27615ZM23.6552 10.08V11.016H4.32597L4.34483 10.08H23.6552ZM4.32597 11.5936H23.6552V12.7262H4.32597V11.5936ZM24.6392 9.59483C24.6392 9.43554 24.5049 9.30605 24.3388 9.30605L3.86207 8.96C3.69636 8.96 3.37931 9.3605 3.37931 9.52L3.19828 26.88H0.784483V7.84L13.9993 1.04519L26.8534 7.84L26.9199 27.0188H24.6392V9.59483ZM4.34483 14.4944L4.32597 13.44H23.6552V14.4944H4.34483Z" fill="#E5E5E5"/>
<path d="M27.9906 7.27615L26.0115 7.56439L26.0135 7.57831L26.0157 7.59219L27.9906 7.27615ZM27.9783 7.21735L26.105 7.918L26.1091 7.92892L26.1133 7.93978L27.9783 7.21735ZM27.9514 7.16862L29.6481 6.10964L29.644 6.10308L29.6398 6.09655L27.9514 7.16862ZM27.9198 7.12351L29.411 5.79072L29.3927 5.77024L29.3738 5.75026L27.9198 7.12351ZM27.8712 7.08504L26.7162 8.71785L26.7295 8.7272L26.7428 8.73634L27.8712 7.08504ZM27.84 7.06027L26.9269 8.8397L26.9383 8.8455L27.84 7.06027ZM14.1407 0.0304084L15.0538 -1.74898L15.047 -1.75247L15.0402 -1.75591L14.1407 0.0304084ZM14.1137 0.0225548L13.3589 1.87468L13.381 1.88366L13.4032 1.89211L14.1137 0.0225548ZM14.0548 0.0054374L14.4176 -1.96139L14.4121 -1.96239L14.0548 0.0054374ZM13.9438 0.0054374L13.5865 -1.9624L13.5809 -1.96137L13.9438 0.0054374ZM13.8847 0.0227563L14.6099 1.88663L14.6366 1.87624L14.6631 1.86508L13.8847 0.0227563ZM13.8583 0.0302074L12.9572 -1.75534L12.9452 -1.74919L13.8583 0.0302074ZM0.159005 7.06007L1.07143 8.83981L1.07211 8.83946L0.159005 7.06007ZM0.127371 7.08524L-1.01324 5.44234L-1.02328 5.4494L0.127371 7.08524ZM0.0789788 7.12371L1.54006 8.48946L1.54296 8.48634L0.0789788 7.12371ZM0.0473454 7.16882L1.72788 8.25319L1.73176 8.24712L0.0473454 7.16882ZM0.0205303 7.21735L-1.85013 6.50971L-1.85378 6.51953L0.0205303 7.21735ZM0.00817022 7.27595L1.98378 7.58735L1.98378 7.58734L0.00817022 7.27595ZM0 7.31502L-2 7.31502L-2 7.31506L0 7.31502ZM0.000418986 27.7112L2.00042 27.7112L2.00042 27.7112L0.000418986 27.7112ZM0.300834 28V30H0.320117L0.339397 29.9996L0.300834 28ZM3.70366 27.9344V25.9344H3.68438L3.6651 25.9347L3.70366 27.9344ZM4.18642 27.3744L2.18659 27.3487L2.18642 27.3615V27.3744H4.18642ZM4.34483 15.0544V13.0544H2.37038L2.34499 15.0287L4.34483 15.0544ZM23.6552 15.0544H25.6552V13.0544H23.6552V15.0544ZM28 27.7112L30 27.7112L30 27.7112L28 27.7112ZM27.9998 7.31502L29.9998 7.315L29.9998 7.23974L29.9941 7.16468L27.9998 7.31502ZM23.6552 10.08H25.6552V8.08H23.6552V10.08ZM23.6552 11.016V13.016H25.6552V11.016H23.6552ZM4.32597 11.016L2.32638 10.9757L2.28527 13.016H4.32597V11.016ZM4.34483 10.08V8.08H2.38472L2.34523 10.0397L4.34483 10.08ZM4.32597 11.5936V9.59357H2.32597V11.5936H4.32597ZM23.6552 11.5936H25.6552V9.59357H23.6552V11.5936ZM23.6552 12.7262V14.7262H25.6552V12.7262H23.6552ZM4.32597 12.7262H2.32597V14.7262H4.32597V12.7262ZM24.3388 9.30605L24.305 11.3058L24.3219 11.3061H24.3388V9.30605ZM3.86207 8.96L3.89586 6.96029L3.87897 6.96H3.86207V8.96ZM3.37931 9.52L5.3792 9.54086L5.37931 9.53043V9.52H3.37931ZM3.19828 26.88V28.88H5.17753L5.19817 26.9009L3.19828 26.88ZM0.784483 26.88H-1.21552V28.88H0.784483V26.88ZM0.784483 7.84L-0.130067 6.06135L-1.21552 6.61947V7.84H0.784483ZM13.9993 1.04519L14.934 -0.722974L14.0121 -1.21028L13.0847 -0.733461L13.9993 1.04519ZM26.8534 7.84L28.8534 7.83307L28.8493 6.63278L27.7881 6.07184L26.8534 7.84ZM26.9199 27.0188V29.0188H28.9269L28.9199 27.0119L26.9199 27.0188ZM24.6392 27.0188H22.6392V29.0188H24.6392V27.0188ZM4.34483 14.4944L2.34515 14.5301L2.38028 16.4944H4.34483V14.4944ZM4.32597 13.44V11.44H2.28988L2.32629 13.4758L4.32597 13.44ZM23.6552 13.44H25.6552V11.44H23.6552V13.44ZM23.6552 14.4944V16.4944H25.6552V14.4944H23.6552ZM29.9697 6.98792C29.9702 6.99092 29.9705 6.99307 29.97 6.98996C29.9698 6.98839 29.9688 6.98127 29.9677 6.97348C29.9654 6.95791 29.9605 6.92487 29.953 6.88425C29.9381 6.80287 29.9077 6.66142 29.8432 6.49492L26.1133 7.93978C26.0561 7.79222 26.0305 7.67009 26.0191 7.60835C26.0135 7.57755 26.0101 7.55439 26.0093 7.54878C26.0089 7.54597 26.0086 7.54384 26.0091 7.54728C26.0093 7.54918 26.0103 7.55635 26.0115 7.56439L29.9697 6.98792ZM29.8515 6.5167C29.7958 6.36788 29.7342 6.25429 29.6952 6.18726C29.6763 6.15475 29.6602 6.12897 29.6531 6.11766C29.6497 6.11219 29.6462 6.10665 29.6459 6.10622C29.6448 6.10447 29.6461 6.10655 29.6481 6.10964L26.2548 8.2276C26.2592 8.23472 26.2631 8.24078 26.2645 8.24298C26.2667 8.24651 26.2657 8.2449 26.2647 8.24336C26.2625 8.23989 26.2513 8.22193 26.237 8.19735C26.2072 8.14617 26.154 8.0489 26.105 7.918L29.8515 6.5167ZM29.6398 6.09655C29.6413 6.0988 29.6422 6.10025 29.641 6.09838C29.6405 6.09761 29.6374 6.0927 29.6343 6.08773C29.6278 6.07749 29.6139 6.05569 29.5962 6.0293C29.5598 5.97517 29.4981 5.88818 29.411 5.79072L26.4286 8.45629C26.3543 8.37313 26.3035 8.30094 26.2772 8.26192C26.2646 8.24308 26.2556 8.22891 26.254 8.22634C26.2533 8.22522 26.2526 8.22415 26.2546 8.22724C26.2558 8.22924 26.2592 8.23456 26.263 8.24069L29.6398 6.09655ZM29.3738 5.75026C29.27 5.64035 29.1733 5.56128 29.1078 5.51143C29.0753 5.48672 29.0478 5.4672 29.0304 5.45502C29.0215 5.44881 29.014 5.44364 29.0091 5.44026C29.0049 5.4374 28.9998 5.43392 28.9996 5.43375L26.7428 8.73634C26.7649 8.75139 26.7265 8.72581 26.6854 8.69455C26.6363 8.65714 26.5551 8.59136 26.4658 8.49675L29.3738 5.75026ZM29.0262 5.45223C29.1063 5.50895 29.1645 5.55944 29.1912 5.5831C29.2045 5.59491 29.2145 5.60417 29.2153 5.60488C29.2201 5.6093 29.2096 5.59964 29.2019 5.59262C29.1706 5.56415 29.0009 5.40598 28.7416 5.27505L26.9383 8.8455C26.8108 8.78111 26.7109 8.71306 26.6398 8.65909C26.5722 8.60779 26.5236 8.56364 26.5102 8.55149C26.5049 8.54668 26.4969 8.53926 26.5041 8.54592C26.5073 8.54887 26.5198 8.56036 26.5356 8.57437C26.5672 8.60244 26.6305 8.65721 26.7162 8.71785L29.0262 5.45223ZM28.7531 5.28088L15.0538 -1.74898L13.2276 1.8098L26.9269 8.83967L28.7531 5.28088ZM15.0402 -1.75591C14.9118 -1.82055 14.7972 -1.86115 14.7117 -1.88696C14.6311 -1.91127 14.5661 -1.92523 14.5508 -1.92853C14.5462 -1.92953 14.5423 -1.93036 14.542 -1.93043C14.5406 -1.93072 14.5431 -1.93018 14.546 -1.92956C14.552 -1.92828 14.5695 -1.92446 14.5922 -1.91896C14.6377 -1.90793 14.7219 -1.88586 14.8241 -1.847L13.4032 1.89211C13.51 1.93268 13.5987 1.95604 13.6487 1.96817C13.6736 1.97422 13.6935 1.97854 13.7017 1.98031C13.704 1.9808 13.7058 1.9812 13.707 1.98145C13.7076 1.98158 13.7081 1.98169 13.7085 1.98177C13.7088 1.98183 13.7091 1.9819 13.7091 1.98191C13.71 1.98208 13.7072 1.98149 13.7037 1.98074C13.693 1.97841 13.6324 1.96551 13.5563 1.94254C13.4753 1.91809 13.3652 1.87915 13.2412 1.81673L15.0402 -1.75591ZM14.8684 -1.82957C14.7172 -1.89119 14.5665 -1.93391 14.4176 -1.96138L13.692 1.97225C13.5845 1.95243 13.4716 1.92059 13.3589 1.87468L14.8684 -1.82957ZM14.4121 -1.96239C14.3075 -1.98138 14.1667 -2 13.9993 -2V2C13.8696 2 13.7644 1.98541 13.6975 1.97326L14.4121 -1.96239ZM13.9993 -2C13.8318 -2 13.6911 -1.98138 13.5865 -1.96239L14.301 1.97327C14.2342 1.98541 14.129 2 13.9993 2V-2ZM13.5809 -1.96137C13.4407 -1.9355 13.279 -1.89253 13.1063 -1.81956L14.6631 1.86508C14.5285 1.92193 14.4054 1.95403 14.3066 1.97225L13.5809 -1.96137ZM13.1595 -1.84112C13.2719 -1.88488 13.3653 -1.90912 13.4172 -1.92141C13.4432 -1.92757 13.4636 -1.9318 13.4718 -1.93351C13.4741 -1.93398 13.476 -1.93435 13.4771 -1.93458C13.4777 -1.9347 13.4782 -1.93479 13.4785 -1.93485C13.4788 -1.93491 13.479 -1.93495 13.479 -1.93496C13.4799 -1.93514 13.4761 -1.93438 13.4724 -1.93363C13.4608 -1.93128 13.3933 -1.91783 13.31 -1.8938C13.2213 -1.86817 13.0971 -1.82592 12.9572 -1.7553L14.7594 1.81572C14.6236 1.88422 14.5038 1.92491 14.4194 1.94928C14.3405 1.97205 14.2774 1.98454 14.2703 1.98599C14.2677 1.98651 14.265 1.98705 14.267 1.98664C14.2678 1.98649 14.2722 1.98561 14.2775 1.98451C14.288 1.98235 14.3106 1.97764 14.3389 1.97095C14.3953 1.9576 14.493 1.93211 14.6099 1.88663L13.1595 -1.84112ZM12.9452 -1.74919L-0.754101 5.28068L1.07211 8.83946L14.7714 1.8096L12.9452 -1.74919ZM-0.753421 5.28033C-0.886487 5.34855 -0.991241 5.42068 -1.06675 5.47859C-1.13851 5.53362 -1.19123 5.5818 -1.20761 5.5968C-1.213 5.60173 -1.22552 5.61331 -1.2181 5.60645C-1.21614 5.60464 -1.20499 5.59433 -1.19011 5.58116C-1.16032 5.5548 -1.09842 5.50151 -1.01322 5.44237L1.26797 8.72812C1.35881 8.66505 1.42593 8.60746 1.46074 8.57665C1.47815 8.56125 1.49176 8.54868 1.49617 8.5446C1.50605 8.53548 1.49598 8.54478 1.49305 8.54746C1.48159 8.55795 1.43387 8.60171 1.36745 8.65265C1.29728 8.70646 1.19821 8.77482 1.07143 8.83981L-0.753421 5.28033ZM-1.02328 5.4494C-1.02145 5.44811 -1.02013 5.44719 -1.02292 5.44914C-1.02453 5.45026 -1.03026 5.45425 -1.03659 5.45871C-1.0492 5.46758 -1.07498 5.48585 -1.10601 5.50936C-1.16842 5.55667 -1.27276 5.64048 -1.385 5.76108L1.54296 8.48634C1.44496 8.59163 1.35623 8.66226 1.31016 8.69717C1.2873 8.7145 1.26988 8.72677 1.26572 8.72969C1.26362 8.73117 1.26215 8.73219 1.26481 8.73034C1.26629 8.72931 1.27189 8.7254 1.27802 8.72109L-1.02328 5.4494ZM-1.38209 5.75796C-1.49164 5.87515 -1.56549 5.9811 -1.60442 6.03977C-1.62314 6.06797 -1.63779 6.09149 -1.64181 6.09792C-1.64985 6.1108 -1.64259 6.09914 -1.63707 6.09051L1.73176 8.24712C1.74231 8.23064 1.75441 8.21115 1.75121 8.21627C1.75115 8.21637 1.75053 8.21736 1.7496 8.21885C1.74864 8.22037 1.74717 8.2227 1.74532 8.2256C1.74169 8.23131 1.73591 8.2403 1.72855 8.2514C1.69967 8.29491 1.63661 8.38616 1.54005 8.48946L-1.38209 5.75796ZM-1.63318 6.08445C-1.63355 6.08503 -1.63366 6.08521 -1.63468 6.08679C-1.63546 6.08799 -1.63672 6.08994 -1.63815 6.09216C-1.64096 6.09653 -1.64556 6.10369 -1.65099 6.11228C-1.66165 6.12915 -1.679 6.15703 -1.69902 6.19166C-1.73975 6.26215 -1.79749 6.37064 -1.8501 6.50972L1.89116 7.92498C1.84525 8.04634 1.79579 8.13852 1.76422 8.19315C1.73857 8.23754 1.71213 8.27757 1.72787 8.25318L-1.63318 6.08445ZM-1.85378 6.51953C-1.91215 6.6763 -1.94008 6.80851 -1.95377 6.88252C-1.96054 6.91908 -1.96509 6.94888 -1.96688 6.96066C-1.97051 6.98454 -1.96754 6.9652 -1.96744 6.96457L1.98378 7.58734C1.98545 7.57673 1.98986 7.54747 1.98773 7.56149C1.98744 7.5634 1.98444 7.58338 1.97949 7.61018C1.96941 7.66465 1.94609 7.77753 1.89484 7.91517L-1.85378 6.51953ZM-1.96744 6.96455C-1.95238 6.86904 -1.93337 6.79593 -1.92483 6.7643C-1.92252 6.75577 -1.92059 6.74885 -1.91931 6.74433C-1.91808 6.73998 -1.91715 6.73676 -1.91705 6.73642C-1.91579 6.73203 -1.91956 6.74502 -1.92283 6.75671C-1.93517 6.80086 -2 7.02387 -2 7.31502H2C2 7.45819 1.98423 7.57838 1.96801 7.6666C1.95253 7.7508 1.9348 7.8146 1.92943 7.83381C1.92705 7.84232 1.9242 7.85213 1.92638 7.84457C1.92724 7.84158 1.9317 7.82619 1.93685 7.80712C1.94712 7.76909 1.96768 7.68951 1.98378 7.58735L-1.96744 6.96455ZM-2 7.31506L-1.99958 27.7113L2.00042 27.7112L2 7.31498L-2 7.31506ZM-1.99958 27.7112C-1.99958 29.05 -0.893591 30 0.300834 30V26C1.16342 26 2.00042 26.6918 2.00042 27.7112H-1.99958ZM0.339397 29.9996L3.74223 29.934L3.6651 25.9347L0.26227 26.0004L0.339397 29.9996ZM3.70366 29.9344C4.43228 29.9344 4.93187 29.5578 5.05389 29.4657C5.26174 29.3088 5.42579 29.1361 5.54397 28.9942C5.6651 28.8488 5.78951 28.6737 5.89508 28.4777C5.95805 28.3608 6.18642 27.9363 6.18642 27.3744H2.18642C2.18642 27.091 2.25088 26.8823 2.28059 26.7956C2.31595 26.6925 2.35277 26.6193 2.37351 26.5808C2.41445 26.5047 2.44924 26.4597 2.47039 26.4343C2.4886 26.4125 2.54232 26.3498 2.64411 26.273C2.69577 26.234 2.79475 26.1648 2.93771 26.0992C3.06879 26.039 3.33889 25.9344 3.70366 25.9344V29.9344ZM6.18626 27.4001L6.34466 15.0801L2.34499 15.0287L2.18659 27.3487L6.18626 27.4001ZM4.34483 17.0544H23.6552V13.0544H4.34483V17.0544ZM21.6552 15.0544V27.4226H25.6552V15.0544H21.6552ZM21.6552 27.4226C21.6552 27.8702 21.7901 28.2967 21.9128 28.5759C21.9823 28.7342 22.1103 28.9904 22.3278 29.2416C22.506 29.4473 23.0504 30 23.9569 30V26C24.7803 26 25.2455 26.5005 25.3515 26.6229C25.4969 26.7908 25.5598 26.9326 25.5747 26.9665C25.5974 27.0181 25.6105 27.0599 25.6199 27.098C25.6235 27.1124 25.6552 27.2332 25.6552 27.4226H21.6552ZM23.9569 30H27.6996V26H23.9569V30ZM27.6996 30C28.8951 30 30 29.0492 30 27.7112H26C26 26.6927 26.8363 26 27.6996 26V30ZM30 27.7112L29.9998 7.315L25.9998 7.31504L26 27.7112L30 27.7112ZM29.9941 7.16468C29.9847 7.03904 29.9652 6.93494 29.9482 6.86065C29.9322 6.79005 29.9156 6.73499 29.9114 6.72119C29.9102 6.71709 29.9091 6.71354 29.909 6.713C29.9085 6.71156 29.9091 6.71339 29.9097 6.71553C29.911 6.71988 29.9153 6.73421 29.9205 6.75308C29.9308 6.79021 29.9502 6.8643 29.9655 6.96011L26.0157 7.59219C26.0321 7.69455 26.053 7.77503 26.065 7.8185C26.0711 7.84055 26.0763 7.85804 26.0786 7.86555C26.0797 7.86927 26.0808 7.87268 26.0808 7.87282C26.0811 7.87386 26.0805 7.8719 26.0798 7.86938C26.0775 7.86192 26.0628 7.81326 26.0482 7.74921C26.0327 7.68146 26.0144 7.58405 26.0054 7.46536L29.9941 7.16468ZM21.6552 10.08V11.016H25.6552V10.08H21.6552ZM23.6552 9.01601H4.32597V13.016H23.6552V9.01601ZM6.32556 11.0563L6.34442 10.1203L2.34523 10.0397L2.32638 10.9757L6.32556 11.0563ZM4.34483 12.08H23.6552V8.08H4.34483V12.08ZM4.32597 13.5936H23.6552V9.59357H4.32597V13.5936ZM21.6552 11.5936V12.7262H25.6552V11.5936H21.6552ZM23.6552 10.7262H4.32597V14.7262H23.6552V10.7262ZM6.32597 12.7262V11.5936H2.32597V12.7262H6.32597ZM26.6392 9.59483C26.6392 8.25909 25.5362 7.30605 24.3388 7.30605V11.3061C23.4736 11.3061 22.6392 10.612 22.6392 9.59483H26.6392ZM24.3726 7.30634L3.89586 6.96029L3.82827 10.9597L24.305 11.3058L24.3726 7.30634ZM3.86207 6.96C3.13315 6.96 2.63343 7.33694 2.51154 7.42898C2.30374 7.58588 2.13974 7.75855 2.02163 7.90039C1.90056 8.04578 1.77623 8.22076 1.67071 8.41661C1.60794 8.53312 1.37931 8.95783 1.37931 9.52H5.37931C5.37931 9.80364 5.31472 10.0126 5.28504 10.0991C5.24967 10.2022 5.21287 10.2754 5.19216 10.3138C5.15128 10.3897 5.11656 10.4347 5.09547 10.46C5.07733 10.4818 5.02367 10.5443 4.92192 10.6212C4.87029 10.6602 4.77132 10.7294 4.62833 10.7951C4.49726 10.8553 4.22703 10.96 3.86207 10.96V6.96ZM1.37942 9.49914L1.19838 26.8591L5.19817 26.9009L5.3792 9.54086L1.37942 9.49914ZM3.19828 24.88H0.784483V28.88H3.19828V24.88ZM2.78448 26.88V7.84H-1.21552V26.88H2.78448ZM1.69903 9.61865L14.9138 2.82384L13.0847 -0.733461L-0.130067 6.06135L1.69903 9.61865ZM13.0646 2.81335L25.9188 9.60816L27.7881 6.07184L14.934 -0.722974L13.0646 2.81335ZM24.8535 7.84693L24.9199 27.0258L28.9199 27.0119L28.8534 7.83307L24.8535 7.84693ZM26.9199 25.0188H24.6392V29.0188H26.9199V25.0188ZM26.6392 27.0188V9.59483H22.6392V27.0188H26.6392ZM6.34451 14.4586L6.32565 13.4042L2.32629 13.4758L2.34515 14.5301L6.34451 14.4586ZM4.32597 15.44H23.6552V11.44H4.32597V15.44ZM21.6552 13.44V14.4944H25.6552V13.44H21.6552ZM23.6552 12.4944H4.34483V16.4944H23.6552V12.4944Z" fill="#6DDFD8" mask="url(#path-10-inside-5_6022_803)"/>
</svg>
