<svg width="22" height="20" viewBox="0 0 22 20" fill="none" xmlns="http://www.w3.org/2000/svg">
<path d="M1.60353 3.56775C1.60354 3.03938 2.03188 2.61106 2.56025 2.61106H2.79543C3.19393 2.61106 3.51697 2.28801 3.51697 1.88951C3.51697 1.49101 3.19393 1.16797 2.79543 1.16797H1C0.447715 1.16797 0 1.61568 0 2.16797V18.9991C0 19.5514 0.447715 19.9991 1 19.9991H21C21.5523 19.9991 22 19.5514 22 18.9991V2.16797C22 1.61568 21.5523 1.16797 21 1.16797H19.2046C18.8061 1.16797 18.483 1.49101 18.483 1.88951C18.483 2.28801 18.8061 2.61106 19.2046 2.61106H19.4398C19.9682 2.61106 20.3966 3.03945 20.3966 3.56789L20.3965 4.99736C20.3965 5.54962 19.9488 5.9973 19.3965 5.9973H2.60349C2.05119 5.9973 1.60347 5.54957 1.60349 4.99727L1.60353 3.56775ZM19.3965 7.44039C19.9488 7.44039 20.3965 7.8881 20.3965 8.44039V17.5562C20.3965 18.1085 19.9488 18.5562 19.3965 18.5562H2.60355C2.05127 18.5562 1.60355 18.1085 1.60355 17.5562V8.44039C1.60355 7.8881 2.05127 7.44039 2.60355 7.44039H19.3965Z" fill="#04294B"/>
<path d="M10.1836 9.41547C10.1836 8.9638 10.5497 8.59766 11.0014 8.59766C11.4531 8.59766 11.8192 8.9638 11.8192 9.41547V13.5299C11.8192 13.9816 11.4531 14.3478 11.0014 14.3478C10.5497 14.3478 10.1836 13.9816 10.1836 13.5299V9.41547Z" fill="#04294B"/>
<path d="M11.9399 16.077C11.9399 16.5445 11.5188 16.9237 10.9993 16.9237C10.4797 16.9237 10.0586 16.5445 10.0586 16.077C10.0586 15.6094 10.4797 15.2305 10.9993 15.2305C11.5188 15.2305 11.9399 15.6094 11.9399 16.077Z" fill="#04294B"/>
<path d="M6.45703 1.88951C6.45703 1.49101 6.78008 1.16797 7.17858 1.16797H14.822C15.2205 1.16797 15.5436 1.49101 15.5436 1.88951C15.5436 2.28801 15.2205 2.61106 14.822 2.61106H7.17858C6.78008 2.61106 6.45703 2.28801 6.45703 1.88951Z" fill="#04294B"/>
<path d="M4.18359 0.8018C4.18359 0.358978 4.54257 0 4.98539 0C5.42822 0 5.78719 0.358978 5.78719 0.8018V3.16637C5.78719 3.60919 5.42822 3.96817 4.98539 3.96817C4.54257 3.96817 4.18359 3.60919 4.18359 3.16637V0.8018Z" fill="#04294B"/>
<path d="M16.2109 0.8018C16.2109 0.358978 16.5699 0 17.0127 0C17.4556 0 17.8145 0.358978 17.8145 0.8018V3.16637C17.8145 3.60919 17.4556 3.96817 17.0127 3.96817C16.5699 3.96817 16.2109 3.60919 16.2109 3.16637V0.8018Z" fill="#04294B"/>
</svg>
