<svg width="28" height="28" viewBox="0 0 28 28" fill="none" xmlns="http://www.w3.org/2000/svg">
<mask id="path-1-inside-1_6022_819" fill="white">
<path d="M19.9928 6.50267C19.9928 10.094 16.9925 13 13.4041 13C9.81566 13 6.99805 10.0883 6.99805 6.49702C6.99805 2.9057 9.81566 0 13.4041 0C16.9925 0 19.9928 2.91134 19.9928 6.50267ZM8.29752 6.49702C8.29752 9.67784 10.2258 11.5547 13.4041 11.5547C16.5823 11.5547 18.6933 9.68348 18.6933 6.50267C18.6933 3.32185 16.5823 1.43939 13.4041 1.43939C10.2258 1.43939 8.29752 3.3162 8.29752 6.49702Z"/>
</mask>
<path d="M19.9928 6.50267C19.9928 10.094 16.9925 13 13.4041 13C9.81566 13 6.99805 10.0883 6.99805 6.49702C6.99805 2.9057 9.81566 0 13.4041 0C16.9925 0 19.9928 2.91134 19.9928 6.50267ZM8.29752 6.49702C8.29752 9.67784 10.2258 11.5547 13.4041 11.5547C16.5823 11.5547 18.6933 9.68348 18.6933 6.50267C18.6933 3.32185 16.5823 1.43939 13.4041 1.43939C10.2258 1.43939 8.29752 3.3162 8.29752 6.49702Z" fill="#6DDFD8"/>
<path d="M17.9928 6.50267C17.9928 8.95272 15.925 11 13.4041 11V15C18.06 15 21.9928 11.2353 21.9928 6.50267H17.9928ZM13.4041 11C10.9587 11 8.99805 9.02262 8.99805 6.49702H4.99805C4.99805 11.1541 8.67264 15 13.4041 15V11ZM8.99805 6.49702C8.99805 3.97383 10.9563 2 13.4041 2V-2C8.675 -2 4.99805 1.83756 4.99805 6.49702H8.99805ZM13.4041 2C15.9228 2 17.9928 4.0505 17.9928 6.50267H21.9928C21.9928 1.77219 18.0621 -2 13.4041 -2V2ZM6.29752 6.49702C6.29752 8.49492 6.91191 10.3191 8.25494 11.643C9.59397 12.9629 11.4231 13.5547 13.4041 13.5547V9.55465C12.2068 9.55465 11.4827 9.208 11.063 8.7943C10.6473 8.38456 10.2975 7.67994 10.2975 6.49702H6.29752ZM13.4041 13.5547C15.3796 13.5547 17.2315 12.9687 18.6069 11.682C19.9995 10.3792 20.6933 8.55347 20.6933 6.50267H16.6933C16.6933 7.63268 16.3317 8.33298 15.8742 8.76095C15.3995 9.20505 14.6068 9.55465 13.4041 9.55465V13.5547ZM20.6933 6.50267C20.6933 4.45225 19.9999 2.62511 18.6093 1.31993C17.2349 0.0300373 15.3827 -0.560608 13.4041 -0.560608V3.43939C14.6036 3.43939 15.3961 3.78998 15.8718 4.23652C16.3313 4.66777 16.6933 5.37226 16.6933 6.50267H20.6933ZM13.4041 -0.560608C11.4231 -0.560608 9.59397 0.0311436 8.25494 1.35106C6.91191 2.67492 6.29752 4.49913 6.29752 6.49702H10.2975C10.2975 5.3141 10.6473 4.60949 11.063 4.19974C11.4827 3.78605 12.2068 3.43939 13.4041 3.43939V-0.560608Z" fill="#6DDFD8" mask="url(#path-1-inside-1_6022_819)"/>
<path d="M13.4946 14.5C19.9905 14.5 23.2879 16.9698 25.0142 19.6592C26.752 22.3664 27.0024 25.4604 27 27L1.03113 27C0.971159 25.472 1.09272 22.3654 2.66175 19.6486C4.21022 16.9675 7.26249 14.5 13.4946 14.5Z" stroke="#6DDFD8" stroke-width="2"/>
<path d="M11.8915 15.25H15.036C15.2319 15.25 15.3517 15.465 15.2486 15.6315L14.2209 17.2925C14.1754 17.3662 14.0949 17.411 14.0083 17.411H12.9191C12.8325 17.411 12.7521 17.3662 12.7065 17.2925L11.6789 15.6315C11.5758 15.465 11.6956 15.25 11.8915 15.25Z" stroke="#6DDFD8" stroke-width="0.5"/>
<path d="M15.4002 24.3168L11.7278 24.3525C11.5663 24.3541 11.4449 24.2044 11.48 24.0469L12.8 18.1286C12.8252 18.0157 12.9246 17.9353 13.0403 17.9342L13.897 17.9259C14.0128 17.9248 14.1146 18.0032 14.1431 18.1155L15.6388 24.0065C15.6786 24.1632 15.5617 24.3152 15.4002 24.3168Z" stroke="#6DDFD8" stroke-width="0.5"/>
</svg>
