<svg width="30" height="30" viewBox="0 0 30 30" fill="none" xmlns="http://www.w3.org/2000/svg">
<path d="M8.77778 1H2.55556V5.66667M2.55556 5.66667H1V8.25926H2.55556M2.55556 5.66667H27.4444M21.2222 8.25926H2.55556M23.2963 8.25926H27.4444M27.4444 5.66667H29V8.25926H27.4444M27.4444 5.66667V1H10.3333M2.55556 8.25926V26.9259M27.4444 8.25926V26.9259M9.2963 10.3333H20.7037M2.55556 26.9259V29H27.4444V26.9259M2.55556 26.9259H7.74074M9.2963 26.9259H17.0741M27.4444 26.9259H25.8889M17.0741 26.9259V12.9259H25.8889V26.9259M17.0741 26.9259H25.8889M18.6296 19.1481V20.7037M8.77778 16.037L7.22222 17.5926M6.18518 16.037L7.22222 15M4.11111 12.9259H15V22.7778H4.11111V12.9259Z" stroke="#6DDFD8" stroke-linecap="round" stroke-linejoin="round"/>
</svg>
