<svg width="719" height="75" viewBox="0 0 719 75" fill="none" xmlns="http://www.w3.org/2000/svg">
<path d="M0 75H719V0H0V75Z" fill="#545252"/>
<path d="M24.4044 39.9862H1.75195V37.5859H24.4044V39.9862Z" fill="white"/>
<path d="M59.215 39.7225H36.5625V37.3223H59.215V39.7225Z" fill="white"/>
<path d="M95.1256 39.7225H72.4731V37.3223H95.1256V39.7225Z" fill="white"/>
<path d="M131.044 39.7225H108.391V37.3223H131.044V39.7225Z" fill="white"/>
<path d="M166.949 39.7225H144.296V37.3223H166.949V39.7225Z" fill="white"/>
<path d="M202.882 39.7225H180.212V37.3223H202.882V39.7225Z" fill="white"/>
<path d="M238.791 39.7225H216.121V37.3223H238.791V39.7225Z" fill="white"/>
<path d="M281.987 39.7225H259.316V37.3223H281.987V39.7225Z" fill="white"/>
<path d="M317.898 39.7225H295.228V37.3223H317.898V39.7225Z" fill="white"/>
<path d="M353.802 39.7225H331.15V37.3223H353.802V39.7225Z" fill="white"/>
<path d="M389.717 39.7225H367.065V37.3223H389.717V39.7225Z" fill="white"/>
<path d="M425.626 39.7225H402.974V37.3223H425.626V39.7225Z" fill="white"/>
<path d="M461.541 39.7225H438.889V37.3223H461.541V39.7225Z" fill="white"/>
<path d="M501.7 39.7225H479.047V37.3223H501.7V39.7225Z" fill="white"/>
<path d="M537.608 39.7225H514.956V37.3223H537.608V39.7225Z" fill="white"/>
<path d="M573.517 39.7225H550.864V37.3223H573.517V39.7225Z" fill="white"/>
<path d="M609.425 39.7225H586.773V37.3223H609.425V39.7225Z" fill="white"/>
<path d="M645.366 39.7225H622.695V37.3223H645.366V39.7225Z" fill="white"/>
<path d="M681.276 39.7225H658.624V37.3223H681.276V39.7225Z" fill="white"/>
<path d="M716.574 39.7225H693.921V37.3223H716.574V39.7225Z" fill="white"/>
<path d="M669.68 44.9453H669.021V48.7528H669.68V44.9453Z" fill="#FAFAFA"/>
<path d="M669.558 47.3438H660.248V59.5406H669.558V47.3438Z" fill="#FF725E"/>
<path d="M670.757 52.6055H617.348V62.0201H670.757V52.6055Z" fill="#6DDFDF"/>
<g opacity="0.5">
<path opacity="0.5" d="M670.761 52.6074H617.352V62.0221H670.761V52.6074Z" fill="black"/>
</g>
<path d="M629.665 62.1062C629.738 58.691 627.492 55.852 624.649 55.7649C621.806 55.6779 619.442 58.3758 619.37 61.791C619.298 65.2061 621.543 68.0452 624.386 68.1322C627.229 68.2193 629.593 65.5213 629.665 62.1062Z" fill="#263238"/>
<path d="M619.376 61.8535C619.375 61.8596 619.375 61.8658 619.376 61.8719C619.356 63.5124 619.88 65.0951 620.832 66.2718C621.784 67.4485 623.086 68.1227 624.451 68.1463C625.817 68.1698 627.135 67.5407 628.114 66.3973C629.094 65.2539 629.655 63.6899 629.674 62.0494L619.376 61.8535Z" fill="#263238"/>
<path d="M620.907 61.8967C620.897 62.7553 621.1 63.5981 621.489 64.3184C621.878 65.0387 622.436 65.6044 623.093 65.9438C623.749 66.2832 624.475 66.3812 625.178 66.2254C625.881 66.0696 626.529 65.667 627.042 65.0684C627.554 64.4698 627.908 63.7022 628.057 62.8625C628.207 62.0227 628.146 61.1487 627.882 60.3507C627.618 59.5527 627.163 58.8666 626.574 58.3791C625.986 57.8916 625.29 57.6245 624.576 57.6118C624.1 57.6037 623.629 57.7081 623.187 57.9191C622.746 58.13 622.343 58.4434 622.002 58.8413C621.661 59.2392 621.389 59.7139 621.201 60.2381C621.013 60.7624 620.913 61.326 620.907 61.8967Z" fill="#FAFAFA"/>
<path d="M624.575 57.6177C624.1 57.6092 623.628 57.7133 623.186 57.9241C622.745 58.135 622.342 58.4483 622.001 58.8463C621.66 59.2443 621.388 59.7191 621.2 60.2435C621.013 60.768 620.913 61.3317 620.906 61.9026L628.137 62.0281C628.145 61.4575 628.058 60.8907 627.883 60.3602C627.708 59.8296 627.448 59.3457 627.117 58.9361C626.786 58.5265 626.392 58.1993 625.955 57.973C625.519 57.7468 625.05 57.626 624.575 57.6177Z" fill="#E0E0E0"/>
<path d="M622.321 61.9205C622.315 62.4442 622.437 62.9584 622.674 63.3981C622.911 63.8379 623.251 64.1833 623.651 64.3909C624.052 64.5984 624.494 64.6586 624.923 64.5639C625.352 64.4692 625.748 64.2239 626.06 63.859C626.373 63.494 626.589 63.0259 626.68 62.5137C626.771 62.0016 626.734 61.4684 626.573 60.9818C626.412 60.4951 626.134 60.0768 625.775 59.7797C625.416 59.4826 624.991 59.3201 624.556 59.3128C624.266 59.3075 623.979 59.3708 623.71 59.4991C623.441 59.6273 623.196 59.818 622.988 60.0602C622.781 60.3024 622.615 60.5914 622.501 60.9106C622.386 61.2298 622.325 61.573 622.321 61.9205Z" fill="#263238"/>
<path d="M669.053 62.1206C669.127 58.7055 666.882 55.865 664.039 55.7762C661.196 55.6873 658.832 58.3838 658.758 61.7989C658.684 65.214 660.929 68.0544 663.772 68.1433C666.614 68.2321 668.979 65.5356 669.053 62.1206Z" fill="#263238"/>
<path d="M658.757 61.8535C658.757 61.8535 658.757 61.8535 658.757 61.8719C658.738 63.5124 659.261 65.0951 660.213 66.2718C661.165 67.4485 662.467 68.1227 663.833 68.1463C665.198 68.1698 666.516 67.5407 667.496 66.3973C668.475 65.2539 669.036 63.6899 669.056 62.0494L658.757 61.8535Z" fill="#263238"/>
<path d="M660.291 61.8967C660.281 62.7555 660.484 63.5983 660.873 64.3187C661.262 65.0392 661.821 65.6048 662.477 65.9441C663.134 66.2835 663.86 66.3813 664.563 66.2253C665.266 66.0692 665.915 65.6663 666.427 65.0674C666.94 64.4685 667.293 63.7006 667.442 62.8606C667.591 62.0207 667.53 61.1465 667.265 60.3486C667.001 59.5506 666.546 58.8647 665.957 58.3776C665.368 57.8904 664.672 57.6239 663.957 57.6118C663.482 57.6037 663.011 57.7081 662.569 57.9191C662.128 58.1301 661.725 58.4436 661.385 58.8415C661.044 59.2394 660.772 59.7141 660.585 60.2383C660.397 60.7626 660.297 61.3261 660.291 61.8967Z" fill="#FAFAFA"/>
<path d="M663.957 57.6177C663.482 57.6092 663.01 57.7133 662.568 57.9242C662.127 58.1351 661.724 58.4485 661.384 58.8465C661.043 59.2445 660.771 59.7193 660.584 60.2438C660.396 60.7682 660.297 61.3319 660.291 61.9026L667.519 62.0281C667.526 61.4575 667.44 60.8907 667.265 60.3602C667.09 59.8296 666.83 59.3457 666.499 58.9361C666.168 58.5265 665.773 58.1993 665.337 57.973C664.901 57.7468 664.432 57.626 663.957 57.6177Z" fill="#E0E0E0"/>
<path d="M661.712 61.9205C661.705 62.4441 661.828 62.9584 662.065 63.3981C662.302 63.8378 662.642 64.1833 663.042 64.3908C663.442 64.5983 663.885 64.6585 664.314 64.5639C664.743 64.4692 665.138 64.2239 665.451 63.8589C665.764 63.494 665.979 63.0258 666.071 62.5137C666.162 62.0015 666.124 61.4684 665.963 60.9817C665.802 60.4951 665.525 60.0767 665.166 59.7796C664.806 59.4826 664.382 59.3201 663.946 59.3128C663.362 59.3029 662.799 59.5721 662.38 60.0611C661.961 60.55 661.72 61.2188 661.712 61.9205Z" fill="#263238"/>
<path d="M631.275 47.3116C631.275 47.3116 623.69 47.985 620.88 48.741C618.9 49.2735 615.078 50.1948 615.126 53.0841L615.427 55.1531C615.003 55.4122 614.647 55.8062 614.397 56.292C614.148 56.7778 614.014 57.3367 614.01 57.9077C614.01 59.8911 613.664 62.967 616.971 63.0925C617.516 63.1109 618.553 63.0925 618.553 63.0925C618.553 63.0925 617.916 54.6297 624.388 54.3818C630.972 54.1308 630.536 63.013 630.536 63.013H658.01C658.01 63.013 656.884 54.3573 663.969 54.3451C671.055 54.3328 669.977 63.0711 669.977 63.0711C669.977 63.0711 672.584 63.3404 673.799 60.7083C675.015 58.0761 674.706 56.2244 674.706 56.2244L674.666 54.5624C674.659 54.2893 674.567 54.0292 674.407 53.8349C674.247 53.6405 674.032 53.5264 673.804 53.5156C673.804 53.5156 674.278 49.3286 673.55 48.6032C672.821 47.8779 668.841 43.5041 668.841 43.5041L669.032 43.3603C669.104 43.3064 669.161 43.2293 669.197 43.1379C669.234 43.0465 669.248 42.9446 669.238 42.844C669.228 42.7433 669.195 42.6481 669.142 42.5694C669.088 42.4907 669.018 42.4317 668.938 42.3992L663.735 40.2568C663.629 40.2111 663.519 40.1833 663.406 40.1741C662.989 40.1343 661.801 40.0425 659.62 40.015C656.965 39.9813 646.42 40.015 646.42 40.015C646.42 40.015 642.791 40.3731 640.768 41.4443C638.633 42.54 631.275 47.3116 631.275 47.3116Z" fill="#6DDFDF"/>
<g opacity="0.4">
<path opacity="0.4" d="M615.936 57.6837C615.661 57.6163 615.238 57.6102 615.029 57.8336C614.889 58.0227 614.81 58.2661 614.808 58.5192C614.765 58.8598 614.772 59.2068 614.828 59.5446C614.857 59.7133 614.915 59.873 614.998 60.0137C615.08 60.1543 615.187 60.2728 615.309 60.3618C615.434 60.4465 615.579 60.4812 615.721 60.4608C615.864 60.4404 615.997 60.3661 616.102 60.2485C616.259 59.9922 616.328 59.6735 616.296 59.3579C616.311 58.9367 616.296 58.5148 616.25 58.0969C616.235 58.0046 616.203 57.9177 616.155 57.8428C616.132 57.7975 616.1 57.7594 616.062 57.7317C616.024 57.7041 615.981 57.6876 615.936 57.6837Z" fill="black"/>
</g>
<path d="M615.427 55.1533C616.232 55.1533 617.014 55.0982 617.817 55.0339C617.865 55.0432 617.915 55.0377 617.961 55.018C618.007 54.9983 618.048 54.965 618.081 54.9212C618.114 54.8773 618.137 54.8243 618.148 54.767C618.159 54.7097 618.158 54.6499 618.145 54.5932C618.145 54.0759 618.127 53.4852 617.801 53.1485C617.587 52.9593 617.331 52.8526 617.065 52.8424C616.412 52.7592 615.752 52.8394 615.126 53.0781L615.427 55.1533Z" fill="#FAFAFA"/>
<path d="M632.156 62.7556C632.156 62.7556 632.156 62.7281 632.156 62.673C632.156 62.6179 632.156 62.5352 632.143 62.4281C632.143 62.2139 632.118 61.8986 632.1 61.5099C632.082 61.1212 632.059 60.5917 632.011 60.0347C631.961 59.3854 631.866 58.7423 631.725 58.1125C631.554 57.3506 631.297 56.6205 630.961 55.9425C630.579 55.1594 630.069 54.4767 629.463 53.9347C628.017 52.7722 626.313 52.158 624.573 52.1717C622.831 52.1239 621.125 52.7696 619.72 54.0082C619.111 54.5466 618.579 55.1986 618.142 55.9395C617.762 56.5838 617.452 57.2844 617.22 58.0238C617.03 58.6342 616.899 59.2689 616.83 59.9153C616.777 60.4043 616.761 60.898 616.782 61.3905C616.798 61.6988 616.83 62.0055 616.879 62.3087L616.914 62.5475C616.914 62.6026 616.914 62.6301 616.914 62.6301C616.908 62.604 616.903 62.5774 616.899 62.5505L616.858 62.3118C616.805 62.0092 616.77 61.7023 616.754 61.3936C616.728 60.9005 616.741 60.4055 616.792 59.9153C616.858 59.2648 616.987 58.6259 617.177 58.0115C617.406 57.2661 617.716 56.5601 618.099 55.9119C618.537 55.166 619.071 54.5088 619.681 53.9653C621.094 52.7187 622.811 52.0678 624.563 52.1136C626.314 52.1021 628.026 52.7216 629.481 53.8919C630.089 54.4408 630.601 55.1295 630.986 55.918C631.322 56.6016 631.579 57.3367 631.751 58.1034C631.888 58.7368 631.981 59.3827 632.029 60.0347C632.074 60.607 632.092 61.1059 632.11 61.5099C632.128 61.9139 632.136 62.2292 632.143 62.4281C632.143 62.5352 632.143 62.6148 632.143 62.673C632.149 62.7001 632.153 62.7277 632.156 62.7556Z" fill="#263238"/>
<path d="M632.436 62.9006C632.435 62.8772 632.435 62.8537 632.436 62.8302C632.436 62.7843 632.436 62.7139 632.436 62.6252C632.436 62.4446 632.436 62.1752 632.416 61.8263C632.401 61.1254 632.375 60.1001 632.345 58.7932C632.314 57.4863 632.278 55.9039 632.238 54.0859C632.238 53.6329 632.217 53.1677 632.204 52.681C632.197 52.4356 632.207 52.19 632.232 51.9464C632.245 51.824 632.26 51.6985 632.276 51.5761C632.291 51.4537 632.319 51.3282 632.339 51.2027C632.439 50.6923 632.582 50.1959 632.767 49.7213C632.959 49.222 633.195 48.7498 633.473 48.3134L638.23 44.714L639.517 43.7407C639.95 43.3929 640.405 43.0859 640.877 42.8225C641.356 42.554 641.847 42.318 642.348 42.1155C642.602 42.0084 642.857 41.9196 643.112 41.8278C643.367 41.736 643.634 41.6595 643.902 41.5952C644.908 41.3351 645.931 41.1795 646.959 41.13C647.948 41.0687 648.939 41.0687 649.928 41.13H649.958V41.1606C649.502 43.6091 649.074 45.9169 648.684 48.0318C648.449 48.4974 648.257 48.992 648.111 49.5071C647.964 49.9973 647.899 50.517 647.917 51.0374C647.95 51.5455 647.961 52.0413 647.971 52.5249C647.981 53.0085 647.989 53.4737 647.994 53.9267C648.017 55.7417 648.022 57.3271 648.027 58.631C648.032 59.9348 648.027 60.9602 648.027 61.6611C648.027 62.01 648.027 62.2732 648.027 62.4599V62.665C648.027 62.7109 648.027 62.7353 648.027 62.7353C648.026 62.7119 648.026 62.6884 648.027 62.665C648.027 62.619 648.027 62.5486 648.027 62.4599C648.027 62.2793 648.027 62.01 648.027 61.6611C648.027 60.9602 648.027 59.9348 648.012 58.631C647.996 57.3271 647.994 55.7447 647.968 53.9298C647.968 53.4727 647.961 53.0044 647.945 52.5249C647.945 52.0444 647.92 51.5485 647.887 51.0405C647.869 50.5152 647.935 49.9907 648.08 49.4948C648.228 48.9754 648.422 48.4767 648.659 48.0073C649.051 45.8924 649.477 43.5846 649.933 41.1361L649.953 41.1728C648.966 41.1115 647.977 41.1115 646.99 41.1728C645.961 41.2206 644.939 41.3752 643.932 41.635C643.665 41.6993 643.405 41.788 643.145 41.8676C642.885 41.9472 642.635 42.0482 642.381 42.1522C641.88 42.355 641.389 42.5911 640.911 42.8593C640.44 43.1232 639.987 43.4301 639.555 43.7775L638.281 44.7508L633.519 48.3471C633.243 48.7794 633.008 49.2475 632.818 49.7427C632.634 50.2133 632.49 50.7056 632.39 51.2119C632.174 52.2035 632.283 53.183 632.286 54.0859C632.322 55.9039 632.355 57.4863 632.383 58.7932C632.411 60.1001 632.429 61.1254 632.441 61.8263C632.441 62.1752 632.454 62.4385 632.457 62.6252V62.9006H632.436Z" fill="#263238"/>
<path d="M649.914 41.3354H649.957H650.09L650.599 41.3201L652.495 41.2742L658.885 41.1426H658.911L659.805 42.4587L662.353 46.2264L662.643 46.6549C662.736 46.7978 662.816 46.9516 662.883 47.114C663.005 47.4297 663.07 47.7729 663.074 48.1209C663.075 48.4455 663.023 48.7672 662.918 49.0667C662.816 49.3513 662.72 49.6237 662.625 49.8808L661.744 52.3294C661.639 52.6171 661.558 52.8405 661.489 52.9936C661.464 53.0701 661.441 53.1252 661.425 53.168L661.402 53.2262C661.402 53.2262 661.402 53.2047 661.42 53.165L661.481 52.9905C661.535 52.8344 661.614 52.6079 661.716 52.3202C661.92 51.7356 662.225 50.8939 662.585 49.8564C662.75 49.333 663.041 48.782 663.02 48.1118C663.019 47.7716 662.954 47.436 662.832 47.1293C662.767 46.9695 662.689 46.8187 662.597 46.6794L662.304 46.2509L659.756 42.4893L658.86 41.1701H658.88L652.49 41.2803L650.594 41.3078H649.906L649.914 41.3354Z" fill="#263238"/>
<path d="M646.68 51.5436H646.756C646.85 51.5264 646.937 51.4784 647.009 51.4049C647.081 51.3314 647.135 51.2353 647.164 51.1273C647.186 51.0443 647.195 50.9571 647.19 50.8702C647.188 50.7752 647.168 50.6819 647.131 50.5978C647.088 50.501 647.024 50.4198 646.946 50.3627C646.868 50.3056 646.779 50.2748 646.688 50.2734H644.55C644.425 50.2723 644.304 50.3266 644.21 50.426C644.116 50.5253 644.055 50.6628 644.04 50.8121C644.025 50.9521 644.047 51.0943 644.102 51.2192C644.16 51.3379 644.25 51.4304 644.356 51.4824C644.459 51.525 644.569 51.5407 644.677 51.5283H645.556H646.377H646.598C646.625 51.5238 646.651 51.5238 646.677 51.5283H646.598H646.377H645.556H644.509C644.451 51.5233 644.393 51.5078 644.339 51.4824C644.225 51.4249 644.13 51.3237 644.068 51.1947C644.007 51.0591 643.983 50.9038 644 50.7509C644.014 50.5919 644.077 50.4448 644.175 50.3377C644.277 50.225 644.409 50.1617 644.547 50.1602H646.685C646.783 50.1628 646.879 50.1972 646.963 50.2597C647.046 50.3221 647.114 50.4104 647.159 50.5152C647.2 50.6097 647.221 50.7148 647.22 50.8213C647.224 50.9118 647.213 51.0023 647.187 51.0875C647.148 51.226 647.07 51.3432 646.965 51.4181C646.901 51.4662 646.829 51.4965 646.754 51.5069C646.731 51.5237 646.706 51.5361 646.68 51.5436Z" fill="#263238"/>
<path d="M660.928 51.5436H661.004C661.097 51.5264 661.185 51.4784 661.257 51.4049C661.329 51.3314 661.383 51.2353 661.412 51.1273C661.434 51.0443 661.442 50.9571 661.437 50.8702C661.435 50.7754 661.415 50.6823 661.379 50.5978C661.336 50.501 661.272 50.4198 661.194 50.3627C661.116 50.3056 661.027 50.2748 660.935 50.2734H658.798C658.672 50.2723 658.551 50.3266 658.457 50.426C658.363 50.5253 658.303 50.6628 658.288 50.8121C658.273 50.9521 658.294 51.0943 658.349 51.2192C658.408 51.3379 658.497 51.4304 658.604 51.4824C658.707 51.525 658.816 51.5407 658.925 51.5283H659.804H660.624H660.846C660.872 51.5238 660.899 51.5238 660.925 51.5283H660.846H660.624H659.804H658.757C658.698 51.5233 658.641 51.5078 658.586 51.4824C658.472 51.4249 658.377 51.3237 658.316 51.1947C658.255 51.0591 658.231 50.9038 658.247 50.7509C658.262 50.5919 658.324 50.4448 658.423 50.3377C658.524 50.225 658.657 50.1617 658.795 50.1602H660.948C661.046 50.1628 661.142 50.1972 661.225 50.2597C661.309 50.3221 661.377 50.4104 661.422 50.5152C661.461 50.6103 661.482 50.715 661.483 50.8213C661.486 50.9117 661.474 51.0019 661.45 51.0875C661.411 51.226 661.333 51.3432 661.228 51.4181C661.164 51.4662 661.092 51.4965 661.017 51.5069C660.989 51.5257 660.959 51.5381 660.928 51.5436Z" fill="#263238"/>
<path d="M673.414 48.7539H670.563C670.372 48.7543 670.184 48.8172 670.02 48.9358C669.857 49.0544 669.723 49.2243 669.633 49.4273C669.56 49.596 669.519 49.7823 669.514 49.9725C669.508 50.1627 669.539 50.3518 669.603 50.526L670.719 53.5867L673.572 53.5531C673.572 53.5531 674.179 49.6752 673.414 48.7539Z" fill="#FAFAFA"/>
<path d="M633.84 48.3205L648.544 47.9961L658.112 47.7849L661.266 45.5965C661.326 45.5548 661.379 45.4982 661.419 45.4303C661.46 45.3624 661.488 45.2849 661.502 45.2029C661.516 45.1209 661.515 45.0364 661.499 44.9548C661.483 44.8733 661.453 44.7968 661.411 44.7303L659.449 41.6298C659.348 41.4705 659.218 41.3411 659.068 41.2515C658.919 41.1618 658.755 41.1143 658.588 41.1126L647.887 41.0085C647.887 41.0085 643.856 40.7269 640.681 42.8449C638.312 44.5034 636.027 46.3319 633.84 48.3205Z" fill="#263238"/>
<path d="M640.58 41.3281C640.58 41.3281 641.316 41.7321 640.834 42.1055C640.353 42.4789 632.921 48.1229 632.921 48.1229L631.208 47.2046C634.228 45.1601 637.293 43.189 640.58 41.3281Z" fill="#455A64"/>
<path d="M633.149 48.2662H633.103L632.968 48.3029L632.445 48.4314C631.992 48.5416 631.332 48.6947 630.517 48.863C628.884 49.1997 626.616 49.5945 624.096 49.8546C623.467 49.922 622.85 49.974 622.256 50.023C621.663 50.072 621.087 50.1117 620.542 50.173C619.575 50.2548 618.617 50.4516 617.683 50.7606C617.054 50.9733 616.448 51.2764 615.879 51.6635C615.675 51.7951 615.53 51.9206 615.426 51.9971L615.308 52.0859L615.268 52.1165L615.306 52.0828L615.42 51.9879C615.522 51.9084 615.675 51.7768 615.869 51.6421C616.437 51.2482 617.042 50.9398 617.673 50.7239C618.609 50.4047 619.569 50.1996 620.539 50.1117C621.084 50.0505 621.658 50.0046 622.254 49.9556C622.85 49.9067 623.462 49.8546 624.091 49.7873C626.611 49.5272 628.876 49.1415 630.512 48.814C631.327 48.6518 631.987 48.5079 632.443 48.4039L632.965 48.2845L633.103 48.2539L633.149 48.2662Z" fill="#263238"/>
<path d="M674.553 56.173C674.553 56.1882 673.572 56.2034 672.364 56.2034C671.157 56.2034 670.176 56.1882 670.176 56.173C670.176 56.1578 671.154 56.1426 672.364 56.1426C673.575 56.1426 674.553 56.1547 674.553 56.173Z" fill="#263238"/>
<path d="M656.617 59.1749C656.617 59.1932 651.085 59.2053 644.262 59.2053C637.439 59.2053 631.907 59.2053 631.907 59.1749C631.907 59.1445 637.439 59.1445 644.262 59.1445C651.085 59.1445 656.617 59.1597 656.617 59.1749Z" fill="#263238"/>
<path d="M617.888 56.2687C617.888 56.2869 617.106 56.2991 616.14 56.2991C615.175 56.2991 614.395 56.2991 614.395 56.2687C614.395 56.2383 615.177 56.2383 616.14 56.2383C617.103 56.2383 617.888 56.2535 617.888 56.2687Z" fill="#263238"/>
<path d="M668.752 43.3691C668.752 43.3691 668.098 44.2537 668.355 44.8995C668.612 45.5453 671.28 47.8133 671.28 47.8133L673.216 48.2509L668.752 43.3691Z" fill="#455A64"/>
<path d="M650.348 41.7871L649.913 47.4341L657.702 47.1678L660.841 44.9763L658.81 41.7871H650.348Z" fill="#455A64"/>
<path d="M635.684 47.7248C635.684 47.7248 640.382 43.648 642.237 42.8277C643.636 42.148 645.131 41.7958 646.64 41.7901C648.248 41.735 649.226 41.7901 649.226 41.7901L647.985 47.532L635.684 47.7248Z" fill="#455A64"/>
<path d="M634.997 47.7434C634.997 47.5676 635.036 47.395 635.11 47.2433C635.184 47.0916 635.29 46.9663 635.418 46.8803L636.498 46.1518C636.806 45.9481 637.153 45.8427 637.504 45.8458C637.723 45.8456 637.939 45.888 638.146 45.9713C638.371 46.0641 638.567 46.2372 638.708 46.4675C638.849 46.6978 638.927 46.9742 638.934 47.2598C638.94 47.4521 638.914 47.6439 638.857 47.8237C638.8 48.0036 638.713 48.1677 638.602 48.3063C638.491 48.4449 638.357 48.5552 638.21 48.6304C638.063 48.7057 637.904 48.7444 637.744 48.7442H635.82C635.711 48.7442 635.603 48.7183 635.503 48.6678C635.402 48.6174 635.311 48.5435 635.235 48.4504C635.158 48.3573 635.098 48.2468 635.057 48.1255C635.016 48.0041 634.996 47.8742 634.997 47.7434Z" fill="#6DDFDF"/>
<path d="M634.998 47.7416C635.004 47.7831 635.008 47.825 635.01 47.8671C635.026 47.985 635.057 48.0988 635.105 48.2038C635.182 48.3689 635.297 48.5045 635.436 48.5955C635.522 48.6502 635.616 48.6855 635.714 48.6996C635.825 48.7075 635.936 48.7075 636.047 48.6996H637.693C637.85 48.7038 638.005 48.6726 638.152 48.6078C638.304 48.5406 638.443 48.4364 638.56 48.3017C638.68 48.1603 638.773 47.989 638.832 47.7998C638.894 47.6047 638.919 47.3957 638.906 47.1876C638.893 46.983 638.842 46.7844 638.758 46.6057C638.674 46.427 638.558 46.2725 638.419 46.1531C638.284 46.0441 638.133 45.9672 637.974 45.9266C637.82 45.8848 637.664 45.8622 637.507 45.8593C637.216 45.8592 636.927 45.9333 636.661 46.0766C636.536 46.1439 636.424 46.2296 636.312 46.3031L635.989 46.5173L635.436 46.8846C635.298 46.9755 635.184 47.1113 635.107 47.2764C635.058 47.3815 635.025 47.4967 635.01 47.6161C635.01 47.6957 635.01 47.7416 634.998 47.7416C634.994 47.6989 634.994 47.6558 634.998 47.6131C635.009 47.4921 635.039 47.3748 635.087 47.2672C635.162 47.0943 635.278 46.9517 635.421 46.8571L635.971 46.4806L636.289 46.2602C636.401 46.1868 636.514 46.1011 636.641 46.0337C636.914 45.8887 637.209 45.8147 637.507 45.8164C637.668 45.8165 637.828 45.8391 637.984 45.8838C638.149 45.9242 638.307 46.0032 638.447 46.1164C638.593 46.2401 638.715 46.4011 638.803 46.588C638.891 46.7748 638.944 46.9827 638.957 47.1968C638.971 47.4129 638.946 47.6302 638.883 47.8334C638.818 48.0299 638.72 48.2081 638.595 48.3568C638.473 48.4981 638.328 48.6075 638.17 48.6782C638.018 48.7446 637.857 48.7757 637.696 48.77H636.05C635.93 48.77 635.821 48.77 635.714 48.77C635.582 48.7494 635.457 48.691 635.349 48.5999C635.241 48.5088 635.153 48.3876 635.092 48.2466C635.045 48.1378 635.014 48.0196 635.003 47.8977C634.997 47.8459 634.996 47.7937 634.998 47.7416Z" fill="#263238"/>
<path d="M671.203 62.8066C671.203 62.8066 671.203 62.7791 671.203 62.727C671.203 62.675 671.203 62.5924 671.218 62.4914C671.233 62.3904 671.234 62.2618 671.239 62.1088C671.244 61.9557 671.239 61.7843 671.254 61.5884C671.269 61.3926 671.254 61.1722 671.254 60.9335C671.254 60.6947 671.239 60.4376 671.213 60.1591C671.168 59.5297 671.074 58.9067 670.933 58.2982C670.851 57.9455 670.748 57.5998 670.627 57.2637C670.498 56.8985 670.343 56.5473 670.163 56.2139C669.762 55.4788 669.252 54.8387 668.658 54.3254C668.004 53.7553 667.274 53.3237 666.5 53.0491C665.665 52.7639 664.801 52.6248 663.934 52.6359C663.066 52.6273 662.202 52.779 661.373 53.0859C660.98 53.2345 660.598 53.4229 660.232 53.649C659.884 53.8726 659.553 54.1327 659.243 54.4264C658.666 54.9685 658.152 55.6005 657.714 56.3057C657.522 56.6298 657.352 56.9716 657.205 57.328C657.072 57.6586 656.955 57.9979 656.853 58.3441C656.545 59.3898 656.358 60.4815 656.298 61.5884C656.282 61.9802 656.298 62.2863 656.298 62.5067C656.298 62.6077 656.298 62.6872 656.298 62.7423C656.298 62.7974 656.298 62.8219 656.298 62.8219V62.7423C656.298 62.6872 656.298 62.6077 656.282 62.5067C656.268 62.2008 656.268 61.8943 656.282 61.5884C656.336 60.4779 656.519 59.3818 656.825 58.3319C656.925 57.9834 657.042 57.642 657.174 57.3096C657.321 56.95 657.491 56.6051 657.684 56.2782C658.122 55.5693 658.636 54.9333 659.213 54.3867C659.523 54.0899 659.856 53.8276 660.206 53.6031C660.575 53.3727 660.959 53.1812 661.355 53.0308C662.19 52.7227 663.058 52.5709 663.931 52.5808C664.803 52.5684 665.671 52.7075 666.51 52.994C667.29 53.2724 668.025 53.7093 668.683 54.2857C668.987 54.5552 669.272 54.8552 669.534 55.1824C669.782 55.4899 670.003 55.8274 670.194 56.1894C670.375 56.5252 670.531 56.8796 670.66 57.2484C670.781 57.588 670.883 57.9366 670.966 58.2921C671.105 58.9028 671.196 59.5279 671.239 60.1591C671.264 60.4376 671.264 60.6978 671.274 60.9365C671.284 61.1753 671.274 61.3956 671.274 61.5915C671.274 61.7874 671.274 61.9619 671.256 62.1149C671.239 62.2679 671.236 62.3934 671.231 62.4944L671.211 62.7301C671.209 62.7558 671.207 62.7813 671.203 62.8066Z" fill="#263238"/>
<path d="M647.78 48.3223H647.699H647.444L646.522 48.3437C645.742 48.3437 644.664 48.3957 643.464 48.4325C642.264 48.4692 641.199 48.4998 640.407 48.5059C640.017 48.5059 639.703 48.5059 639.484 48.5059H639.229H639.484L640.407 48.4845C641.186 48.4692 642.264 48.4325 643.464 48.3957C644.664 48.359 645.729 48.3284 646.522 48.3223C646.911 48.3223 647.227 48.3223 647.444 48.3223H647.699H647.785H647.78Z" fill="white"/>
<path d="M646.504 50.0617C645.942 50.1022 645.379 50.1022 644.817 50.0617C645.379 50.0211 645.942 50.0211 646.504 50.0617Z" fill="white"/>
<path d="M646.814 43.8714C646.814 43.8867 645.772 44.4101 644.475 45.0406C643.178 45.6711 642.123 46.17 642.118 46.1547C642.113 46.1394 643.16 45.616 644.457 44.9855C645.754 44.355 646.809 43.8561 646.814 43.8714Z" fill="white"/>
<path d="M644.692 44.266C644.692 44.2813 643.701 44.8108 642.465 45.4443C641.229 46.0779 640.225 46.5829 640.22 46.5676C640.215 46.5523 641.211 46.0259 642.445 45.3892C643.678 44.7526 644.687 44.2507 644.692 44.266Z" fill="white"/>
<path d="M658.146 43.6546C658.146 43.6699 657.104 44.1933 655.81 44.8238C654.515 45.4543 653.455 45.9532 653.45 45.9379C653.445 45.9226 654.492 45.3992 655.789 44.7687C657.086 44.1382 658.146 43.6393 658.146 43.6546Z" fill="white"/>
<path d="M656.025 44.0472C656.025 44.0472 655.034 44.589 653.798 45.2256C652.562 45.8622 651.556 46.3611 651.551 46.3458C651.546 46.3305 652.542 45.8041 653.778 45.1705C655.013 44.5369 656.02 44.0319 656.025 44.0472Z" fill="white"/>
<path d="M658.353 48.3224C658.353 48.3377 656.268 48.3652 653.703 48.3836C651.137 48.4019 649.05 48.405 649.05 48.3836C649.05 48.3622 651.132 48.3407 653.7 48.3224C656.268 48.304 658.353 48.304 658.353 48.3224Z" fill="white"/>
<path d="M660.658 49.9623C660.658 49.9807 660.072 49.9991 659.353 50.0082C658.635 50.0174 658.049 50.0082 658.049 49.9929C658.049 49.9776 658.632 49.9562 659.353 49.947C660.074 49.9378 660.655 49.947 660.658 49.9623Z" fill="white"/>
<path d="M620.791 49.1079H620.732L620.569 49.1355C620.498 49.1355 620.411 49.1569 620.315 49.1783C620.218 49.1998 620.101 49.2151 619.976 49.2426C619.721 49.2977 619.428 49.3742 619.102 49.4814C618.749 49.5968 618.401 49.7347 618.06 49.8945C617.698 50.0659 617.362 50.2557 617.063 50.4393C616.765 50.623 616.503 50.8127 616.299 50.9811C616.189 51.0607 616.095 51.1433 616.011 51.2106L615.797 51.3882L615.665 51.5045L615.616 51.5412C615.616 51.5412 615.629 51.5228 615.657 51.4922L615.787 51.3698C615.843 51.3178 615.912 51.2535 615.996 51.1831C616.08 51.1127 616.172 51.027 616.279 50.9444C616.49 50.773 616.753 50.5832 617.043 50.3904C617.369 50.185 617.703 50.0001 618.044 49.8364C618.409 49.6681 618.765 49.5303 619.092 49.4263C619.418 49.3222 619.718 49.2487 619.971 49.2028C620.098 49.1753 620.225 49.16 620.315 49.1447C620.404 49.1294 620.501 49.1171 620.569 49.111L620.735 49.0957L620.791 49.1079Z" fill="white"/>
<path d="M637.979 46.3827C637.951 46.3447 637.92 46.3089 637.888 46.2756C637.796 46.1885 637.685 46.1344 637.569 46.1195C637.397 46.1039 637.224 46.1268 637.059 46.1869C636.852 46.2493 636.649 46.3322 636.453 46.4348C636.097 46.6212 635.765 46.8686 635.467 47.1693C635.238 47.402 635.115 47.5734 635.11 47.5642C635.134 47.5198 635.161 47.4787 635.192 47.4417C635.271 47.3327 635.356 47.2304 635.447 47.1357C635.739 46.8194 636.073 46.563 636.435 46.3766C636.634 46.2726 636.839 46.1897 637.049 46.1287C637.221 46.0699 637.401 46.0512 637.579 46.0736C637.7 46.0952 637.813 46.1578 637.905 46.2542C637.929 46.281 637.951 46.3107 637.969 46.343C637.978 46.3674 637.981 46.3807 637.979 46.3827Z" fill="white"/>
<path d="M668.971 43.3264C668.837 43.3653 668.699 43.3817 668.561 43.3754C668.399 43.3709 668.238 43.3473 668.08 43.305C667.872 43.247 667.667 43.1713 667.468 43.0785C667.246 42.9775 667.009 42.849 666.752 42.7173L666.352 42.5245C666.215 42.4572 666.069 42.4021 665.924 42.3378C665.282 42.0763 664.626 41.8617 663.962 41.6951C662.755 41.3908 661.528 41.2075 660.296 41.1472C660.059 41.1319 659.845 41.1319 659.656 41.1258H659.165H658.859H658.78H658.859L659.165 41.1074H659.646C659.835 41.1074 660.049 41.1074 660.286 41.1074C661.522 41.157 662.752 41.3352 663.962 41.64C664.628 41.8071 665.285 42.0238 665.929 42.2889C666.077 42.3531 666.222 42.4113 666.36 42.4786L666.76 42.6745C667.015 42.8092 667.252 42.9377 667.471 43.0418C667.667 43.138 667.87 43.2158 668.077 43.2744C668.233 43.3184 668.391 43.3461 668.551 43.357C668.652 43.3614 668.754 43.3563 668.854 43.3417H668.933L668.971 43.3264Z" fill="#263238"/>
<path d="M145.68 45.9453H145.021V49.7528H145.68V45.9453Z" fill="#FAFAFA"/>
<path d="M145.558 48.3438H136.248V60.5406H145.558V48.3438Z" fill="#FF725E"/>
<path d="M146.757 53.6055H93.3481V63.0201H146.757V53.6055Z" fill="#6D78DF"/>
<g opacity="0.5">
<path opacity="0.5" d="M146.761 53.6074H93.3516V63.0221H146.761V53.6074Z" fill="black"/>
</g>
<path d="M105.665 63.1062C105.738 59.691 103.492 56.852 100.649 56.7649C97.8058 56.6779 95.4424 59.3758 95.37 62.791C95.2975 66.2061 97.5434 69.0452 100.386 69.1322C103.229 69.2193 105.593 66.5213 105.665 63.1062Z" fill="#263238"/>
<path d="M95.3759 62.8535C95.3747 62.8596 95.3747 62.8658 95.3759 62.8719C95.3563 64.5124 95.88 66.0951 96.8318 67.2718C97.7837 68.4485 99.0856 69.1227 100.451 69.1463C101.817 69.1698 103.135 68.5407 104.114 67.3973C105.094 66.2539 105.655 64.6899 105.674 63.0494L95.3759 62.8535Z" fill="#263238"/>
<path d="M96.9066 62.8967C96.8971 63.7553 97.0997 64.5981 97.4888 65.3184C97.8778 66.0387 98.436 66.6044 99.0926 66.9438C99.7492 67.2832 100.475 67.3812 101.178 67.2254C101.881 67.0696 102.529 66.667 103.042 66.0684C103.554 65.4698 103.908 64.7022 104.057 63.8625C104.207 63.0227 104.146 62.1487 103.882 61.3507C103.618 60.5527 103.163 59.8666 102.574 59.3791C101.986 58.8916 101.29 58.6245 100.576 58.6118C100.1 58.6037 99.6286 58.7081 99.187 58.9191C98.7455 59.13 98.3429 59.4434 98.0022 59.8413C97.6615 60.2392 97.3894 60.7139 97.2014 61.2381C97.0134 61.7624 96.9132 62.326 96.9066 62.8967Z" fill="#FAFAFA"/>
<path d="M100.575 58.6177C100.1 58.6092 99.628 58.7133 99.1863 58.9241C98.7447 59.135 98.3419 59.4483 98.0011 59.8463C97.6604 60.2443 97.3883 60.7191 97.2004 61.2435C97.0125 61.768 96.9126 62.3317 96.9062 62.9026L104.137 63.0281C104.145 62.4575 104.058 61.8907 103.883 61.3602C103.708 60.8296 103.448 60.3457 103.117 59.9361C102.786 59.5265 102.392 59.1993 101.955 58.973C101.519 58.7468 101.05 58.626 100.575 58.6177Z" fill="#E0E0E0"/>
<path d="M98.321 62.9205C98.3145 63.4442 98.4375 63.9584 98.6743 64.3981C98.9111 64.8379 99.2512 65.1833 99.6515 65.3909C100.052 65.5984 100.494 65.6586 100.923 65.5639C101.352 65.4692 101.748 65.2239 102.06 64.859C102.373 64.494 102.589 64.0259 102.68 63.5137C102.771 63.0016 102.734 62.4684 102.573 61.9818C102.412 61.4951 102.134 61.0768 101.775 60.7797C101.416 60.4826 100.991 60.3201 100.556 60.3128C100.266 60.3075 99.9789 60.3708 99.71 60.4991C99.4411 60.6273 99.1958 60.818 98.9883 61.0602C98.7807 61.3024 98.615 61.5914 98.5005 61.9106C98.386 62.2298 98.325 62.573 98.321 62.9205Z" fill="#263238"/>
<path d="M145.053 63.1206C145.127 59.7055 142.882 56.865 140.039 56.7762C137.196 56.6873 134.832 59.3838 134.758 62.7989C134.684 66.214 136.929 69.0544 139.772 69.1433C142.614 69.2321 144.979 66.5356 145.053 63.1206Z" fill="#263238"/>
<path d="M134.757 62.8535C134.757 62.8535 134.757 62.8535 134.757 62.8719C134.738 64.5124 135.261 66.0951 136.213 67.2718C137.165 68.4485 138.467 69.1227 139.833 69.1463C141.198 69.1698 142.516 68.5407 143.496 67.3973C144.475 66.2539 145.036 64.6899 145.056 63.0494L134.757 62.8535Z" fill="#263238"/>
<path d="M136.291 62.8967C136.281 63.7555 136.484 64.5983 136.873 65.3187C137.262 66.0392 137.821 66.6048 138.477 66.9441C139.134 67.2835 139.86 67.3813 140.563 67.2253C141.266 67.0692 141.915 66.6663 142.427 66.0674C142.94 65.4685 143.293 64.7006 143.442 63.8606C143.591 63.0207 143.53 62.1465 143.265 61.3486C143.001 60.5506 142.546 59.8647 141.957 59.3776C141.368 58.8904 140.672 58.6239 139.957 58.6118C139.482 58.6037 139.011 58.7081 138.569 58.9191C138.128 59.1301 137.725 59.4436 137.385 59.8415C137.044 60.2394 136.772 60.7141 136.585 61.2383C136.397 61.7626 136.297 62.3261 136.291 62.8967Z" fill="#FAFAFA"/>
<path d="M139.957 58.6177C139.482 58.6092 139.01 58.7133 138.568 58.9242C138.127 59.1351 137.724 59.4485 137.384 59.8465C137.043 60.2445 136.771 60.7193 136.584 61.2438C136.396 61.7682 136.297 62.3319 136.291 62.9026L143.519 63.0281C143.526 62.4575 143.44 61.8907 143.265 61.3602C143.09 60.8296 142.83 60.3457 142.499 59.9361C142.168 59.5265 141.773 59.1993 141.337 58.973C140.901 58.7468 140.432 58.626 139.957 58.6177Z" fill="#E0E0E0"/>
<path d="M137.712 62.9205C137.705 63.4441 137.828 63.9584 138.065 64.3981C138.302 64.8378 138.642 65.1833 139.042 65.3908C139.442 65.5983 139.885 65.6585 140.314 65.5639C140.743 65.4692 141.138 65.2239 141.451 64.8589C141.764 64.494 141.979 64.0258 142.071 63.5137C142.162 63.0015 142.124 62.4684 141.963 61.9817C141.802 61.4951 141.525 61.0767 141.166 60.7796C140.806 60.4826 140.382 60.3201 139.946 60.3128C139.362 60.3029 138.799 60.5721 138.38 61.0611C137.961 61.55 137.72 62.2188 137.712 62.9205Z" fill="#263238"/>
<path d="M107.275 48.3116C107.275 48.3116 99.6898 48.985 96.8795 49.741C94.8998 50.2735 91.078 51.1948 91.1264 54.0841L91.427 56.1531C91.0034 56.4122 90.6473 56.8062 90.3975 57.292C90.1476 57.7778 90.0137 58.3367 90.0104 58.9077C90.0104 60.8911 89.6639 63.967 92.9711 64.0925C93.5163 64.1109 94.5533 64.0925 94.5533 64.0925C94.5533 64.0925 93.9163 55.6297 100.388 55.3818C106.972 55.1308 106.536 64.013 106.536 64.013H134.01C134.01 64.013 132.884 55.3573 139.969 55.3451C147.055 55.3328 145.977 64.0711 145.977 64.0711C145.977 64.0711 148.584 64.3404 149.799 61.7083C151.015 59.0761 150.706 57.2244 150.706 57.2244L150.666 55.5624C150.659 55.2893 150.567 55.0292 150.407 54.8349C150.247 54.6405 150.032 54.5264 149.804 54.5156C149.804 54.5156 150.278 50.3286 149.55 49.6032C148.821 48.8779 144.841 44.5041 144.841 44.5041L145.032 44.3603C145.104 44.3064 145.161 44.2293 145.197 44.1379C145.234 44.0465 145.248 43.9446 145.238 43.844C145.228 43.7433 145.195 43.6481 145.142 43.5694C145.088 43.4907 145.018 43.4317 144.938 43.3992L139.735 41.2568C139.629 41.2111 139.519 41.1833 139.406 41.1741C138.989 41.1343 137.801 41.0425 135.62 41.015C132.965 40.9813 122.42 41.015 122.42 41.015C122.42 41.015 118.791 41.3731 116.768 42.4443C114.633 43.54 107.275 48.3116 107.275 48.3116Z" fill="#6D78DF"/>
<g opacity="0.4">
<path opacity="0.4" d="M91.9363 58.6837C91.6611 58.6163 91.2381 58.6102 91.0292 58.8336C90.8891 59.0227 90.8104 59.2661 90.8075 59.5192C90.7646 59.8598 90.7715 60.2068 90.8279 60.5446C90.8569 60.7133 90.9147 60.873 90.9975 61.0137C91.0804 61.1543 91.1866 61.2728 91.3095 61.3618C91.4344 61.4465 91.5786 61.4812 91.7211 61.4608C91.8636 61.4404 91.997 61.3661 92.1019 61.2485C92.2587 60.9922 92.328 60.6735 92.2955 60.3579C92.3109 59.9367 92.2955 59.5148 92.2497 59.0969C92.2349 59.0046 92.2026 58.9177 92.1554 58.8428C92.1319 58.7975 92.0998 58.7594 92.0617 58.7317C92.0236 58.7041 91.9806 58.6876 91.9363 58.6837Z" fill="black"/>
</g>
<path d="M91.4266 56.1533C92.2318 56.1533 93.014 56.0982 93.8166 56.0339C93.8649 56.0432 93.9145 56.0377 93.9607 56.018C94.0069 55.9983 94.0482 55.965 94.0809 55.9212C94.1136 55.8773 94.1366 55.8243 94.1479 55.767C94.1591 55.7097 94.1582 55.6499 94.1452 55.5932C94.1452 55.0759 94.1274 54.4852 93.8013 54.1485C93.5873 53.9593 93.3305 53.8526 93.0649 53.8424C92.412 53.7592 91.7518 53.8394 91.126 54.0781L91.4266 56.1533Z" fill="#FAFAFA"/>
<path d="M108.156 63.7556C108.156 63.7556 108.156 63.7281 108.156 63.673C108.156 63.6179 108.156 63.5352 108.143 63.4281C108.143 63.2139 108.118 62.8986 108.1 62.5099C108.082 62.1212 108.059 61.5917 108.011 61.0347C107.961 60.3854 107.866 59.7423 107.725 59.1125C107.554 58.3506 107.297 57.6205 106.961 56.9425C106.579 56.1594 106.069 55.4767 105.463 54.9347C104.017 53.7722 102.313 53.158 100.573 53.1717C98.8311 53.1239 97.1246 53.7696 95.7196 55.0082C95.1114 55.5466 94.5789 56.1986 94.1425 56.9395C93.7619 57.5838 93.4519 58.2844 93.2202 59.0238C93.03 59.6342 92.8992 60.2689 92.8303 60.9153C92.7772 61.4043 92.761 61.898 92.7819 62.3905C92.7978 62.6988 92.8301 63.0055 92.8787 63.3087L92.9144 63.5475C92.9144 63.6026 92.9144 63.6301 92.9144 63.6301C92.9078 63.604 92.9027 63.5774 92.8991 63.5505L92.8584 63.3118C92.8052 63.0092 92.7703 62.7023 92.7539 62.3936C92.7278 61.9005 92.7406 61.4055 92.7921 60.9153C92.858 60.2648 92.9872 59.6259 93.1768 59.0115C93.4063 58.2661 93.7164 57.5601 94.0992 56.9119C94.5369 56.166 95.0711 55.5088 95.6814 54.9653C97.0944 53.7187 98.8105 53.0678 100.563 53.1136C102.314 53.1021 104.026 53.7216 105.481 54.8919C106.089 55.4408 106.601 56.1295 106.986 56.918C107.322 57.6016 107.579 58.3367 107.751 59.1034C107.888 59.7368 107.981 60.3827 108.029 61.0347C108.074 61.607 108.092 62.1059 108.11 62.5099C108.128 62.9139 108.136 63.2292 108.143 63.4281C108.143 63.5352 108.143 63.6148 108.143 63.673C108.149 63.7001 108.153 63.7277 108.156 63.7556Z" fill="#263238"/>
<path d="M108.436 63.9006C108.435 63.8772 108.435 63.8537 108.436 63.8302C108.436 63.7843 108.436 63.7139 108.436 63.6252C108.436 63.4446 108.436 63.1752 108.416 62.8263C108.401 62.1254 108.375 61.1001 108.345 59.7932C108.314 58.4863 108.278 56.9039 108.238 55.0859C108.238 54.6329 108.217 54.1677 108.204 53.681C108.197 53.4356 108.207 53.19 108.232 52.9464C108.245 52.824 108.26 52.6985 108.276 52.5761C108.291 52.4537 108.319 52.3282 108.339 52.2027C108.439 51.6923 108.582 51.1959 108.767 50.7213C108.959 50.222 109.195 49.7498 109.473 49.3134L114.23 45.714L115.517 44.7407C115.95 44.3929 116.405 44.0859 116.877 43.8225C117.356 43.554 117.847 43.318 118.348 43.1155C118.602 43.0084 118.857 42.9196 119.112 42.8278C119.367 42.736 119.634 42.6595 119.902 42.5952C120.908 42.3351 121.931 42.1795 122.959 42.13C123.948 42.0687 124.939 42.0687 125.928 42.13H125.958V42.1606C125.502 44.6091 125.074 46.9169 124.684 49.0318C124.449 49.4974 124.257 49.992 124.111 50.5071C123.964 50.9973 123.899 51.517 123.917 52.0374C123.95 52.5455 123.961 53.0413 123.971 53.5249C123.981 54.0085 123.989 54.4737 123.994 54.9267C124.017 56.7417 124.022 58.3271 124.027 59.631C124.032 60.9348 124.027 61.9602 124.027 62.6611C124.027 63.01 124.027 63.2732 124.027 63.4599V63.665C124.027 63.7109 124.027 63.7353 124.027 63.7353C124.026 63.7119 124.026 63.6884 124.027 63.665C124.027 63.619 124.027 63.5486 124.027 63.4599C124.027 63.2793 124.027 63.01 124.027 62.6611C124.027 61.9602 124.027 60.9348 124.012 59.631C123.996 58.3271 123.994 56.7447 123.968 54.9298C123.968 54.4727 123.961 54.0044 123.945 53.5249C123.945 53.0444 123.92 52.5485 123.887 52.0405C123.869 51.5152 123.935 50.9907 124.08 50.4948C124.228 49.9754 124.422 49.4767 124.659 49.0073C125.051 46.8924 125.477 44.5846 125.933 42.1361L125.953 42.1728C124.966 42.1115 123.977 42.1115 122.99 42.1728C121.961 42.2206 120.939 42.3752 119.932 42.635C119.665 42.6993 119.405 42.788 119.145 42.8676C118.885 42.9472 118.635 43.0482 118.381 43.1522C117.88 43.355 117.389 43.5911 116.911 43.8593C116.44 44.1232 115.987 44.4301 115.555 44.7775L114.281 45.7508L109.519 49.3471C109.243 49.7794 109.008 50.2475 108.818 50.7427C108.634 51.2133 108.49 51.7056 108.39 52.2119C108.174 53.2035 108.283 54.183 108.286 55.0859C108.322 56.9039 108.355 58.4863 108.383 59.7932C108.411 61.1001 108.429 62.1254 108.441 62.8263C108.441 63.1752 108.454 63.4385 108.457 63.6252V63.9006H108.436Z" fill="#263238"/>
<path d="M125.914 42.3354H125.957H126.09L126.599 42.3201L128.495 42.2742L134.885 42.1426H134.911L135.805 43.4587L138.353 47.2264L138.643 47.6549C138.736 47.7978 138.816 47.9516 138.883 48.114C139.005 48.4297 139.07 48.7729 139.074 49.1209C139.075 49.4455 139.023 49.7672 138.918 50.0667C138.816 50.3513 138.72 50.6237 138.625 50.8808L137.744 53.3294C137.639 53.6171 137.558 53.8405 137.489 53.9936C137.464 54.0701 137.441 54.1252 137.425 54.168L137.402 54.2262C137.402 54.2262 137.402 54.2047 137.42 54.165L137.481 53.9905C137.535 53.8344 137.614 53.6079 137.716 53.3202C137.92 52.7356 138.225 51.8939 138.585 50.8564C138.75 50.333 139.041 49.782 139.02 49.1118C139.019 48.7716 138.954 48.436 138.832 48.1293C138.767 47.9695 138.689 47.8187 138.597 47.6794L138.304 47.2509L135.756 43.4893L134.86 42.1701H134.88L128.49 42.2803L126.594 42.3078H125.906L125.914 42.3354Z" fill="#263238"/>
<path d="M122.68 52.5436H122.756C122.85 52.5264 122.937 52.4784 123.009 52.4049C123.081 52.3314 123.135 52.2353 123.164 52.1273C123.186 52.0443 123.195 51.9571 123.19 51.8702C123.188 51.7752 123.168 51.6819 123.131 51.5978C123.088 51.501 123.024 51.4198 122.946 51.3627C122.868 51.3056 122.779 51.2748 122.688 51.2734H120.55C120.425 51.2723 120.304 51.3266 120.21 51.426C120.116 51.5253 120.055 51.6628 120.04 51.8121C120.025 51.9521 120.047 52.0943 120.102 52.2192C120.16 52.3379 120.25 52.4304 120.356 52.4824C120.459 52.525 120.569 52.5407 120.677 52.5283H121.556H122.377H122.598C122.625 52.5238 122.651 52.5238 122.677 52.5283H122.598H122.377H121.556H120.509C120.451 52.5233 120.393 52.5078 120.339 52.4824C120.225 52.4249 120.13 52.3237 120.068 52.1947C120.007 52.0591 119.983 51.9038 120 51.7509C120.014 51.5919 120.077 51.4448 120.175 51.3377C120.277 51.225 120.409 51.1617 120.547 51.1602H122.685C122.783 51.1628 122.879 51.1972 122.963 51.2597C123.046 51.3221 123.114 51.4104 123.159 51.5152C123.2 51.6097 123.221 51.7148 123.22 51.8213C123.224 51.9118 123.213 52.0023 123.187 52.0875C123.148 52.226 123.07 52.3432 122.965 52.4181C122.901 52.4662 122.829 52.4965 122.754 52.5069C122.731 52.5237 122.706 52.5361 122.68 52.5436Z" fill="#263238"/>
<path d="M136.928 52.5436H137.004C137.097 52.5264 137.185 52.4784 137.257 52.4049C137.329 52.3314 137.383 52.2353 137.412 52.1273C137.434 52.0443 137.442 51.9571 137.437 51.8702C137.435 51.7754 137.415 51.6823 137.379 51.5978C137.336 51.501 137.272 51.4198 137.194 51.3627C137.116 51.3056 137.027 51.2748 136.935 51.2734H134.798C134.672 51.2723 134.551 51.3266 134.457 51.426C134.363 51.5253 134.303 51.6628 134.288 51.8121C134.273 51.9521 134.294 52.0943 134.349 52.2192C134.408 52.3379 134.497 52.4304 134.604 52.4824C134.707 52.525 134.816 52.5407 134.925 52.5283H135.804H136.624H136.846C136.872 52.5238 136.899 52.5238 136.925 52.5283H136.846H136.624H135.804H134.757C134.698 52.5233 134.641 52.5078 134.586 52.4824C134.472 52.4249 134.377 52.3237 134.316 52.1947C134.255 52.0591 134.231 51.9038 134.247 51.7509C134.262 51.5919 134.324 51.4448 134.423 51.3377C134.524 51.225 134.657 51.1617 134.795 51.1602H136.948C137.046 51.1628 137.142 51.1972 137.225 51.2597C137.309 51.3221 137.377 51.4104 137.422 51.5152C137.461 51.6103 137.482 51.715 137.483 51.8213C137.486 51.9117 137.474 52.0019 137.45 52.0875C137.411 52.226 137.333 52.3432 137.228 52.4181C137.164 52.4662 137.092 52.4965 137.017 52.5069C136.989 52.5257 136.959 52.5381 136.928 52.5436Z" fill="#263238"/>
<path d="M149.414 49.7539H146.563C146.372 49.7543 146.184 49.8172 146.02 49.9358C145.857 50.0544 145.723 50.2243 145.633 50.4273C145.56 50.596 145.519 50.7823 145.514 50.9725C145.508 51.1627 145.539 51.3518 145.603 51.526L146.719 54.5867L149.572 54.5531C149.572 54.5531 150.179 50.6752 149.414 49.7539Z" fill="#FAFAFA"/>
<path d="M109.84 49.3205L124.544 48.9961L134.112 48.7849L137.266 46.5965C137.326 46.5548 137.379 46.4982 137.419 46.4303C137.46 46.3624 137.488 46.2849 137.502 46.2029C137.516 46.1209 137.515 46.0364 137.499 45.9548C137.483 45.8733 137.453 45.7968 137.411 45.7303L135.449 42.6298C135.348 42.4705 135.218 42.3411 135.068 42.2515C134.919 42.1618 134.755 42.1143 134.588 42.1126L123.887 42.0085C123.887 42.0085 119.856 41.7269 116.681 43.8449C114.312 45.5034 112.027 47.3319 109.84 49.3205Z" fill="#263238"/>
<path d="M116.58 42.3281C116.58 42.3281 117.316 42.7321 116.834 43.1055C116.353 43.4789 108.921 49.1229 108.921 49.1229L107.208 48.2046C110.228 46.1601 113.293 44.189 116.58 42.3281Z" fill="#455A64"/>
<path d="M109.149 49.2662H109.103L108.968 49.3029L108.445 49.4314C107.992 49.5416 107.332 49.6947 106.517 49.863C104.884 50.1997 102.616 50.5945 100.096 50.8546C99.4667 50.922 98.8501 50.974 98.2565 51.023C97.6628 51.072 97.087 51.1117 96.5417 51.173C95.575 51.2548 94.6174 51.4516 93.683 51.7606C93.0536 51.9733 92.4479 52.2764 91.8791 52.6635C91.6752 52.7951 91.53 52.9206 91.4255 52.9971L91.3083 53.0859L91.2676 53.1165L91.3058 53.0828L91.4205 52.9879C91.5224 52.9084 91.6752 52.7768 91.8689 52.6421C92.4365 52.2482 93.0424 51.9398 93.6728 51.7239C94.6087 51.4047 95.569 51.1996 96.5392 51.1117C97.0844 51.0505 97.6577 51.0046 98.2539 50.9556C98.8501 50.9067 99.4616 50.8546 100.091 50.7873C102.611 50.5272 104.876 50.1415 106.512 49.814C107.327 49.6518 107.987 49.5079 108.443 49.4039L108.965 49.2845L109.103 49.2539L109.149 49.2662Z" fill="#263238"/>
<path d="M150.553 57.173C150.553 57.1882 149.572 57.2034 148.364 57.2034C147.157 57.2034 146.176 57.1882 146.176 57.173C146.176 57.1578 147.154 57.1426 148.364 57.1426C149.575 57.1426 150.553 57.1547 150.553 57.173Z" fill="#263238"/>
<path d="M132.617 60.1749C132.617 60.1932 127.085 60.2053 120.262 60.2053C113.439 60.2053 107.907 60.2053 107.907 60.1749C107.907 60.1445 113.439 60.1445 120.262 60.1445C127.085 60.1445 132.617 60.1597 132.617 60.1749Z" fill="#263238"/>
<path d="M93.8882 57.2687C93.8882 57.2869 93.106 57.2991 92.1403 57.2991C91.1747 57.2991 90.395 57.2991 90.395 57.2687C90.395 57.2383 91.1772 57.2383 92.1403 57.2383C93.1034 57.2383 93.8882 57.2535 93.8882 57.2687Z" fill="#263238"/>
<path d="M144.752 44.3691C144.752 44.3691 144.098 45.2537 144.355 45.8995C144.612 46.5453 147.28 48.8133 147.28 48.8133L149.216 49.2509L144.752 44.3691Z" fill="#455A64"/>
<path d="M126.348 42.7871L125.913 48.4341L133.702 48.1678L136.841 45.9763L134.81 42.7871H126.348Z" fill="#455A64"/>
<path d="M111.684 48.7248C111.684 48.7248 116.382 44.648 118.237 43.8277C119.636 43.148 121.131 42.7958 122.64 42.7901C124.248 42.735 125.226 42.7901 125.226 42.7901L123.985 48.532L111.684 48.7248Z" fill="#455A64"/>
<path d="M110.997 48.7434C110.997 48.5676 111.036 48.395 111.11 48.2433C111.184 48.0916 111.29 47.9663 111.418 47.8803L112.498 47.1518C112.806 46.9481 113.153 46.8427 113.504 46.8458C113.723 46.8456 113.939 46.888 114.146 46.9713C114.371 47.0641 114.567 47.2372 114.708 47.4675C114.849 47.6978 114.927 47.9742 114.934 48.2598C114.94 48.4521 114.914 48.6439 114.857 48.8237C114.8 49.0036 114.713 49.1677 114.602 49.3063C114.491 49.4449 114.357 49.5552 114.21 49.6304C114.063 49.7057 113.904 49.7444 113.744 49.7442H111.82C111.711 49.7442 111.603 49.7183 111.503 49.6678C111.402 49.6174 111.311 49.5435 111.235 49.4504C111.158 49.3573 111.098 49.2468 111.057 49.1255C111.016 49.0041 110.996 48.8742 110.997 48.7434Z" fill="#6D78DF"/>
<path d="M110.998 48.7416C111.004 48.7831 111.008 48.825 111.01 48.8671C111.026 48.985 111.057 49.0988 111.105 49.2038C111.182 49.3689 111.297 49.5045 111.436 49.5955C111.522 49.6502 111.616 49.6855 111.714 49.6996C111.825 49.7075 111.936 49.7075 112.047 49.6996H113.693C113.85 49.7038 114.005 49.6726 114.152 49.6078C114.304 49.5406 114.443 49.4364 114.56 49.3017C114.68 49.1603 114.773 48.989 114.832 48.7998C114.894 48.6047 114.919 48.3957 114.906 48.1876C114.893 47.983 114.842 47.7844 114.758 47.6057C114.674 47.427 114.558 47.2725 114.419 47.1531C114.284 47.0441 114.133 46.9672 113.974 46.9266C113.82 46.8848 113.664 46.8622 113.507 46.8593C113.216 46.8592 112.927 46.9333 112.661 47.0766C112.536 47.1439 112.424 47.2296 112.312 47.3031L111.989 47.5173L111.436 47.8846C111.298 47.9755 111.184 48.1113 111.107 48.2764C111.058 48.3815 111.025 48.4967 111.01 48.6161C111.01 48.6957 111.01 48.7416 110.998 48.7416C110.994 48.6989 110.994 48.6558 110.998 48.6131C111.009 48.4921 111.039 48.3748 111.087 48.2672C111.162 48.0943 111.278 47.9517 111.421 47.8571L111.971 47.4806L112.289 47.2602C112.401 47.1868 112.514 47.1011 112.641 47.0337C112.914 46.8887 113.209 46.8147 113.507 46.8164C113.668 46.8165 113.828 46.8391 113.984 46.8838C114.149 46.9242 114.307 47.0032 114.447 47.1164C114.593 47.2401 114.715 47.4011 114.803 47.588C114.891 47.7748 114.944 47.9827 114.957 48.1968C114.971 48.4129 114.946 48.6302 114.883 48.8334C114.818 49.0299 114.72 49.2081 114.595 49.3568C114.473 49.4981 114.328 49.6075 114.17 49.6782C114.018 49.7446 113.857 49.7757 113.696 49.77H112.05C111.93 49.77 111.821 49.77 111.714 49.77C111.582 49.7494 111.457 49.691 111.349 49.5999C111.241 49.5088 111.153 49.3876 111.092 49.2466C111.045 49.1378 111.014 49.0196 111.003 48.8977C110.997 48.8459 110.996 48.7937 110.998 48.7416Z" fill="#263238"/>
<path d="M147.203 63.8066C147.203 63.8066 147.203 63.7791 147.203 63.727C147.203 63.675 147.203 63.5924 147.218 63.4914C147.233 63.3904 147.234 63.2618 147.239 63.1088C147.244 62.9557 147.239 62.7843 147.254 62.5884C147.269 62.3926 147.254 62.1722 147.254 61.9335C147.254 61.6947 147.239 61.4376 147.213 61.1591C147.168 60.5297 147.074 59.9067 146.933 59.2982C146.851 58.9455 146.748 58.5998 146.627 58.2637C146.498 57.8985 146.343 57.5473 146.163 57.2139C145.762 56.4788 145.252 55.8387 144.658 55.3254C144.004 54.7553 143.274 54.3237 142.5 54.0491C141.665 53.7639 140.801 53.6248 139.934 53.6359C139.066 53.6273 138.202 53.779 137.373 54.0859C136.98 54.2345 136.598 54.4229 136.232 54.649C135.884 54.8726 135.553 55.1327 135.243 55.4264C134.666 55.9685 134.152 56.6005 133.714 57.3057C133.522 57.6298 133.352 57.9716 133.205 58.328C133.072 58.6586 132.955 58.9979 132.853 59.3441C132.545 60.3898 132.358 61.4815 132.298 62.5884C132.282 62.9802 132.298 63.2863 132.298 63.5067C132.298 63.6077 132.298 63.6872 132.298 63.7423C132.298 63.7974 132.298 63.8219 132.298 63.8219V63.7423C132.298 63.6872 132.298 63.6077 132.282 63.5067C132.268 63.2008 132.268 62.8943 132.282 62.5884C132.336 61.4779 132.519 60.3818 132.825 59.3319C132.925 58.9834 133.042 58.642 133.174 58.3096C133.321 57.95 133.491 57.6051 133.684 57.2782C134.122 56.5693 134.636 55.9333 135.213 55.3867C135.523 55.0899 135.856 54.8276 136.206 54.6031C136.575 54.3727 136.959 54.1812 137.355 54.0308C138.19 53.7227 139.058 53.5709 139.931 53.5808C140.803 53.5684 141.671 53.7075 142.51 53.994C143.29 54.2724 144.025 54.7093 144.683 55.2857C144.987 55.5552 145.272 55.8552 145.534 56.1824C145.782 56.4899 146.003 56.8274 146.194 57.1894C146.375 57.5252 146.531 57.8796 146.66 58.2484C146.781 58.588 146.883 58.9366 146.966 59.2921C147.105 59.9028 147.196 60.5279 147.239 61.1591C147.264 61.4376 147.264 61.6978 147.274 61.9365C147.284 62.1753 147.274 62.3956 147.274 62.5915C147.274 62.7874 147.274 62.9619 147.256 63.1149C147.239 63.2679 147.236 63.3934 147.231 63.4944L147.211 63.7301C147.209 63.7558 147.207 63.7813 147.203 63.8066Z" fill="#263238"/>
<path d="M123.78 49.3223H123.699H123.444L122.522 49.3437C121.742 49.3437 120.664 49.3957 119.464 49.4325C118.264 49.4692 117.199 49.4998 116.407 49.5059C116.017 49.5059 115.703 49.5059 115.484 49.5059H115.229H115.484L116.407 49.4845C117.186 49.4692 118.264 49.4325 119.464 49.3957C120.664 49.359 121.729 49.3284 122.522 49.3223C122.911 49.3223 123.227 49.3223 123.444 49.3223H123.699H123.785H123.78Z" fill="white"/>
<path d="M122.504 51.0617C121.942 51.1022 121.379 51.1022 120.817 51.0617C121.379 51.0211 121.942 51.0211 122.504 51.0617Z" fill="white"/>
<path d="M122.814 44.8714C122.814 44.8867 121.772 45.4101 120.475 46.0406C119.178 46.6711 118.123 47.17 118.118 47.1547C118.113 47.1394 119.16 46.616 120.457 45.9855C121.754 45.355 122.809 44.8561 122.814 44.8714Z" fill="white"/>
<path d="M120.692 45.266C120.692 45.2813 119.701 45.8108 118.465 46.4443C117.229 47.0779 116.225 47.5829 116.22 47.5676C116.215 47.5523 117.211 47.0259 118.445 46.3892C119.678 45.7526 120.687 45.2507 120.692 45.266Z" fill="white"/>
<path d="M134.146 44.6546C134.146 44.6699 133.104 45.1933 131.81 45.8238C130.515 46.4543 129.455 46.9532 129.45 46.9379C129.445 46.9226 130.492 46.3992 131.789 45.7687C133.086 45.1382 134.146 44.6393 134.146 44.6546Z" fill="white"/>
<path d="M132.025 45.0472C132.025 45.0472 131.034 45.589 129.798 46.2256C128.562 46.8622 127.556 47.3611 127.551 47.3458C127.546 47.3305 128.542 46.8041 129.778 46.1705C131.013 45.5369 132.02 45.0319 132.025 45.0472Z" fill="white"/>
<path d="M134.353 49.3224C134.353 49.3377 132.268 49.3652 129.703 49.3836C127.137 49.4019 125.05 49.405 125.05 49.3836C125.05 49.3622 127.132 49.3407 129.7 49.3224C132.268 49.304 134.353 49.304 134.353 49.3224Z" fill="white"/>
<path d="M136.658 50.9623C136.658 50.9807 136.072 50.9991 135.353 51.0082C134.635 51.0174 134.049 51.0082 134.049 50.9929C134.049 50.9776 134.632 50.9562 135.353 50.947C136.074 50.9378 136.655 50.947 136.658 50.9623Z" fill="white"/>
<path d="M96.791 50.1079H96.7324L96.5693 50.1355C96.498 50.1355 96.4113 50.1569 96.3145 50.1783C96.2177 50.1998 96.1005 50.2151 95.9757 50.2426C95.7209 50.2977 95.4279 50.3742 95.1017 50.4814C94.7485 50.5968 94.4007 50.7347 94.0596 50.8945C93.6978 51.0659 93.3615 51.2557 93.0634 51.4393C92.7653 51.623 92.5029 51.8127 92.2991 51.9811C92.1895 52.0607 92.0952 52.1433 92.0111 52.2106L91.7971 52.3882L91.6646 52.5045L91.6162 52.5412C91.6162 52.5412 91.629 52.5228 91.657 52.4922L91.7869 52.3698C91.843 52.3178 91.9118 52.2535 91.9959 52.1831C92.0799 52.1127 92.1717 52.027 92.2787 51.9444C92.4901 51.773 92.7526 51.5832 93.043 51.3904C93.3686 51.185 93.7028 51.0001 94.0444 50.8364C94.4087 50.6681 94.7654 50.5303 95.0915 50.4263C95.4177 50.3222 95.7183 50.2487 95.9706 50.2028C96.098 50.1753 96.2254 50.16 96.3145 50.1447C96.4037 50.1294 96.5005 50.1171 96.5693 50.111L96.7349 50.0957L96.791 50.1079Z" fill="white"/>
<path d="M113.979 47.3827C113.951 47.3447 113.92 47.3089 113.888 47.2756C113.796 47.1885 113.685 47.1344 113.569 47.1195C113.397 47.1039 113.224 47.1268 113.059 47.1869C112.852 47.2493 112.649 47.3322 112.453 47.4348C112.097 47.6212 111.765 47.8686 111.467 48.1693C111.238 48.402 111.115 48.5734 111.11 48.5642C111.134 48.5198 111.161 48.4787 111.192 48.4417C111.271 48.3327 111.356 48.2304 111.447 48.1357C111.739 47.8194 112.073 47.563 112.435 47.3766C112.634 47.2726 112.839 47.1897 113.049 47.1287C113.221 47.0699 113.401 47.0512 113.579 47.0736C113.7 47.0952 113.813 47.1578 113.905 47.2542C113.929 47.281 113.951 47.3107 113.969 47.343C113.978 47.3674 113.981 47.3807 113.979 47.3827Z" fill="white"/>
<path d="M144.971 44.3264C144.837 44.3653 144.699 44.3817 144.561 44.3754C144.399 44.3709 144.238 44.3473 144.08 44.305C143.872 44.247 143.667 44.1713 143.468 44.0785C143.246 43.9775 143.009 43.849 142.752 43.7173L142.352 43.5245C142.215 43.4572 142.069 43.4021 141.924 43.3378C141.282 43.0763 140.626 42.8617 139.962 42.6951C138.755 42.3908 137.528 42.2075 136.296 42.1472C136.059 42.1319 135.845 42.1319 135.656 42.1258H135.165H134.859H134.78H134.859L135.165 42.1074H135.646C135.835 42.1074 136.049 42.1074 136.286 42.1074C137.522 42.157 138.752 42.3352 139.962 42.64C140.628 42.8071 141.285 43.0238 141.929 43.2889C142.077 43.3531 142.222 43.4113 142.36 43.4786L142.76 43.6745C143.015 43.8092 143.252 43.9377 143.471 44.0418C143.667 44.138 143.87 44.2158 144.077 44.2744C144.233 44.3184 144.391 44.3461 144.551 44.357C144.652 44.3614 144.754 44.3563 144.854 44.3417H144.933L144.971 44.3264Z" fill="#263238"/>
<path d="M332.967 13.0645H333.572V16.9639H332.967V13.0645Z" fill="#FAFAFA"/>
<path d="M333.079 15.5215H341.612V28.0129H333.079V15.5215Z" fill="#FF725E"/>
<path d="M331.981 20.9102H380.931V30.5522H331.981V20.9102Z" fill="#A6DF6D"/>
<g opacity="0.5">
<path opacity="0.5" d="M331.978 20.9102H380.929V30.5522H331.978V20.9102Z" fill="black"/>
</g>
<path d="M369.641 30.6402C369.575 27.1426 371.633 24.235 374.239 24.1458C376.845 24.0567 379.011 26.8198 379.077 30.3174C379.143 33.815 377.085 36.7227 374.479 36.8118C371.874 36.9009 369.708 34.1378 369.641 30.6402Z" fill="#263238"/>
<path d="M379.072 30.3809C379.074 30.387 379.074 30.3935 379.072 30.3997C379.09 32.0798 378.61 33.7007 377.738 34.9058C376.866 36.1109 375.672 36.8015 374.421 36.8256C373.169 36.8497 371.962 36.2054 371.064 35.0344C370.166 33.8634 369.652 32.2616 369.634 30.5815L379.072 30.3809Z" fill="#263238"/>
<path d="M377.669 30.426C377.678 31.3054 377.492 32.1684 377.136 32.9062C376.779 33.6439 376.267 34.2232 375.666 34.5708C375.064 34.9184 374.399 35.0188 373.755 34.8592C373.11 34.6997 372.516 34.2873 372.046 33.6743C371.576 33.0612 371.252 32.2751 371.115 31.4151C370.978 30.5551 371.034 29.6599 371.276 28.8426C371.518 28.0253 371.935 27.3227 372.475 26.8234C373.014 26.3241 373.651 26.0506 374.306 26.0376C374.742 26.0293 375.174 26.1362 375.579 26.3523C375.984 26.5683 376.353 26.8893 376.665 27.2968C376.977 27.7043 377.227 28.1904 377.399 28.7273C377.571 29.2642 377.663 29.8415 377.669 30.426Z" fill="#FAFAFA"/>
<path d="M374.307 26.0435C374.742 26.0348 375.175 26.1414 375.58 26.3573C375.984 26.5732 376.354 26.8942 376.666 27.3018C376.978 27.7094 377.228 28.1956 377.4 28.7327C377.572 29.2698 377.664 29.8472 377.669 30.4319L371.042 30.5604C371.035 29.976 371.114 29.3956 371.275 28.8522C371.435 28.3089 371.674 27.8133 371.977 27.3938C372.28 26.9743 372.642 26.6391 373.042 26.4074C373.442 26.1757 373.871 26.052 374.307 26.0435Z" fill="#E0E0E0"/>
<path d="M376.374 30.4503C376.38 30.9866 376.267 31.5133 376.05 31.9636C375.833 32.414 375.521 32.7678 375.154 32.9803C374.788 33.1928 374.382 33.2545 373.989 33.1575C373.596 33.0606 373.233 32.8093 372.947 32.4356C372.66 32.0618 372.462 31.5824 372.379 31.0578C372.295 30.5333 372.329 29.9873 372.477 29.4889C372.625 28.9905 372.879 28.562 373.208 28.2578C373.537 27.9535 373.926 27.7871 374.326 27.7796C374.591 27.7742 374.854 27.8391 375.101 27.9704C375.347 28.1017 375.572 28.297 375.762 28.5451C375.952 28.7931 376.104 29.089 376.209 29.416C376.314 29.7429 376.37 30.0944 376.374 30.4503Z" fill="#263238"/>
<path d="M333.542 30.6548C333.474 27.1572 335.532 24.2481 338.137 24.1571C340.743 24.0662 342.91 26.8278 342.978 30.3253C343.046 33.8229 340.988 36.732 338.383 36.8229C335.777 36.9139 333.61 34.1523 333.542 30.6548Z" fill="#263238"/>
<path d="M342.979 30.3809C342.979 30.3809 342.979 30.3809 342.979 30.3997C342.996 32.0798 342.516 33.7007 341.644 34.9058C340.772 36.1109 339.578 36.8015 338.327 36.8256C337.075 36.8497 335.868 36.2054 334.97 35.0344C334.072 33.8634 333.558 32.2616 333.54 30.5815L342.979 30.3809Z" fill="#263238"/>
<path d="M341.572 30.426C341.581 31.3055 341.395 32.1687 341.039 32.9065C340.682 33.6443 340.17 34.2236 339.568 34.5712C338.967 34.9187 338.301 35.0189 337.657 34.8591C337.013 34.6992 336.418 34.2866 335.948 33.6732C335.479 33.0599 335.155 32.2734 335.018 31.4132C334.882 30.553 334.938 29.6577 335.18 28.8405C335.423 28.0232 335.84 27.3208 336.38 26.8219C336.919 26.323 337.557 26.05 338.212 26.0376C338.647 26.0293 339.08 26.1362 339.484 26.3523C339.889 26.5684 340.258 26.8894 340.57 27.297C340.882 27.7046 341.131 28.1907 341.303 28.7276C341.475 29.2645 341.567 29.8416 341.572 30.426Z" fill="#FAFAFA"/>
<path d="M338.212 26.0435C338.648 26.0348 339.08 26.1414 339.485 26.3574C339.89 26.5733 340.259 26.8943 340.571 27.302C340.883 27.7096 341.132 28.1959 341.304 28.733C341.476 29.2701 341.567 29.8474 341.573 30.4319L334.948 30.5604C334.941 29.976 335.02 29.3956 335.181 28.8522C335.341 28.3089 335.58 27.8133 335.883 27.3938C336.186 26.9743 336.548 26.6391 336.947 26.4074C337.347 26.1757 337.777 26.052 338.212 26.0435Z" fill="#E0E0E0"/>
<path d="M340.27 30.4502C340.276 30.9866 340.164 31.5132 339.947 31.9636C339.729 32.4139 339.418 32.7677 339.051 32.9803C338.684 33.1928 338.278 33.2545 337.885 33.1575C337.492 33.0605 337.13 32.8093 336.843 32.4355C336.556 32.0618 336.359 31.5823 336.275 31.0578C336.192 30.5333 336.226 29.9873 336.374 29.4888C336.521 28.9904 336.776 28.562 337.105 28.2577C337.434 27.9535 337.823 27.7871 338.222 27.7796C338.758 27.7695 339.274 28.0452 339.658 28.5459C340.042 29.0467 340.262 29.7317 340.27 30.4502Z" fill="#263238"/>
<path d="M368.167 15.4882C368.167 15.4882 375.119 16.1778 377.694 16.9521C379.509 17.4975 383.012 18.441 382.967 21.4001L382.692 23.5191C383.08 23.7845 383.406 24.188 383.635 24.6855C383.864 25.183 383.987 25.7554 383.99 26.3402C383.99 28.3715 384.308 31.5217 381.276 31.6503C380.777 31.6691 379.826 31.6503 379.826 31.6503C379.826 31.6503 380.41 22.9831 374.479 22.7292C368.445 22.4721 368.844 31.5688 368.844 31.5688H343.664C343.664 31.5688 344.696 22.7041 338.201 22.6916C331.707 22.679 332.695 31.6283 332.695 31.6283C332.695 31.6283 330.306 31.9042 329.192 29.2084C328.078 26.5126 328.361 24.6162 328.361 24.6162L328.398 22.9141C328.404 22.6344 328.489 22.368 328.635 22.169C328.782 21.97 328.979 21.8531 329.188 21.8421C329.188 21.8421 328.753 17.5539 329.421 16.811C330.089 16.0681 333.737 11.5888 333.737 11.5888L333.561 11.4414C333.496 11.3863 333.443 11.3073 333.41 11.2137C333.377 11.1201 333.364 11.0157 333.373 10.9127C333.382 10.8096 333.413 10.7121 333.461 10.6315C333.51 10.5508 333.575 10.4904 333.648 10.4572L338.416 8.26295C338.513 8.21624 338.615 8.18777 338.718 8.17832C339.101 8.13757 340.189 8.04354 342.188 8.01532C344.621 7.98084 354.286 8.01532 354.286 8.01532C354.286 8.01532 357.612 8.38207 359.466 9.47918C361.423 10.6014 368.167 15.4882 368.167 15.4882Z" fill="#A6DF6D"/>
<g opacity="0.4">
<path opacity="0.4" d="M382.224 26.1104C382.476 26.0415 382.864 26.0352 383.056 26.264C383.184 26.4577 383.256 26.707 383.259 26.9662C383.298 27.315 383.292 27.6704 383.24 28.0163C383.213 28.1891 383.161 28.3527 383.085 28.4967C383.009 28.6408 382.911 28.7621 382.799 28.8532C382.684 28.94 382.552 28.9755 382.421 28.9547C382.291 28.9338 382.169 28.8576 382.072 28.7372C381.929 28.4747 381.865 28.1484 381.895 27.8251C381.881 27.3938 381.895 26.9616 381.937 26.5336C381.951 26.4391 381.98 26.3501 382.023 26.2734C382.045 26.227 382.074 26.188 382.109 26.1597C382.144 26.1314 382.184 26.1145 382.224 26.1104Z" fill="black"/>
</g>
<path d="M382.691 23.5204C381.953 23.5204 381.236 23.464 380.501 23.3981C380.456 23.4076 380.411 23.402 380.369 23.3819C380.326 23.3617 380.289 23.3276 380.259 23.2827C380.229 23.2378 380.207 23.1835 380.197 23.1248C380.187 23.0661 380.188 23.0049 380.2 22.9468C380.2 22.417 380.216 21.812 380.515 21.4672C380.711 21.2734 380.946 21.1641 381.19 21.1538C381.788 21.0685 382.393 21.1506 382.967 21.3951L382.691 23.5204Z" fill="#FAFAFA"/>
<path d="M367.358 31.3056C367.358 31.3056 367.358 31.2774 367.358 31.221C367.358 31.1646 367.358 31.0799 367.37 30.9702C367.37 30.7508 367.394 30.428 367.41 30.0299C367.426 29.6318 367.447 29.0895 367.492 28.519C367.537 27.854 367.624 27.1955 367.753 26.5504C367.91 25.7702 368.146 25.0224 368.454 24.328C368.804 23.526 369.271 22.8267 369.827 22.2717C371.152 21.0811 372.713 20.4521 374.308 20.4662C375.905 20.4172 377.469 21.0784 378.757 22.3469C379.314 22.8983 379.802 23.5661 380.202 24.3249C380.551 24.9848 380.835 25.7023 381.047 26.4595C381.222 27.0847 381.342 27.7347 381.405 28.3967C381.453 28.8975 381.468 29.4032 381.449 29.9076C381.435 30.2233 381.405 30.5374 381.36 30.848L381.328 31.0925C381.328 31.1489 381.328 31.1771 381.328 31.1771C381.334 31.1504 381.338 31.1232 381.342 31.0956L381.379 30.8511C381.428 30.5412 381.46 30.2269 381.475 29.9107C381.499 29.4057 381.487 28.8988 381.44 28.3967C381.379 27.7306 381.261 27.0762 381.087 26.447C380.877 25.6835 380.593 24.9606 380.242 24.2967C379.841 23.5327 379.351 22.8597 378.792 22.303C377.497 21.0264 375.924 20.3597 374.317 20.4066C372.713 20.3949 371.143 21.0293 369.81 22.2278C369.253 22.79 368.783 23.4953 368.43 24.3029C368.122 25.003 367.887 25.7559 367.73 26.541C367.604 27.1897 367.519 27.8513 367.475 28.519C367.433 29.1052 367.417 29.6161 367.401 30.0299C367.384 30.4436 367.377 30.7665 367.37 30.9702C367.37 31.0799 367.37 31.1615 367.37 31.221C367.365 31.2488 367.361 31.2771 367.358 31.3056Z" fill="#263238"/>
<path d="M367.101 31.4529C367.102 31.4289 367.102 31.4048 367.101 31.3808C367.101 31.3338 367.101 31.2617 367.101 31.1708C367.101 30.9859 367.101 30.71 367.12 30.3527C367.134 29.6349 367.157 28.5848 367.185 27.2463C367.213 25.9078 367.246 24.2872 367.283 22.4253C367.283 21.9613 367.302 21.4849 367.314 20.9865C367.32 20.7352 367.312 20.4836 367.288 20.2342C367.276 20.1088 367.262 19.9803 367.248 19.8549C367.234 19.7295 367.209 19.601 367.19 19.4725C367.099 18.9498 366.968 18.4413 366.798 17.9553C366.623 17.444 366.406 16.9604 366.151 16.5134L361.791 12.8271L360.612 11.8303C360.215 11.474 359.798 11.1596 359.365 10.8899C358.926 10.6149 358.476 10.3731 358.017 10.1658C357.784 10.0561 357.55 9.9652 357.317 9.87116C357.083 9.77712 356.838 9.69876 356.593 9.63293C355.671 9.36657 354.733 9.20716 353.791 9.15647C352.885 9.09368 351.976 9.09368 351.07 9.15647H351.042V9.18782C351.46 11.6955 351.853 14.059 352.21 16.225C352.425 16.7018 352.601 17.2084 352.735 17.7359C352.869 18.238 352.93 18.7703 352.913 19.3032C352.882 19.8235 352.873 20.3313 352.864 20.8266C352.854 21.3219 352.847 21.7983 352.843 22.2623C352.822 24.1211 352.817 25.7448 352.812 27.0802C352.808 28.4155 352.812 29.4656 352.812 30.1834C352.812 30.5408 352.812 30.8103 352.812 31.0016V31.2116C352.812 31.2586 352.812 31.2837 352.812 31.2837C352.813 31.2596 352.813 31.2356 352.812 31.2116C352.812 31.1646 352.812 31.0925 352.812 31.0016C352.812 30.8166 352.812 30.5408 352.812 30.1834C352.812 29.4656 352.812 28.4155 352.826 27.0802C352.84 25.7448 352.843 24.1242 352.866 22.2654C352.866 21.7973 352.873 21.3177 352.887 20.8266C352.887 20.3345 352.91 19.8267 352.941 19.3063C352.957 18.7684 352.896 18.2312 352.763 17.7234C352.628 17.1914 352.45 16.6806 352.233 16.1999C351.874 14.0339 351.484 11.6704 351.066 9.16274L351.047 9.20036C351.952 9.13758 352.858 9.13758 353.763 9.20036C354.705 9.24931 355.643 9.40767 356.565 9.67368C356.81 9.7395 357.048 9.83041 357.287 9.91191C357.525 9.99341 357.754 10.0968 357.987 10.2034C358.446 10.4111 358.896 10.6529 359.334 10.9275C359.766 11.1978 360.181 11.5122 360.577 11.8679L361.744 12.8647L366.109 16.5479C366.362 16.9907 366.577 17.4701 366.751 17.9773C366.92 18.4592 367.052 18.9634 367.143 19.4819C367.342 20.4975 367.241 21.5006 367.239 22.4253C367.206 24.2872 367.176 25.9078 367.15 27.2463C367.125 28.5848 367.108 29.6349 367.097 30.3527C367.097 30.71 367.085 30.9796 367.083 31.1708V31.4529H367.101Z" fill="#263238"/>
<path d="M351.083 9.36935H351.044H350.922L350.455 9.35368L348.718 9.30666L342.861 9.17188H342.838L342.018 10.5198L339.683 14.3785L339.417 14.8173C339.332 14.9637 339.258 15.1212 339.197 15.2875C339.085 15.6109 339.026 15.9623 339.022 16.3188C339.021 16.6512 339.069 16.9806 339.164 17.2874C339.258 17.5789 339.347 17.8579 339.433 18.1212L340.241 20.6289C340.337 20.9235 340.411 21.1523 340.475 21.3091C340.498 21.3874 340.519 21.4439 340.533 21.4877L340.554 21.5473C340.554 21.5473 340.554 21.5254 340.538 21.4846L340.482 21.3059C340.432 21.1461 340.36 20.9141 340.267 20.6195C340.08 20.0207 339.8 19.1587 339.47 18.0961C339.319 17.5601 339.052 16.9959 339.071 16.3094C339.073 15.961 339.132 15.6173 339.244 15.3032C339.303 15.1396 339.375 14.9851 339.459 14.8424L339.727 14.4035L342.062 10.5511L342.884 9.20009H342.866L348.722 9.31293L350.46 9.34114H351.09L351.083 9.36935Z" fill="#263238"/>
<path d="M354.048 19.8231H353.978C353.892 19.8055 353.812 19.7563 353.746 19.6811C353.68 19.6058 353.631 19.5074 353.604 19.3968C353.584 19.3118 353.576 19.2224 353.581 19.1335C353.583 19.0362 353.601 18.9406 353.635 18.8545C353.674 18.7553 353.733 18.6722 353.804 18.6137C353.875 18.5552 353.957 18.5237 354.041 18.5222H356C356.115 18.5211 356.226 18.5767 356.312 18.6785C356.398 18.7803 356.454 18.921 356.467 19.0739C356.481 19.2173 356.462 19.363 356.411 19.4908C356.357 19.6125 356.275 19.7071 356.178 19.7604C356.083 19.8041 355.983 19.8201 355.884 19.8074H355.078H354.326H354.123C354.099 19.8028 354.074 19.8028 354.05 19.8074H354.123H354.326H355.078H356.038C356.091 19.8023 356.144 19.7865 356.194 19.7604C356.299 19.7015 356.386 19.5979 356.442 19.4657C356.498 19.3269 356.52 19.1679 356.505 19.0112C356.491 18.8484 356.434 18.6978 356.344 18.5881C356.251 18.4727 356.129 18.4079 356.003 18.4062H354.043C353.953 18.409 353.866 18.4442 353.789 18.5082C353.713 18.5721 353.65 18.6625 353.609 18.7699C353.572 18.8666 353.552 18.9743 353.553 19.0833C353.55 19.176 353.56 19.2687 353.583 19.356C353.619 19.4978 353.691 19.6179 353.787 19.6946C353.845 19.7438 353.911 19.7748 353.98 19.7855C354.001 19.8027 354.024 19.8154 354.048 19.8231Z" fill="#263238"/>
<path d="M340.988 19.8231H340.918C340.833 19.8055 340.753 19.7563 340.687 19.6811C340.621 19.6058 340.572 19.5074 340.545 19.3968C340.525 19.3118 340.517 19.2224 340.521 19.1335C340.524 19.0363 340.542 18.941 340.575 18.8545C340.614 18.7553 340.673 18.6722 340.744 18.6137C340.816 18.5552 340.898 18.5237 340.981 18.5222H342.941C343.055 18.5211 343.166 18.5767 343.253 18.6785C343.339 18.7803 343.394 18.921 343.408 19.0739C343.422 19.2173 343.402 19.363 343.352 19.4908C343.298 19.6125 343.216 19.7071 343.118 19.7604C343.024 19.8041 342.923 19.8201 342.824 19.8074H342.018H341.266H341.063C341.039 19.8028 341.015 19.8028 340.991 19.8074H341.063H341.266H342.018H342.978C343.032 19.8023 343.084 19.7865 343.135 19.7604C343.239 19.7015 343.326 19.5979 343.382 19.4657C343.438 19.3269 343.46 19.1679 343.445 19.0112C343.432 18.8484 343.375 18.6978 343.284 18.5881C343.191 18.4727 343.07 18.4079 342.943 18.4062H340.97C340.88 18.409 340.792 18.4442 340.716 18.5082C340.639 18.5721 340.577 18.6625 340.535 18.7699C340.499 18.8672 340.48 18.9745 340.479 19.0833C340.477 19.1759 340.487 19.2684 340.51 19.356C340.545 19.4978 340.617 19.6179 340.713 19.6946C340.772 19.7438 340.838 19.7748 340.907 19.7855C340.932 19.8047 340.96 19.8175 340.988 19.8231Z" fill="#263238"/>
<path d="M329.545 16.9648H332.158C332.333 16.9653 332.505 17.0297 332.655 17.1511C332.805 17.2726 332.928 17.4466 333.01 17.6545C333.077 17.8272 333.115 18.0181 333.12 18.2128C333.124 18.4076 333.097 18.6014 333.038 18.7798L332.015 21.9144L329.4 21.8799C329.4 21.8799 328.844 17.9084 329.545 16.9648Z" fill="#FAFAFA"/>
<path d="M365.816 16.5228L352.34 16.1905L343.571 15.9742L340.68 13.733C340.625 13.6903 340.577 13.6323 340.54 13.5628C340.503 13.4933 340.477 13.4139 340.464 13.3299C340.452 13.2459 340.452 13.1593 340.467 13.0759C340.481 12.9924 340.509 12.914 340.547 12.8459L342.345 9.67053C342.438 9.50738 342.558 9.37484 342.694 9.28303C342.831 9.19122 342.982 9.14257 343.135 9.14078L352.942 9.03421C352.942 9.03421 356.637 8.74582 359.546 10.915C361.718 12.6135 363.812 14.4862 365.816 16.5228Z" fill="#263238"/>
<path d="M359.639 9.36133C359.639 9.36133 358.964 9.7751 359.405 10.1575C359.847 10.5399 366.658 16.3202 366.658 16.3202L368.228 15.3798C365.46 13.2859 362.651 11.2672 359.639 9.36133Z" fill="#455A64"/>
<path d="M366.45 16.4657H366.492L366.616 16.5033L367.094 16.6349C367.51 16.7478 368.115 16.9045 368.862 17.0769C370.359 17.4217 372.437 17.8261 374.747 18.0925C375.324 18.1615 375.889 18.2148 376.433 18.2649C376.977 18.3151 377.505 18.3558 378.005 18.4185C378.891 18.5023 379.768 18.7039 380.625 19.0204C381.201 19.2382 381.757 19.5487 382.278 19.9451C382.465 20.0799 382.598 20.2084 382.694 20.2868L382.801 20.3777L382.838 20.409L382.803 20.3745L382.698 20.2774C382.605 20.1959 382.465 20.0611 382.287 19.9231C381.767 19.5198 381.212 19.2039 380.634 18.9828C379.776 18.6559 378.896 18.4458 378.007 18.3558C377.507 18.2931 376.982 18.2461 376.435 18.196C375.889 18.1458 375.328 18.0925 374.752 18.0236C372.442 17.7571 370.366 17.3622 368.867 17.0268C368.12 16.8606 367.515 16.7133 367.097 16.6067L366.618 16.4845L366.492 16.4531L366.45 16.4657Z" fill="#263238"/>
<path d="M328.501 24.5624C328.501 24.5779 329.4 24.5935 330.507 24.5935C331.614 24.5935 332.513 24.5779 332.513 24.5624C332.513 24.5468 331.616 24.5312 330.507 24.5312C329.398 24.5312 328.501 24.5437 328.501 24.5624Z" fill="#263238"/>
<path d="M344.941 27.6366C344.941 27.6553 350.01 27.6677 356.264 27.6677C362.518 27.6677 367.587 27.6677 367.587 27.6366C367.587 27.6055 362.518 27.6055 356.264 27.6055C350.01 27.6055 344.941 27.621 344.941 27.6366Z" fill="#263238"/>
<path d="M380.436 24.662C380.436 24.6807 381.153 24.6931 382.038 24.6931C382.923 24.6931 383.637 24.6931 383.637 24.662C383.637 24.6309 382.92 24.6309 382.038 24.6309C381.155 24.6309 380.436 24.6464 380.436 24.662Z" fill="#263238"/>
<path d="M333.819 11.4512C333.819 11.4512 334.419 12.3571 334.183 13.0185C333.947 13.6799 331.502 16.0026 331.502 16.0026L329.727 16.4509L333.819 11.4512Z" fill="#455A64"/>
<path d="M350.685 9.83008L351.084 15.6134L343.945 15.3407L341.068 13.0963L342.929 9.83008H350.685Z" fill="#455A64"/>
<path d="M364.126 15.9117C364.126 15.9117 359.82 11.7364 358.12 10.8963C356.838 10.2002 355.468 9.8395 354.085 9.83367C352.611 9.77725 351.714 9.83367 351.714 9.83367L352.852 15.7142L364.126 15.9117Z" fill="#455A64"/>
<path d="M364.755 15.9318C364.755 15.7518 364.72 15.575 364.652 15.4196C364.584 15.2642 364.487 15.1359 364.37 15.0478L363.38 14.3018C363.097 14.0931 362.78 13.9852 362.457 13.9883C362.257 13.9882 362.059 14.0316 361.869 14.1169C361.663 14.2119 361.483 14.3893 361.354 14.6251C361.225 14.861 361.153 15.1441 361.147 15.4365C361.142 15.6335 361.166 15.8299 361.218 16.0141C361.27 16.1982 361.35 16.3664 361.452 16.5083C361.553 16.6503 361.676 16.7632 361.811 16.8402C361.946 16.9173 362.091 16.957 362.238 16.9568H364.001C364.101 16.9568 364.2 16.9302 364.292 16.8786C364.384 16.8269 364.468 16.7512 364.538 16.6559C364.608 16.5605 364.663 16.4474 364.701 16.3231C364.738 16.1988 364.757 16.0658 364.755 15.9318Z" fill="#A6DF6D"/>
<path d="M364.755 15.9287C364.749 15.9712 364.745 16.0141 364.743 16.0573C364.729 16.178 364.7 16.2946 364.657 16.4021C364.586 16.5711 364.481 16.7101 364.353 16.8033C364.274 16.8593 364.188 16.8954 364.099 16.9099C363.997 16.9179 363.895 16.9179 363.793 16.9099H362.284C362.141 16.9141 361.999 16.8822 361.864 16.8158C361.725 16.747 361.598 16.6403 361.491 16.5024C361.38 16.3575 361.295 16.1821 361.241 15.9883C361.184 15.7885 361.161 15.5745 361.173 15.3614C361.185 15.1518 361.232 14.9484 361.309 14.7654C361.386 14.5823 361.492 14.4242 361.619 14.3019C361.743 14.1902 361.882 14.1115 362.028 14.0699C362.168 14.0271 362.311 14.004 362.455 14.001C362.722 14.0009 362.986 14.0767 363.23 14.2235C363.345 14.2925 363.447 14.3802 363.55 14.4555L363.847 14.6749L364.353 15.051C364.48 15.1442 364.584 15.2832 364.655 15.4523C364.7 15.56 364.73 15.6779 364.743 15.8002C364.743 15.8817 364.743 15.9287 364.755 15.9287C364.759 15.885 364.759 15.8408 364.755 15.7971C364.745 15.6732 364.717 15.553 364.673 15.4429C364.604 15.2658 364.498 15.1198 364.367 15.0228L363.863 14.6373L363.571 14.4116C363.468 14.3364 363.366 14.2486 363.249 14.1796C362.999 14.0311 362.728 13.9553 362.455 13.9571C362.308 13.9571 362.161 13.9803 362.018 14.026C361.866 14.0674 361.722 14.1483 361.593 14.2643C361.459 14.391 361.348 14.5559 361.267 14.7472C361.187 14.9385 361.138 15.1515 361.126 15.3708C361.113 15.5921 361.136 15.8146 361.194 16.0228C361.253 16.224 361.343 16.4065 361.458 16.5588C361.569 16.7035 361.702 16.8156 361.848 16.8879C361.987 16.9559 362.134 16.9878 362.282 16.982H363.791C363.9 16.982 364.001 16.982 364.099 16.982C364.219 16.9608 364.334 16.9011 364.433 16.8077C364.532 16.7144 364.613 16.5903 364.669 16.4459C364.712 16.3345 364.74 16.2134 364.75 16.0886C364.755 16.0356 364.757 15.9821 364.755 15.9287Z" fill="#263238"/>
<path d="M331.573 31.3563C331.573 31.3563 331.573 31.3281 331.573 31.2748C331.573 31.2215 331.573 31.1369 331.559 31.0335C331.545 30.93 331.545 30.7984 331.54 30.6416C331.535 30.4849 331.54 30.3094 331.526 30.1088C331.512 29.9081 331.526 29.6824 331.526 29.438C331.526 29.1935 331.54 28.9301 331.563 28.6449C331.605 28.0003 331.691 27.3623 331.82 26.739C331.896 26.3778 331.989 26.0238 332.101 25.6795C332.219 25.3055 332.361 24.9458 332.526 24.6044C332.893 23.8516 333.361 23.196 333.906 22.6703C334.505 22.0864 335.174 21.6443 335.884 21.3632C336.648 21.0711 337.44 20.9286 338.235 20.94C339.03 20.9311 339.822 21.0865 340.582 21.4008C340.942 21.5531 341.292 21.746 341.628 21.9776C341.947 22.2065 342.25 22.473 342.534 22.7738C343.063 23.3289 343.534 23.9762 343.935 24.6984C344.111 25.0303 344.268 25.3804 344.402 25.7454C344.524 26.084 344.632 26.4315 344.725 26.7861C345.007 27.857 345.178 28.9751 345.234 30.1088C345.248 30.51 345.234 30.8234 345.234 31.0491C345.234 31.1526 345.234 31.2341 345.234 31.2905C345.234 31.3469 345.234 31.372 345.234 31.372V31.2905C345.234 31.2341 345.234 31.1526 345.248 31.0491C345.261 30.7359 345.261 30.422 345.248 30.1088C345.198 28.9714 345.031 27.8488 344.75 26.7735C344.659 26.4166 344.552 26.067 344.43 25.7266C344.296 25.3583 344.14 25.0051 343.963 24.6702C343.562 23.9443 343.091 23.2929 342.562 22.733C342.277 22.4291 341.973 22.1605 341.652 21.9306C341.314 21.6946 340.961 21.4984 340.598 21.3444C339.834 21.0288 339.037 20.8734 338.237 20.8836C337.439 20.8708 336.643 21.0133 335.874 21.3068C335.159 21.5919 334.485 22.0393 333.882 22.6296C333.604 22.9057 333.343 23.2129 333.102 23.548C332.875 23.8629 332.672 24.2085 332.498 24.5793C332.332 24.9232 332.189 25.2862 332.07 25.6639C331.96 26.0117 331.866 26.3687 331.79 26.7328C331.662 27.3583 331.579 27.9984 331.54 28.6449C331.517 28.9301 331.517 29.1966 331.507 29.4411C331.498 29.6856 331.507 29.9113 331.507 30.1119C331.507 30.3125 331.507 30.4912 331.524 30.6479C331.54 30.8046 331.542 30.9332 331.547 31.0366L331.566 31.278C331.567 31.3043 331.569 31.3305 331.573 31.3563Z" fill="#263238"/>
<path d="M353.039 16.5234H353.113H353.347L354.192 16.5454C354.907 16.5454 355.895 16.5987 356.994 16.6363C358.094 16.6739 359.07 16.7052 359.797 16.7115C360.154 16.7115 360.441 16.7115 360.642 16.7115H360.875H360.642L359.797 16.6896C359.082 16.6739 358.094 16.6363 356.994 16.5987C355.895 16.5611 354.918 16.5297 354.192 16.5234C353.835 16.5234 353.545 16.5234 353.347 16.5234H353.113H353.034H353.039Z" fill="white"/>
<path d="M354.21 18.3046C354.725 18.3461 355.242 18.3461 355.756 18.3046C355.242 18.2631 354.725 18.2631 354.21 18.3046Z" fill="white"/>
<path d="M353.924 11.9652C353.924 11.9809 354.879 12.5169 356.068 13.1626C357.257 13.8083 358.223 14.3193 358.228 14.3036C358.233 14.2879 357.273 13.7519 356.084 13.1062C354.896 12.4605 353.929 11.9495 353.924 11.9652Z" fill="white"/>
<path d="M355.87 12.3695C355.87 12.3852 356.778 12.9275 357.911 13.5763C359.044 14.2252 359.964 14.7424 359.968 14.7267C359.973 14.711 359.06 14.1719 357.93 13.5199C356.799 12.8679 355.875 12.3538 355.87 12.3695Z" fill="white"/>
<path d="M343.538 11.7425C343.538 11.7582 344.493 12.2942 345.679 12.94C346.866 13.5857 347.837 14.0966 347.842 14.081C347.846 14.0653 346.887 13.5293 345.698 12.8835C344.509 12.2378 343.538 11.7269 343.538 11.7425Z" fill="white"/>
<path d="M345.484 12.1468C345.484 12.1468 346.392 12.7017 347.525 13.3537C348.657 14.0057 349.58 14.5166 349.584 14.5009C349.589 14.4853 348.676 13.9461 347.543 13.2972C346.411 12.6484 345.489 12.1312 345.484 12.1468Z" fill="white"/>
<path d="M343.35 16.5219C343.35 16.5376 345.26 16.5658 347.612 16.5846C349.963 16.6034 351.876 16.6066 351.876 16.5846C351.876 16.5627 349.968 16.5407 347.614 16.5219C345.26 16.5031 343.35 16.5031 343.35 16.5219Z" fill="white"/>
<path d="M341.237 18.205C341.237 18.2238 341.774 18.2426 342.432 18.252C343.091 18.2614 343.628 18.252 343.628 18.2363C343.628 18.2207 343.093 18.1987 342.432 18.1893C341.771 18.1799 341.239 18.1893 341.237 18.205Z" fill="white"/>
<path d="M377.775 17.327H377.829L377.978 17.3552C378.043 17.3552 378.123 17.3772 378.211 17.3991C378.3 17.421 378.408 17.4367 378.522 17.4649C378.756 17.5213 379.024 17.5997 379.323 17.7094C379.647 17.8277 379.966 17.9689 380.278 18.1326C380.61 18.3081 380.918 18.5025 381.191 18.6906C381.464 18.8786 381.705 19.073 381.892 19.2454C381.992 19.3269 382.079 19.4115 382.156 19.4805L382.352 19.6623L382.473 19.7814L382.518 19.819C382.518 19.819 382.506 19.8002 382.48 19.7689L382.361 19.6435C382.31 19.5902 382.247 19.5244 382.17 19.4523C382.093 19.3802 382.009 19.2924 381.91 19.2078C381.717 19.0322 381.476 18.8379 381.21 18.6404C380.911 18.43 380.605 18.2406 380.292 18.073C379.958 17.9006 379.631 17.7596 379.332 17.653C379.033 17.5464 378.758 17.4712 378.527 17.4242C378.41 17.396 378.293 17.3803 378.211 17.3646C378.13 17.3489 378.041 17.3364 377.978 17.3301L377.826 17.3145L377.775 17.327Z" fill="white"/>
<path d="M362.022 14.5369C362.048 14.498 362.076 14.4613 362.106 14.4272C362.19 14.338 362.291 14.2826 362.398 14.2673C362.555 14.2514 362.714 14.2748 362.865 14.3363C363.055 14.4002 363.241 14.4852 363.421 14.5902C363.747 14.7812 364.052 15.0346 364.324 15.3425C364.535 15.5807 364.647 15.7563 364.651 15.7469C364.63 15.7014 364.605 15.6593 364.577 15.6215C364.504 15.5098 364.426 15.405 364.343 15.308C364.075 14.9841 363.769 14.7215 363.437 14.5307C363.255 14.4241 363.067 14.3392 362.874 14.2767C362.717 14.2166 362.552 14.1974 362.389 14.2203C362.278 14.2424 362.174 14.3066 362.09 14.4053C362.068 14.4327 362.048 14.4631 362.031 14.4962C362.023 14.5212 362.02 14.5348 362.022 14.5369Z" fill="white"/>
<path d="M333.616 11.4074C333.739 11.4471 333.866 11.464 333.992 11.4575C334.141 11.4529 334.289 11.4288 334.434 11.3854C334.624 11.326 334.812 11.2485 334.994 11.1535C335.197 11.05 335.414 10.9184 335.65 10.7836L336.017 10.5861C336.143 10.5171 336.276 10.4607 336.409 10.3949C336.998 10.1271 337.599 9.90723 338.207 9.73661C339.314 9.42499 340.438 9.23731 341.568 9.17552C341.785 9.15984 341.981 9.15985 342.154 9.15358H342.604H342.885H342.957H342.885L342.604 9.13477H342.163C341.99 9.13477 341.794 9.13477 341.577 9.13477C340.444 9.18554 339.317 9.36804 338.207 9.68019C337.597 9.85136 336.995 10.0733 336.404 10.3447C336.269 10.4106 336.136 10.4701 336.01 10.5391L335.643 10.7397C335.41 10.8776 335.193 11.0093 334.992 11.1158C334.811 11.2144 334.625 11.2941 334.436 11.3541C334.293 11.3992 334.148 11.4275 334.002 11.4387C333.909 11.4432 333.816 11.438 333.724 11.423H333.651L333.616 11.4074Z" fill="#263238"/>
</svg>
