<svg width="721" height="273" viewBox="0 0 721 273" fill="none" xmlns="http://www.w3.org/2000/svg">
<path d="M714.15 192.175L713.186 190.468C713.013 190.166 711.109 190.434 710.812 190.434C709.476 190.434 709.822 190.032 709.822 188.26C709.822 187.422 708.24 187.858 707.721 187.858C706.534 187.858 707.77 189.632 707.227 190.434C706.978 190.836 704.753 190.434 704.357 190.434C703.689 190.434 703.492 190.736 703.492 189.866V177.047C703.492 175.809 702.873 172.494 704.283 172.93C703.245 170.354 701.538 167.943 700.228 165.567C698.867 163.124 697.507 160.714 696.171 158.271C694.737 160.848 693.302 163.392 691.892 165.969C690.632 168.211 689.05 170.486 688.036 172.93C689.395 172.494 688.851 175.105 688.851 176.311V185.213C688.851 185.915 689.247 189.798 688.851 190.3C688.604 190.602 686.997 190.3 686.724 190.3H684.326C684.178 190.3 684.425 187.858 684.226 187.858H681.878C681.68 187.858 681.977 190.3 681.778 190.3H679.107C678.093 190.3 677.08 193.213 676.512 194.249C675.596 195.923 674.656 197.63 673.717 199.336V148.297C673.717 147.527 673.048 147.895 672.554 147.895C671.343 147.895 671.391 148.097 671.391 146.49V138.023C671.391 136.548 670.453 137.118 669.537 137.118H665.902C665.259 137.118 665.605 133.336 665.605 132.565V108.568C665.605 108.468 663.157 108.536 662.91 108.536C662.069 108.536 662.49 106.092 662.49 105.121C662.49 104.955 659.869 105.055 659.596 105.055C658.062 105.055 658.433 105.423 658.433 107.464C658.433 108.97 658.062 108.536 656.975 108.536H652.82C652.053 108.536 652.4 107.23 652.4 106.36V101.373C652.4 101.273 649.902 101.307 649.629 101.307C649.235 101.307 649.456 98.0259 649.456 97.4577C649.456 96.2534 649.579 96.2855 648.765 96.2855H638.352C638.304 96.2855 638.328 99.8342 638.328 100.134C638.328 101.943 637.611 101.307 636.35 101.307C635.137 101.307 635.36 101.407 635.36 103.047V108.368C635.36 108.736 633.53 108.536 633.259 108.536H629.449C629.202 108.536 629.325 105.59 629.325 105.121C629.325 104.955 626.433 105.055 626.136 105.055C624.875 105.055 625.296 105.826 625.296 107.464C625.296 108.302 625.469 108.536 624.875 108.536H622.872C622.179 108.536 622.179 108.334 622.179 109.204V136.95C622.179 137.319 618.05 137.118 617.381 137.118C616.046 137.118 616.367 137.553 616.367 139.227V143.912C616.367 144.548 616.689 147.427 616.367 147.895C616.146 148.263 614.068 147.493 614.068 148.029V156.631C602.642 144.28 584.638 144.548 573.51 157.433V81.4262C573.51 79.8859 571.359 80.7221 570.469 80.7221C570.271 80.7221 570.568 79.1836 570.419 78.9817C570.295 78.8156 569.182 78.9817 568.985 78.9817C568.614 78.9817 567.921 79.1836 567.575 78.9817C567.451 78.9496 567.698 78.2795 567.501 78.2795H540.941C540.421 78.2795 540.397 78.9817 540.397 78.9817C540.026 78.9817 537.603 78.8476 537.603 79.1157C537.603 79.5857 537.8 80.7221 537.405 80.7221H535.525C535.155 80.7221 534.511 80.4219 534.511 81.0241V132.399C533.844 130.825 533.175 129.287 532.508 127.714C532.261 127.178 531.221 123.898 530.753 123.898H526.152C525.658 123.898 525.262 124.166 525.262 123.463C525.262 122.291 525.435 122.157 524.594 122.157H522.467C522.097 122.157 522.27 123.027 522.27 123.463C522.27 124.166 521.874 123.898 521.38 123.898H504.316C504.291 123.898 504.291 122.459 504.291 122.291C504.291 122.023 503.476 122.157 503.302 122.157H501.349C501.249 122.157 501.299 123.563 501.299 123.764C501.299 124.032 499.122 123.898 498.851 123.898C498.182 123.898 496.303 123.429 495.71 123.898C495.413 124.132 495.14 125.236 494.967 125.606C492.693 130.893 490.442 136.214 488.167 141.503C488.884 141.503 489.577 141.001 489.577 142.106V165.433C489.577 166.135 485.224 165.735 484.556 165.735C484.383 165.735 483.692 165.901 483.692 165.633C483.692 165.399 483.765 164.026 483.642 164.026C483.146 164.026 480.995 163.626 480.698 164.026C480.599 164.194 480.822 165.735 480.674 165.735H475.679C475.135 165.735 475.406 160.414 475.406 159.175V37.5485C475.406 36.9784 475.53 29.2467 475.283 29.2467C474.442 29.2467 474.516 29.3487 474.516 28.2426V25.968C474.516 25.6339 473.848 24.9977 473.699 24.7958C470.213 20.1768 466.726 15.5917 463.239 10.9727C462.472 9.96849 460.271 10.5726 459.133 10.6386V4.78135H455.968V-2.87582e-07H443.283V4.78135H440.116V10.6386C438.905 10.6047 436.802 9.93643 435.912 11.1068C434.23 13.3153 432.549 15.5256 430.892 17.7342C429.062 20.1446 427.232 22.5533 425.403 24.9637C424.957 25.5319 424.71 25.6659 424.71 26.5021V28.9806C424.71 29.7168 424.092 28.8786 423.843 29.2467C423.547 29.6828 423.843 32.0593 423.843 32.7955V142.24C423.843 143.946 424.042 155.761 423.622 155.761H394.662C393.624 155.761 394.612 150.539 394.218 150.539C393.624 150.539 388.183 150.573 388.183 150.473V124.468C388.183 123.195 387.713 119.915 388.307 118.776C389.667 116.066 391.003 113.389 392.363 110.677C393.055 109.306 392.561 105.992 392.561 104.419V87.2155C392.561 86.6813 392.858 83.6687 392.561 83.2666C392.214 82.8645 390.113 83.2666 389.667 83.2666C388.85 83.2666 387.442 83.6686 387.119 82.8985C386.773 82.0623 387.119 79.7518 387.119 78.7476C387.119 78.6136 381.333 78.6816 380.764 78.6816C379.824 78.6816 379.8 78.8476 379.8 77.6094V73.0584C379.8 72.9243 376.981 72.9923 376.659 72.9923C376.238 72.9923 376.461 69.9457 376.461 69.4096C376.461 67.269 376.288 67.7372 374.705 67.7372C373.271 67.7372 373.32 67.4691 373.32 69.4096C373.32 69.7795 373.42 72.9923 373.247 72.9923H353.783C353.586 72.9923 353.686 70.2137 353.686 69.8796C353.686 67.7032 353.933 67.7372 352.299 67.7372C351.039 67.7372 350.569 67.1671 350.569 68.9414C350.569 69.5436 350.792 72.9923 350.371 72.9923C349.802 72.9923 347.601 72.5222 347.206 72.9923C346.86 73.4264 347.206 76.9072 347.206 77.6094C347.206 78.6815 347.304 78.6816 346.489 78.6816H342.334C341.962 78.6816 340.182 78.3475 339.885 78.6816C339.391 79.3498 340.257 82.0283 339.885 82.8985C339.588 83.6007 338.476 83.2666 337.71 83.2666C337.19 83.2666 334.84 82.7985 334.469 83.2666C334.198 83.6007 334.469 86.2792 334.469 86.7474V108.97C334.469 109.438 334.371 110.108 334.569 110.511C335.929 113.221 337.289 115.898 338.65 118.61C339.02 119.347 338.847 120.751 338.847 121.623V168.277C338.847 168.613 332.145 168.445 331.601 168.445H300.269C299.229 168.445 298.339 169.013 298.339 167.475C298.339 166.403 296.188 166.939 295.52 166.939C295.371 166.939 294.481 166.805 294.383 166.939C294.283 167.107 294.481 168.445 294.357 168.445H290.895C290.202 168.445 288.744 168.043 288.125 168.445C287.408 168.879 286.617 170.99 286.121 171.792C285.53 172.796 284.936 173.766 284.366 174.771V77.8114C284.366 76.205 283.922 76.8071 282.636 76.8071C281.424 76.8071 282.907 74.7326 281.622 74.7326C281.251 74.7326 280.409 74.9327 280.088 74.7326C279.965 74.6307 280.261 73.8285 280.014 73.8285H260.724C260.453 73.8285 260.824 74.7326 260.577 74.7326H258.846C258.029 74.7326 259.216 76.8071 258.103 76.8071C256.496 76.8071 256.372 76.305 256.372 78.2455V143.042C256.372 144.314 253.899 143.946 253.899 143.042C253.899 142.34 254.195 139.427 253.628 139.427H249.917C248.483 139.427 248.656 139.327 248.656 141.301C248.656 142.942 249.052 143.612 247.816 143.612C247.569 143.612 244.601 143.612 244.601 143.612V39.689C244.601 39.0529 243.091 39.4229 242.721 39.4229C241.46 39.4229 241.93 38.2507 241.93 36.6783C241.93 36.2423 239.456 36.9784 239.456 36.3763C239.456 35.306 239.58 35.3381 238.889 35.3381H217.101C216.953 35.3381 216.063 35.172 215.938 35.3381C215.691 35.7062 216.284 36.5764 215.74 36.5764H213.936C212.872 36.5764 213.812 39.4229 213.416 39.4229C213.143 39.4229 210.819 39.3889 210.819 39.455V141.703C210.819 144.146 210.695 143.612 208.742 143.612H199.37C198.701 143.612 197.787 144.08 197.787 143.042C197.787 142.34 198.108 139.427 197.514 139.427H193.805C192.371 139.427 192.544 139.327 192.544 141.301C192.544 142.474 192.939 143.612 191.975 143.612H187.77C187.376 143.612 186.015 143.31 185.743 143.712C184.309 145.82 182.874 147.929 181.415 150.003V135.88C181.811 136.482 182.231 137.084 182.627 137.687C182.998 137.018 184.531 135.21 184.037 134.474C183.344 133.436 182.677 132.399 181.984 131.395C179.214 127.212 176.469 123.061 173.7 118.91C169.297 112.285 164.895 105.658 160.493 99.0641C156.116 105.658 151.715 112.285 147.312 118.91C144.543 123.061 141.773 127.212 139.028 131.395C138.336 132.399 137.643 133.436 136.975 134.474C136.481 135.21 138.138 136.75 138.558 137.352C138.855 136.916 139.127 136.482 139.424 136.048V173.466C136.629 170.62 134.033 167.273 131.337 164.194C130.472 163.224 129.779 161.818 128.617 161.818H121.94C121.074 161.818 109.228 161.852 109.228 161.818V136.716C109.228 136.582 114.421 136.616 115.015 136.616C112.591 132.533 110.168 128.416 107.744 124.334C104.109 118.174 100.474 112.017 96.8137 105.858C95.5522 103.683 94.2665 101.541 92.9806 99.3642C92.6591 98.83 92.1153 97.3576 91.5713 97.3576H80.7395C79.8239 97.3576 80.0966 97.0216 80.0966 95.7494C80.0966 94.177 79.8491 94.5791 78.7361 94.5791H71.8364C71.7373 94.5791 71.9354 97.3576 71.7625 97.3576H65.0852C64.4172 97.3576 60.5101 96.6875 60.0896 97.3897C57.9628 101.005 55.811 104.619 53.6842 108.234C48.0953 117.706 42.5066 127.144 36.9177 136.616C38.6239 136.616 40.3302 136.65 42.0366 136.65C42.7541 136.65 42.6795 136.548 42.6795 137.52V177.549C42.6795 178.151 43.026 181.364 42.6795 181.832C42.4074 182.234 40.2563 181.832 39.8602 181.832H35.9776C35.1863 181.832 35.2609 181.732 35.2609 182.803V196.225C33.3314 194.751 31.4027 193.279 29.4489 191.84C28.1631 190.836 26.8529 189.866 25.5419 188.862C25.3684 188.728 24.429 187.79 24.2554 187.924C24.1952 187.971 24.1351 188.016 24.0743 188.061V149.784H0V211.228H0.00313314V270.061H2.04781V272H719.195V204.959C719.195 204.391 720.653 204.725 721 204.725C718.725 200.542 716.425 196.358 714.15 192.175" fill="#99D1CE"/>
<path d="M0 271.852H0.575227H2.2725L8.79883 271.833L32.8731 271.802L112.822 271.772L112.638 271.871V267.049L112.822 267.148L32.866 267.129L8.79883 267.099L2.2725 267.08H0.575227H0C0 267.08 0.191743 267.08 0.575227 267.08H2.2725L8.79883 267.061L32.866 267.03L112.822 267H113V272H112.815L32.866 271.97L8.79173 271.939H2.2654H0.568126L0 271.852Z" fill="#263238"/>
<path d="M719 271.939H715.915H706.773H671.653L542.1 271.969L111.966 272H111V267H111.966L542.138 267.031L671.653 267.061L706.773 267.08H715.915H719H715.915H706.773L671.653 267.1L542.138 267.13L111.966 267.161L112.932 267.061V271.9L111.966 271.801L542.1 271.832L671.653 271.862L706.773 271.881H715.915L719 271.939Z" fill="#263238"/>
<path d="M689 271.939H686.829H680.393H655.67L564.472 271.969L261.68 272H261V267H261.68L564.498 267.031L655.67 267.061L680.393 267.08L655.67 267.1L564.498 267.13L261.68 267.161L262.36 267.061V271.9L261.68 271.801L564.472 271.832L655.67 271.862L680.393 271.881H686.829L689 271.939Z" fill="#263238"/>
<path d="M719 271.939H717.6H713.45H697.507L638.697 271.969L443.439 272H443V267H443.439L638.714 267.031L697.507 267.061L713.45 267.08L697.507 267.1L638.714 267.13L443.439 267.161L443.877 267.061V271.9L443.439 271.801L638.697 271.832L697.507 271.862L713.45 271.881H717.6L719 271.939Z" fill="#263238"/>
<path d="M153.328 125.172H75.3608V126.525H153.328V125.172Z" fill="#455A64"/>
<path d="M73.1825 114C72.896 113.999 72.6123 114.076 72.3475 114.226C72.0828 114.376 71.8421 114.596 71.6394 114.874C71.4367 115.152 71.2759 115.482 71.1662 115.845C71.0565 116.208 71 116.597 71 116.99V267.394H75.3617V116.99C75.3617 116.597 75.3053 116.208 75.1958 115.846C75.0863 115.483 74.9257 115.153 74.7234 114.876C74.521 114.598 74.2808 114.378 74.0164 114.228C73.752 114.077 73.4686 114 73.1825 114V114Z" fill="#263238"/>
<path d="M75.4033 187.064C75.3638 185.932 74.5355 159.105 85.5925 143.191C90.7496 135.76 97.675 131.994 106.175 131.994H153.67V133.798H106.158C98.0333 133.798 91.43 137.374 86.5326 144.427C75.8799 159.759 76.7049 186.708 76.7147 186.978L75.4033 187.064Z" fill="#455A64"/>
<path d="M130.946 116.662H122.472C121.995 116.662 121.608 117.193 121.608 117.848V151.124C121.608 151.779 121.995 152.309 122.472 152.309H130.946C131.423 152.309 131.81 151.779 131.81 151.124V117.848C131.81 117.193 131.423 116.662 130.946 116.662Z" fill="#263238"/>
<path d="M129.473 125.064C129.835 122.967 128.89 120.865 127.362 120.369C125.834 119.872 124.302 121.169 123.94 123.265C123.578 125.361 124.523 127.463 126.051 127.96C127.579 128.457 129.111 127.16 129.473 125.064Z" fill="#FF725E"/>
<path d="M128.72 137.479C129.83 135.956 129.83 133.486 128.72 131.963C127.609 130.439 125.809 130.439 124.699 131.962C123.589 133.486 123.589 135.956 124.699 137.479C125.809 139.002 127.609 139.002 128.72 137.479Z" fill="#E0E0E0"/>
<path d="M128.72 148.026C129.83 146.502 129.83 144.033 128.72 142.509C127.609 140.986 125.809 140.986 124.699 142.509C123.589 144.033 123.589 146.502 124.699 148.026C125.809 149.549 127.609 149.549 128.72 148.026Z" fill="#455A64"/>
<path d="M129.077 125.852C129.152 125.456 129.201 125.052 129.225 124.644C129.245 124.156 129.193 123.668 129.072 123.209C128.951 122.75 128.763 122.329 128.52 121.972C128.277 121.616 127.984 121.33 127.658 121.134C127.332 120.937 126.981 120.834 126.625 120.829C126.327 120.837 126.031 120.877 125.737 120.946C125.737 120.946 125.81 120.879 125.961 120.806C126.174 120.716 126.395 120.667 126.618 120.662C126.995 120.645 127.371 120.739 127.719 120.938C128.068 121.136 128.382 121.435 128.639 121.813C128.897 122.191 129.093 122.641 129.214 123.131C129.334 123.622 129.377 124.142 129.34 124.657C129.321 124.967 129.27 125.27 129.189 125.559C129.133 125.758 129.087 125.861 129.077 125.852Z" fill="white"/>
<path d="M129.077 136.264C129.151 135.866 129.2 135.46 129.225 135.051C129.245 134.564 129.193 134.075 129.072 133.616C128.951 133.157 128.763 132.736 128.52 132.38C128.277 132.023 127.984 131.738 127.658 131.541C127.332 131.345 126.981 131.241 126.625 131.236C126.327 131.245 126.031 131.284 125.737 131.353C125.805 131.289 125.881 131.242 125.961 131.214C126.174 131.123 126.395 131.074 126.618 131.069C126.996 131.049 127.373 131.14 127.722 131.337C128.072 131.535 128.387 131.833 128.645 132.212C128.903 132.592 129.098 133.043 129.217 133.535C129.337 134.027 129.377 134.549 129.336 135.065C129.318 135.374 129.267 135.677 129.185 135.967C129.165 136.075 129.128 136.176 129.077 136.264V136.264Z" fill="white"/>
<path d="M129.086 146.902C129.161 146.506 129.21 146.102 129.234 145.694C129.254 145.206 129.203 144.718 129.081 144.259C128.96 143.8 128.773 143.379 128.53 143.022C128.286 142.666 127.993 142.38 127.667 142.184C127.341 141.987 126.99 141.883 126.634 141.879C126.337 141.887 126.04 141.927 125.747 141.996C125.747 141.996 125.819 141.924 125.97 141.856C126.183 141.766 126.404 141.717 126.627 141.712C127.005 141.691 127.381 141.783 127.731 141.98C128.08 142.177 128.395 142.475 128.653 142.853C128.91 143.232 129.106 143.683 129.226 144.174C129.345 144.666 129.386 145.187 129.346 145.703C129.328 146.012 129.278 146.316 129.194 146.605C129.145 146.808 129.096 146.911 129.086 146.902Z" fill="white"/>
<path d="M130.972 149.995C130.926 149.995 130.886 142.834 130.886 134.004C130.886 125.175 130.926 118.014 130.972 118.014C131.018 118.014 131.06 125.17 131.06 134.004C131.06 142.838 131.021 149.995 130.972 149.995Z" fill="white"/>
<path d="M153.135 116.662H144.662C144.184 116.662 143.797 117.193 143.797 117.848V151.124C143.797 151.779 144.184 152.309 144.662 152.309H153.135C153.613 152.309 154 151.779 154 151.124V117.848C154 117.193 153.613 116.662 153.135 116.662Z" fill="#263238"/>
<path d="M151.66 125.071C152.022 122.975 151.077 120.873 149.549 120.376C148.021 119.88 146.489 121.176 146.127 123.273C145.765 125.369 146.71 127.471 148.238 127.968C149.766 128.464 151.298 127.168 151.66 125.071Z" fill="#FF725E"/>
<path d="M150.909 137.479C152.019 135.956 152.019 133.486 150.909 131.962C149.799 130.439 147.999 130.439 146.888 131.962C145.778 133.486 145.778 135.956 146.888 137.479C147.999 139.002 149.799 139.002 150.909 137.479Z" fill="#E0E0E0"/>
<path d="M150.912 148.026C152.022 146.502 152.022 144.033 150.912 142.509C149.801 140.986 148.001 140.986 146.891 142.509C145.78 144.033 145.78 146.502 146.891 148.026C148.001 149.549 149.801 149.549 150.912 148.026Z" fill="#455A64"/>
<path d="M151.264 125.853C151.339 125.457 151.388 125.053 151.412 124.645C151.432 124.157 151.38 123.669 151.259 123.21C151.138 122.751 150.95 122.33 150.707 121.973C150.464 121.617 150.171 121.331 149.845 121.135C149.519 120.938 149.168 120.835 148.812 120.83C148.514 120.839 148.218 120.878 147.924 120.947C147.924 120.947 147.997 120.879 148.148 120.807C148.361 120.717 148.582 120.668 148.805 120.663C149.183 120.642 149.56 120.734 149.909 120.931C150.259 121.128 150.574 121.427 150.832 121.806C151.09 122.185 151.285 122.636 151.404 123.129C151.524 123.621 151.564 124.143 151.523 124.658C151.505 124.967 151.454 125.271 151.372 125.56C151.323 125.759 151.274 125.862 151.264 125.853Z" fill="white"/>
<path d="M151.267 136.264C151.337 135.865 151.385 135.46 151.412 135.051C151.432 134.564 151.38 134.076 151.259 133.617C151.139 133.158 150.951 132.738 150.708 132.381C150.466 132.025 150.173 131.739 149.847 131.542C149.522 131.346 149.171 131.241 148.815 131.236C148.516 131.245 148.219 131.284 147.924 131.353C147.992 131.289 148.068 131.242 148.148 131.214C148.361 131.123 148.582 131.075 148.805 131.069C149.183 131.049 149.56 131.14 149.909 131.337C150.259 131.535 150.574 131.833 150.832 132.212C151.09 132.592 151.285 133.043 151.404 133.535C151.524 134.027 151.564 134.549 151.523 135.065C151.507 135.374 151.456 135.678 151.372 135.967C151.35 136.073 151.315 136.174 151.267 136.264Z" fill="white"/>
<path d="M151.279 146.902C151.349 146.505 151.398 146.101 151.423 145.694C151.444 145.207 151.392 144.719 151.271 144.26C151.15 143.801 150.963 143.38 150.72 143.024C150.477 142.667 150.184 142.382 149.859 142.185C149.534 141.988 149.182 141.884 148.827 141.879C148.528 141.887 148.23 141.926 147.936 141.996C148.003 141.928 148.079 141.881 148.16 141.856C148.373 141.766 148.594 141.717 148.817 141.712C149.194 141.691 149.571 141.783 149.92 141.98C150.27 142.177 150.584 142.475 150.842 142.853C151.1 143.232 151.295 143.683 151.415 144.174C151.535 144.666 151.576 145.187 151.535 145.703C151.518 146.012 151.467 146.316 151.384 146.605C151.364 146.713 151.328 146.814 151.279 146.902V146.902Z" fill="white"/>
<path d="M153.166 149.995C153.116 149.995 153.08 142.834 153.08 134.004C153.08 125.175 153.116 118.014 153.166 118.014C153.215 118.014 153.251 125.17 153.251 134.004C153.251 142.838 153.212 149.995 153.166 149.995Z" fill="white"/>
<mask id="path-25-inside-1_7389_890" fill="white">
<path d="M208.065 238.045C208.453 238.331 208.8 238.735 209.085 239.232C209.37 239.729 209.587 240.309 209.722 240.938C209.99 242.201 210.066 243.541 209.943 244.856C209.756 247.396 208.82 249.969 207.824 252C206.434 250.132 206.128 246.867 206.018 245.202C205.87 242.59 206.637 237.654 208.078 238.019"/>
</mask>
<path d="M209.722 240.938L210.211 240.834L210.211 240.833L209.722 240.938ZM209.943 244.856L209.445 244.81L209.444 244.82L209.943 244.856ZM207.824 252L207.423 252.299L207.912 252.956L208.273 252.22L207.824 252ZM206.018 245.202L205.519 245.231L205.519 245.235L206.018 245.202ZM207.769 238.448C208.092 238.686 208.395 239.032 208.651 239.48L209.519 238.983C209.206 238.437 208.815 237.977 208.362 237.643L207.769 238.448ZM208.651 239.48C208.907 239.927 209.107 240.459 209.234 241.044L210.211 240.833C210.066 240.159 209.832 239.53 209.519 238.983L208.651 239.48ZM209.233 241.042C209.49 242.254 209.563 243.544 209.445 244.81L210.441 244.903C210.568 243.539 210.49 242.147 210.211 240.834L209.233 241.042ZM209.444 244.82C209.264 247.272 208.356 249.779 207.375 251.78L208.273 252.22C209.283 250.159 210.248 247.521 210.441 244.893L209.444 244.82ZM208.225 251.701C207.594 250.854 207.189 249.655 206.93 248.423C206.674 247.2 206.572 245.995 206.517 245.169L205.519 245.235C205.575 246.075 205.68 247.335 205.952 248.628C206.221 249.911 206.663 251.278 207.423 252.299L208.225 251.701ZM206.517 245.174C206.446 243.917 206.596 242.078 206.939 240.608C207.112 239.868 207.324 239.263 207.556 238.878C207.808 238.459 207.944 238.501 207.955 238.504L208.201 237.535C207.492 237.355 206.991 237.877 206.699 238.362C206.387 238.881 206.146 239.605 205.965 240.381C205.601 241.94 205.442 243.875 205.519 245.231L206.517 245.174Z" fill="#666666" mask="url(#path-25-inside-1_7389_890)"/>
<mask id="path-27-inside-2_7389_890" fill="white">
<path d="M209.051 256.931C208.974 256.059 209 255.156 209.125 254.314C209.25 253.472 209.47 252.72 209.763 252.136C210.06 251.561 210.403 251.127 210.773 250.858C211.143 250.589 211.533 250.491 211.92 250.569C212.1 250.564 212.278 250.649 212.442 250.818C212.606 250.988 212.751 251.237 212.869 251.548C212.955 251.879 213 252.257 213 252.641C213 253.026 212.955 253.404 212.869 253.734C212.697 254.389 212.454 254.929 212.163 255.301C211.191 256.696 210.137 257.652 209.038 256.868"/>
</mask>
<path d="M209.763 252.136L209.319 251.907L209.316 251.912L209.763 252.136ZM211.92 250.569L211.821 251.059L211.877 251.07L211.934 251.069L211.92 250.569ZM212.869 251.548L213.353 251.423L213.346 251.397L213.337 251.372L212.869 251.548ZM213 252.641L213.5 252.641L213 252.641ZM212.869 253.734L213.352 253.861L213.353 253.86L212.869 253.734ZM212.163 255.301L211.769 254.993L211.761 255.004L211.753 255.015L212.163 255.301ZM209.549 256.887C209.476 256.053 209.5 255.189 209.619 254.387L208.63 254.24C208.499 255.122 208.473 256.065 208.553 256.975L209.549 256.887ZM209.619 254.387C209.739 253.583 209.947 252.885 210.21 252.36L209.316 251.912C208.994 252.555 208.761 253.361 208.63 254.24L209.619 254.387ZM210.208 252.365C210.482 251.833 210.781 251.471 211.067 251.263L210.479 250.454C210.025 250.783 209.637 251.29 209.319 251.907L210.208 252.365ZM211.067 251.263C211.344 251.062 211.594 251.013 211.821 251.059L212.019 250.079C211.473 249.969 210.943 250.117 210.479 250.454L211.067 251.263ZM211.934 251.069C211.938 251.069 211.949 251.069 211.971 251.08C211.995 251.091 212.034 251.116 212.083 251.166L212.801 250.471C212.572 250.234 212.267 250.059 211.907 250.069L211.934 251.069ZM212.083 251.166C212.183 251.27 212.298 251.452 212.401 251.725L213.337 251.372C213.204 251.021 213.028 250.705 212.801 250.471L212.083 251.166ZM212.385 251.674C212.459 251.959 212.5 252.294 212.5 252.641L213.5 252.641C213.5 252.219 213.45 251.799 213.353 251.423L212.385 251.674ZM212.5 252.641C212.5 252.989 212.459 253.324 212.385 253.609L213.353 253.86C213.45 253.483 213.5 253.063 213.5 252.641H212.5ZM212.385 253.608C212.224 254.222 212.004 254.693 211.769 254.993L212.557 255.609C212.904 255.165 213.171 254.555 213.352 253.861L212.385 253.608ZM211.753 255.015C211.274 255.702 210.817 256.215 210.39 256.473C210.184 256.598 210.006 256.649 209.851 256.65C209.7 256.651 209.529 256.604 209.328 256.461L208.747 257.275C209.096 257.524 209.468 257.652 209.855 257.65C210.237 257.648 210.59 257.521 210.906 257.33C211.524 256.957 212.08 256.295 212.574 255.587L211.753 255.015Z" fill="#666666" mask="url(#path-27-inside-2_7389_890)"/>
<path d="M207.613 266.286C207.619 266.075 207.633 265.866 207.654 265.66C207.688 265.221 207.736 264.649 207.791 263.967C207.915 262.08 208.173 260.251 208.554 258.553C208.955 256.854 209.546 255.429 210.266 254.424C210.483 254.137 210.713 253.904 210.951 253.727C211.033 253.664 211.105 253.641 211.149 253.61C211.173 253.599 211.198 253.599 211.221 253.61C210.899 253.867 210.588 254.195 210.294 254.589C209.602 255.614 209.035 257.024 208.647 258.687C208.271 260.366 208.006 262.164 207.863 264.022C207.794 264.735 207.739 265.307 207.698 265.707C207.678 265.906 207.649 266.1 207.613 266.286V266.286Z" fill="#263238"/>
<path d="M207.655 239.744C207.659 239.835 207.659 239.927 207.655 240.018L207.676 240.802C207.676 241.483 207.707 242.471 207.724 243.693C207.758 246.137 207.785 249.522 207.779 253.251C207.772 256.981 207.734 260.366 207.69 262.81C207.666 264.032 207.645 265.019 207.628 265.701C207.628 266.022 207.628 266.281 207.604 266.485C207.607 266.576 207.607 266.668 207.604 266.759C207.599 266.668 207.599 266.576 207.604 266.485C207.604 266.281 207.604 266.022 207.604 265.701C207.604 264.996 207.621 264.009 207.635 262.81C207.659 260.366 207.69 256.989 207.696 253.259C207.703 249.53 207.696 246.153 207.669 243.709C207.669 242.51 207.669 241.523 207.652 240.81C207.652 240.488 207.652 240.23 207.652 240.026C207.648 239.932 207.649 239.837 207.655 239.744V239.744Z" fill="#263238"/>
<mask id="path-31-inside-3_7389_890" fill="white">
<path d="M207.11 258.793C206.974 256.947 206.648 255.202 206.159 253.703C205.669 252.204 205.03 250.994 204.295 250.174C203.922 249.767 203.429 249.493 203.121 250.174C202.813 250.856 202.881 251.961 203.035 252.854C203.364 254.698 203.924 256.278 204.645 257.394C205.366 258.51 206.215 259.111 207.086 259.122"/>
</mask>
<path d="M204.295 250.174L204.668 249.841L204.664 249.837L204.295 250.174ZM203.035 252.854L202.543 252.939L202.543 252.942L203.035 252.854ZM207.608 258.756C207.47 256.877 207.138 255.092 206.634 253.548L205.683 253.859C206.158 255.313 206.478 257.017 206.611 258.829L207.608 258.756ZM206.634 253.548C206.132 252.009 205.464 250.73 204.668 249.841L203.923 250.508C204.596 251.259 205.207 252.399 205.683 253.859L206.634 253.548ZM204.664 249.837C204.465 249.619 204.15 249.336 203.765 249.273C203.547 249.237 203.315 249.273 203.104 249.414C202.905 249.547 202.766 249.746 202.665 249.968L203.577 250.38C203.63 250.262 203.668 250.24 203.66 250.245C203.655 250.249 203.643 250.255 203.627 250.258C203.62 250.259 203.614 250.26 203.609 250.26C203.605 250.26 203.602 250.259 203.603 250.259C203.607 250.26 203.644 250.269 203.711 250.317C203.776 250.362 203.85 250.428 203.927 250.512L204.664 249.837ZM202.665 249.968C202.469 250.403 202.407 250.931 202.405 251.433C202.403 251.943 202.462 252.473 202.543 252.939L203.528 252.769C203.454 252.342 203.403 251.873 203.405 251.437C203.407 250.993 203.465 250.628 203.577 250.38L202.665 249.968ZM202.543 252.942C202.879 254.827 203.456 256.476 204.225 257.665L205.065 257.123C204.392 256.081 203.849 254.57 203.528 252.766L202.543 252.942ZM204.225 257.665C204.987 258.844 205.966 259.608 207.079 259.622L207.092 258.622C206.464 258.614 205.745 258.176 205.065 257.123L204.225 257.665Z" fill="#666666" mask="url(#path-31-inside-3_7389_890)"/>
<path d="M204.468 253.049C204.552 253.107 204.632 253.186 204.708 253.284C204.801 253.377 204.89 253.487 204.975 253.613C205.093 253.761 205.208 253.926 205.317 254.107C205.452 254.316 205.583 254.541 205.708 254.78C205.848 255.031 205.982 255.329 206.125 255.642C206.427 256.354 206.692 257.143 206.916 257.993C207.136 258.844 207.312 259.751 207.44 260.696C207.495 261.107 207.54 261.526 207.574 261.949C207.605 262.317 207.627 262.688 207.639 263.062C207.659 263.407 207.639 263.72 207.659 263.986C207.665 264.219 207.665 264.451 207.659 264.684C207.657 264.883 207.648 265.083 207.632 265.279C207.608 265.279 207.632 264.425 207.58 263.077C207.564 262.711 207.538 262.347 207.502 261.988C207.467 261.572 207.421 261.162 207.365 260.758C207.235 259.834 207.06 258.946 206.844 258.11C206.624 257.28 206.364 256.508 206.071 255.807C205.943 255.5 205.808 255.21 205.667 254.937C205.545 254.691 205.419 254.461 205.287 254.248C204.811 253.441 204.468 253.088 204.468 253.049Z" fill="#263238"/>
<path d="M43.8301 206.809C45.0558 226.819 46.2837 246.826 47.514 266.831L48.4726 266.902C47.8598 246.547 47.2093 225.722 43.8301 206.809Z" fill="#455A64"/>
<path d="M54.0606 204C51.486 210.456 50.452 219.325 49.8015 227.928C48.8771 240.134 48.7915 254.566 49.0689 266.906L50.4144 266.977C49.8817 245.646 51.1189 224.277 54.0606 204Z" fill="#455A64"/>
<path d="M44.2838 244.455C43.9955 241.719 43.6637 238.94 42.943 236.614C41.9609 233.468 40.362 231.48 38.7531 229.932C37.1441 228.384 35.4547 227.146 34 225C35.6223 230.71 39.3028 232.2 41.1765 237.572C42.1084 240.229 42.4972 243.563 42.8525 246.796C43.6469 253.845 44.1397 259.951 44.9341 267H46C45.6531 259.414 45.0798 251.884 44.2838 244.455V244.455Z" fill="#455A64"/>
<path d="M51 267C51 267 51.9566 248.097 52.6653 244.629C53.3739 241.162 60.0633 231.579 59.9995 232.014C59.9358 232.449 54.9789 242.964 54.2739 245.108C53.5688 247.251 52.3428 267 52.3428 267H51Z" fill="#455A64"/>
<path d="M256.785 255.329C256.785 255.329 256.785 255.241 256.785 255.081C256.785 254.921 256.785 254.673 256.785 254.368C256.785 253.738 256.785 252.818 256.785 251.661C256.785 249.3 256.764 245.906 256.752 241.702C256.752 233.292 256.722 221.643 256.705 208.64L256.814 208.775H254.787C255.001 208.506 254.846 208.707 254.892 208.656V216.704C254.892 219.328 254.892 221.87 254.892 224.35C254.892 229.278 254.892 233.855 254.892 237.936C254.867 246.072 254.846 252.229 254.837 255.303L254.804 255.267H256.328H256.705H256.835H256.718H256.349H254.804H254.77V255.226C254.77 252.152 254.741 245.994 254.716 237.858C254.716 233.777 254.716 229.2 254.716 224.272C254.716 221.808 254.716 219.251 254.716 216.627V208.671C254.766 208.604 254.607 208.79 254.829 208.521H256.965V208.671C256.965 221.694 256.932 233.374 256.919 241.81C256.919 245.999 256.894 249.388 256.886 251.739C256.886 252.891 256.886 253.805 256.886 254.415C256.886 254.714 256.886 254.931 256.886 255.107C256.886 255.282 256.785 255.329 256.785 255.329Z" fill="#263238"/>
<path d="M257.318 266.939C257.313 266.823 257.313 266.708 257.318 266.593C257.318 266.35 257.318 266.035 257.318 265.647C257.318 264.8 257.318 263.633 257.28 262.207C257.242 260.781 257.28 259.045 257.246 257.149C257.246 256.674 257.246 256.189 257.246 255.693V255.321C257.249 255.21 257.233 255.099 257.2 254.995C257.167 254.892 257.116 254.798 257.052 254.72C256.988 254.642 256.912 254.581 256.828 254.541C256.633 254.485 256.432 254.468 256.233 254.489H255.584C255.37 254.489 255.131 254.489 254.934 254.489C254.84 254.504 254.749 254.544 254.668 254.606C254.587 254.669 254.518 254.752 254.465 254.851C254.409 254.962 254.375 255.087 254.365 255.217C254.365 255.347 254.365 255.517 254.365 255.662V256.561C254.365 257.16 254.365 257.744 254.365 258.317C254.365 259.464 254.365 260.559 254.365 261.597C254.365 263.664 254.365 265.472 254.34 266.928L254.268 266.841L256.526 266.887L257.142 266.913H257.364C257.298 266.919 257.232 266.919 257.167 266.913H256.568L254.268 266.959H254.197V266.872C254.197 265.415 254.197 263.602 254.168 261.54C254.168 260.507 254.168 259.414 254.168 258.26V255.682C254.168 255.527 254.168 255.388 254.168 255.217C254.182 254.971 254.266 254.739 254.404 254.561C254.543 254.382 254.727 254.269 254.926 254.241C255.173 254.241 255.374 254.241 255.6 254.241H256.568C256.688 254.235 256.808 254.26 256.92 254.313C257.032 254.364 257.134 254.444 257.22 254.547C257.305 254.65 257.371 254.775 257.414 254.913C257.456 255.048 257.476 255.192 257.473 255.336V255.682C257.473 256.199 257.473 256.685 257.473 257.165C257.473 259.081 257.473 260.812 257.443 262.279C257.414 263.746 257.414 264.862 257.406 265.699C257.406 266.076 257.406 266.381 257.406 266.618C257.389 266.73 257.359 266.838 257.318 266.939V266.939Z" fill="#263238"/>
<path d="M247.562 176.204L240.295 191.045C240.102 191.434 240 191.881 240 192.336C240 192.792 240.102 193.239 240.295 193.628L247.558 208.474C247.738 208.842 247.992 209.145 248.295 209.356C248.598 209.567 248.94 209.678 249.288 209.678H262.691C263.038 209.677 263.379 209.566 263.682 209.356C263.984 209.145 264.237 208.841 264.416 208.474L271.708 193.581C271.894 193.204 271.995 192.772 272 192.331C272.005 191.89 271.914 191.455 271.738 191.071L264.965 176.266C264.79 175.881 264.535 175.562 264.227 175.339C263.918 175.117 263.567 175 263.21 175H249.292C248.944 174.999 248.601 175.11 248.298 175.321C247.995 175.532 247.741 175.836 247.562 176.204Z" fill="#17282F"/>
<path d="M262.02 208.522H249.601C249.264 208.517 248.934 208.407 248.641 208.202C248.348 207.997 248.102 207.704 247.926 207.349L241.195 193.593C241.008 193.213 240.909 192.777 240.909 192.332C240.909 191.888 241.008 191.452 241.195 191.072L247.926 177.32C248.101 176.965 248.346 176.67 248.64 176.464C248.933 176.258 249.264 176.147 249.601 176.143H262.493C262.843 176.143 263.187 176.258 263.489 176.476C263.792 176.694 264.042 177.007 264.215 177.382L270.497 191.098C270.67 191.474 270.758 191.9 270.753 192.332C270.748 192.764 270.649 193.187 270.468 193.557L263.716 207.349C263.539 207.708 263.289 208.004 262.992 208.209C262.695 208.415 262.36 208.522 262.02 208.522V208.522ZM249.601 176.401C249.299 176.4 249.001 176.495 248.736 176.676C248.472 176.857 248.249 177.118 248.089 177.434L241.358 191.191C241.192 191.53 241.104 191.92 241.104 192.317C241.104 192.714 241.192 193.103 241.358 193.443L248.089 207.199C248.249 207.516 248.472 207.777 248.736 207.958C249.001 208.138 249.299 208.233 249.601 208.233H262.02C262.322 208.233 262.619 208.138 262.883 207.958C263.146 207.777 263.369 207.516 263.528 207.199L270.284 193.407C270.444 193.076 270.53 192.699 270.535 192.313C270.539 191.928 270.461 191.548 270.309 191.211L264.026 177.491C263.872 177.155 263.649 176.876 263.379 176.681C263.109 176.487 262.802 176.385 262.489 176.385L249.601 176.401Z" fill="white"/>
<path d="M255.771 206.883C256.114 206.883 256.391 206.54 256.391 206.118C256.391 205.696 256.114 205.354 255.771 205.354C255.429 205.354 255.151 205.696 255.151 206.118C255.151 206.54 255.429 206.883 255.771 206.883Z" fill="#E0E0E0"/>
<path d="M256.388 206.122C256.351 206.122 256.359 205.822 256.099 205.605C256.026 205.544 255.941 205.506 255.853 205.493C255.765 205.481 255.676 205.494 255.593 205.533C255.496 205.581 255.413 205.664 255.354 205.77C255.295 205.877 255.264 206.003 255.264 206.132C255.264 206.261 255.295 206.387 255.354 206.494C255.413 206.601 255.496 206.683 255.593 206.731C255.675 206.772 255.764 206.787 255.853 206.775C255.941 206.764 256.026 206.726 256.099 206.664C256.359 206.437 256.351 206.148 256.388 206.148C256.426 206.148 256.422 206.22 256.409 206.349C256.388 206.537 256.311 206.709 256.192 206.829C256.101 206.924 255.992 206.987 255.875 207.015C255.758 207.042 255.638 207.031 255.526 206.984C255.385 206.923 255.264 206.81 255.178 206.66C255.091 206.51 255.045 206.331 255.044 206.148C255.044 205.965 255.091 205.786 255.177 205.637C255.264 205.488 255.385 205.376 255.526 205.316C255.638 205.268 255.758 205.257 255.874 205.283C255.991 205.31 256.1 205.372 256.192 205.466C256.312 205.587 256.39 205.761 256.409 205.951C256.422 206.055 256.401 206.122 256.388 206.122Z" fill="#263238"/>
<path d="M251.504 189.647L250.938 190.913C250.914 190.969 250.876 191.015 250.829 191.042L249.326 191.848C249.236 191.897 249.165 191.986 249.127 192.097C249.089 192.209 249.087 192.334 249.121 192.447V192.447C249.137 192.506 249.163 192.559 249.197 192.605C249.231 192.651 249.273 192.687 249.318 192.713C249.364 192.738 249.414 192.752 249.464 192.754C249.514 192.755 249.564 192.744 249.611 192.721L251.194 191.941C251.229 191.922 251.261 191.894 251.286 191.858L251.856 191.037V193.274C251.861 193.313 251.861 193.353 251.856 193.392L250.943 196.094C250.928 196.139 250.922 196.188 250.925 196.236C250.929 196.284 250.942 196.331 250.964 196.371C250.985 196.412 251.014 196.446 251.048 196.469C251.083 196.493 251.121 196.506 251.16 196.507H251.441L250.989 199.452C250.975 199.528 250.976 199.607 250.991 199.683C251.006 199.759 251.035 199.83 251.075 199.89C251.116 199.95 251.166 199.998 251.224 200.03C251.281 200.063 251.344 200.079 251.407 200.077C251.496 200.075 251.582 200.039 251.653 199.973C251.724 199.907 251.776 199.815 251.801 199.71L252.53 196.833C252.543 196.779 252.569 196.732 252.604 196.696C252.639 196.66 252.682 196.638 252.727 196.631L253.095 196.58L253.845 199.607C253.876 199.738 253.944 199.852 254.037 199.927C254.13 200.001 254.242 200.033 254.352 200.015V200.015C254.419 200.004 254.484 199.975 254.542 199.931C254.6 199.886 254.649 199.827 254.687 199.757C254.725 199.687 254.75 199.608 254.761 199.525C254.771 199.442 254.768 199.357 254.75 199.276L254.193 196.652L254.725 196.606C254.761 196.602 254.797 196.588 254.828 196.565C254.859 196.541 254.886 196.51 254.906 196.472C254.926 196.434 254.938 196.391 254.942 196.346C254.947 196.301 254.942 196.256 254.93 196.213L254.712 195.448L256.069 195.077C256.131 195.057 256.185 195.008 256.218 194.94C256.25 194.873 256.26 194.792 256.245 194.715L255.948 193.217C255.934 193.149 255.901 193.09 255.855 193.051C255.809 193.011 255.753 192.993 255.696 193L255.089 193.077L255.11 192.215C255.112 192.15 255.131 192.088 255.164 192.039C255.197 191.989 255.243 191.955 255.294 191.941C255.663 191.832 256.513 191.569 256.735 191.259C256.97 190.902 257.183 190.524 257.372 190.128V193.692C257.372 193.735 257.363 193.778 257.347 193.816C257.027 194.637 256.748 195.48 256.509 196.342C256.509 196.6 256.509 198.212 256.547 199.142C256.55 199.318 256.609 199.486 256.71 199.611C256.812 199.735 256.948 199.806 257.091 199.808C257.237 199.806 257.376 199.732 257.478 199.603C257.58 199.475 257.637 199.301 257.636 199.121V196.389C257.635 196.336 257.645 196.285 257.665 196.239L258.239 194.994C258.267 194.948 258.306 194.914 258.351 194.896C258.395 194.878 258.443 194.876 258.488 194.892C258.533 194.908 258.573 194.939 258.603 194.983C258.634 195.027 258.653 195.081 258.658 195.139V196.761C258.652 196.798 258.652 196.837 258.658 196.874L259.454 199.318C259.483 199.41 259.529 199.492 259.588 199.559C259.647 199.625 259.718 199.674 259.795 199.701C259.872 199.728 259.953 199.732 260.032 199.714C260.111 199.696 260.185 199.656 260.249 199.597V199.597C260.343 199.508 260.411 199.385 260.443 199.246C260.476 199.106 260.471 198.958 260.429 198.822L259.743 196.626C259.722 196.562 259.722 196.49 259.743 196.425L259.83 196.089L262.264 195.386C262.324 195.369 262.376 195.324 262.409 195.261C262.443 195.197 262.455 195.12 262.444 195.046L262.117 192.979C262.108 192.913 262.081 192.853 262.04 192.809C261.998 192.766 261.946 192.742 261.891 192.742H260.819L260.903 191.218C260.924 190.808 260.828 190.402 260.63 190.071L259.981 189.043C259.877 188.868 259.741 188.725 259.584 188.626C259.426 188.528 259.253 188.476 259.077 188.475H257.72C257.55 188.48 257.384 188.539 257.238 188.645C257.091 188.75 256.969 188.9 256.882 189.079L256.212 190.37C256.186 190.425 256.146 190.467 256.099 190.489L255.152 190.954C255.104 190.979 255.051 190.982 255.002 190.964C254.952 190.946 254.909 190.908 254.88 190.856L254.151 189.559C254.084 189.445 253.996 189.352 253.894 189.287C253.792 189.222 253.679 189.188 253.565 189.187H252.132C252.003 189.187 251.877 189.229 251.767 189.31C251.656 189.391 251.565 189.508 251.504 189.647V189.647Z" fill="#E0E0E0"/>
<path d="M254.003 187.215C253.997 187.496 253.924 187.77 253.794 188C253.663 188.231 253.479 188.408 253.267 188.511C253.055 188.614 252.822 188.637 252.599 188.578C252.376 188.519 252.172 188.38 252.013 188.178C251.853 187.977 251.746 187.722 251.703 187.445C251.661 187.169 251.686 186.883 251.774 186.623C251.863 186.364 252.011 186.143 252.202 185.987C252.392 185.831 252.615 185.748 252.843 185.748C252.997 185.75 253.15 185.79 253.292 185.865C253.434 185.939 253.562 186.048 253.67 186.184C253.778 186.321 253.863 186.482 253.92 186.659C253.977 186.836 254.005 187.025 254.003 187.215V187.215Z" fill="#E0E0E0"/>
<path d="M259.813 186.134C259.807 186.432 259.73 186.721 259.592 186.965C259.453 187.209 259.259 187.398 259.034 187.507C258.81 187.615 258.564 187.64 258.327 187.577C258.091 187.514 257.875 187.367 257.707 187.153C257.538 186.94 257.424 186.67 257.38 186.377C257.335 186.084 257.362 185.781 257.456 185.507C257.551 185.232 257.708 184.998 257.91 184.834C258.112 184.67 258.348 184.583 258.59 184.584C258.917 184.595 259.228 184.763 259.457 185.052C259.685 185.342 259.813 185.73 259.813 186.134V186.134Z" fill="#E0E0E0"/>
<g opacity="0.3">
<path opacity="0.3" d="M249.292 175C248.944 174.999 248.601 175.11 248.298 175.321C247.995 175.532 247.741 175.836 247.562 176.204L240.295 191.045C240.102 191.434 240 191.881 240 192.336C240 192.792 240.102 193.239 240.295 193.628L247.558 208.474L263.202 175.01L249.292 175Z" fill="black"/>
</g>
<path d="M255.822 179.062C256.164 179.062 256.441 178.72 256.441 178.298C256.441 177.875 256.164 177.533 255.822 177.533C255.479 177.533 255.202 177.875 255.202 178.298C255.202 178.72 255.479 179.062 255.822 179.062Z" fill="#E0E0E0"/>
<path d="M256.439 178.303C256.406 178.303 256.414 177.998 256.15 177.787C256.077 177.725 255.992 177.687 255.904 177.675C255.815 177.664 255.726 177.679 255.643 177.719C255.546 177.767 255.463 177.85 255.405 177.957C255.346 178.064 255.315 178.19 255.315 178.319C255.315 178.448 255.346 178.574 255.405 178.68C255.463 178.787 255.546 178.87 255.643 178.918C255.726 178.957 255.816 178.97 255.904 178.958C255.992 178.945 256.077 178.907 256.15 178.846C256.414 178.618 256.406 178.303 256.439 178.329C256.473 178.355 256.473 178.396 256.46 178.525C256.441 178.716 256.363 178.889 256.242 179.011C256.151 179.104 256.042 179.167 255.925 179.193C255.809 179.219 255.689 179.208 255.576 179.161C255.436 179.101 255.314 178.988 255.228 178.839C255.142 178.69 255.095 178.512 255.095 178.329C255.096 178.145 255.142 177.967 255.228 177.817C255.315 177.667 255.436 177.554 255.576 177.492C255.689 177.445 255.809 177.435 255.926 177.462C256.042 177.489 256.151 177.553 256.242 177.647C256.361 177.768 256.439 177.939 256.46 178.128C256.473 178.231 256.452 178.303 256.439 178.303Z" fill="#263238"/>
<path d="M675.443 219.652H673.497V261.64H675.443V219.652Z" fill="#263238"/>
<path d="M675.443 261.641C675.443 261.641 675.443 261.562 675.443 261.418C675.443 261.274 675.443 261.051 675.443 260.777C675.443 260.209 675.443 259.382 675.443 258.341C675.443 256.217 675.443 253.163 675.415 249.379C675.415 241.812 675.387 231.33 675.371 219.63L675.476 219.751H673.529C673.733 219.51 673.585 219.691 673.633 219.644V223.298C673.633 224.513 673.633 225.709 673.633 226.886C673.633 229.248 673.633 231.534 673.633 233.766C673.633 238.2 673.633 242.318 673.633 245.99C673.609 253.311 673.589 258.852 673.581 261.618L673.549 261.585H675.01H675.371H675.496H675.383H675.026H673.549H673.517V261.548C673.517 258.782 673.489 253.242 673.464 245.921C673.464 242.249 673.464 238.13 673.464 233.696C673.464 231.479 673.464 229.178 673.464 226.817V219.658C673.513 219.598 673.356 219.765 673.569 219.523H675.62V219.658C675.62 231.376 675.588 241.886 675.576 249.477C675.576 253.246 675.552 256.296 675.544 258.411C675.544 259.447 675.544 260.27 675.544 260.818C675.544 261.088 675.544 261.283 675.544 261.441C675.544 261.599 675.443 261.641 675.443 261.641Z" fill="#263238"/>
<path d="M675.95 272.093H672.979V261.611C672.979 261.388 673.056 261.174 673.192 261.016C673.329 260.858 673.513 260.77 673.706 260.77H675.223C675.416 260.77 675.601 260.858 675.737 261.016C675.873 261.174 675.95 261.388 675.95 261.611V272.093Z" fill="#263238"/>
<path d="M675.951 272.091C675.951 272.091 675.951 271.979 675.951 271.779C675.951 271.579 675.951 271.277 675.951 270.929C675.951 270.166 675.931 269.116 675.919 267.833C675.907 266.55 675.919 264.988 675.887 263.282C675.887 262.855 675.887 262.418 675.887 261.972V261.637C675.889 261.537 675.874 261.437 675.843 261.344C675.81 261.251 675.761 261.166 675.699 261.095C675.637 261.025 675.563 260.97 675.481 260.935C675.295 260.885 675.102 260.869 674.911 260.889H674.289C674.089 260.889 673.86 260.889 673.671 260.889C673.58 260.901 673.493 260.937 673.415 260.993C673.337 261.049 673.271 261.125 673.222 261.214C673.168 261.314 673.135 261.427 673.125 261.544C673.125 261.66 673.125 261.814 673.125 261.944V264.333C673.125 265.365 673.125 266.35 673.125 267.285C673.125 269.144 673.125 270.771 673.097 272.081L673.029 272.002L675.196 272.044L675.786 272.068H675.999C675.936 272.073 675.873 272.073 675.811 272.068H675.237L673.029 272.109H672.965V272.03C672.965 270.72 672.965 269.088 672.937 267.233C672.937 266.304 672.937 265.314 672.937 264.282V262.701C672.937 262.436 672.937 262.167 672.937 261.893C672.937 261.753 672.937 261.628 672.937 261.474C672.944 261.309 672.988 261.149 673.065 261.009C673.132 260.891 673.221 260.791 673.325 260.717C673.429 260.642 673.546 260.595 673.667 260.577C673.904 260.577 674.097 260.577 674.309 260.577H675.241C675.354 260.571 675.468 260.593 675.574 260.642C675.681 260.689 675.779 260.761 675.862 260.854C675.944 260.946 676.008 261.058 676.051 261.181C676.09 261.303 676.109 261.433 676.108 261.563V261.962C676.108 262.427 676.108 262.864 676.108 263.296C676.108 265.021 676.108 266.578 676.075 267.898C676.043 269.218 676.051 270.222 676.043 270.975C676.043 271.315 676.043 271.589 676.043 271.803C676.022 271.902 675.991 271.999 675.951 272.091V272.091Z" fill="#263238"/>
<path d="M690.038 201.642L673.971 184.054C673.439 183.472 672.601 183.499 672.098 184.115L656.91 202.72C656.408 203.335 656.431 204.306 656.963 204.888L673.029 222.476C673.561 223.058 674.399 223.031 674.902 222.415L690.09 203.81C690.593 203.194 690.569 202.224 690.038 201.642Z" fill="#17282F"/>
<path d="M673.864 220.644C673.387 220.646 672.928 220.434 672.583 220.054L658.618 204.789C658.5 204.659 658.405 204.504 658.338 204.331C658.272 204.159 658.235 203.973 658.231 203.785C658.226 203.596 658.254 203.408 658.312 203.232C658.371 203.056 658.458 202.895 658.57 202.758L671.772 186.586C671.941 186.381 672.142 186.215 672.365 186.1C672.589 185.984 672.83 185.921 673.074 185.913C673.319 185.905 673.562 185.953 673.791 186.054C674.019 186.156 674.228 186.308 674.406 186.503L687.917 201.293C688.095 201.488 688.237 201.721 688.337 201.98C688.437 202.239 688.492 202.517 688.498 202.801C688.505 203.084 688.464 203.366 688.376 203.63C688.289 203.895 688.157 204.137 687.989 204.343L675.217 219.989C675.041 220.198 674.831 220.364 674.598 220.477C674.366 220.59 674.116 220.646 673.864 220.644ZM672.72 219.886C672.881 220.061 673.07 220.198 673.277 220.288C673.483 220.378 673.703 220.42 673.924 220.412C674.143 220.405 674.358 220.349 674.558 220.246C674.758 220.143 674.938 219.996 675.088 219.812L687.861 204.166C688.163 203.794 688.326 203.298 688.313 202.788C688.3 202.277 688.113 201.793 687.792 201.442L674.265 186.661C673.945 186.31 673.518 186.121 673.078 186.135C672.637 186.149 672.22 186.365 671.917 186.735L658.715 202.906C658.526 203.139 658.425 203.448 658.432 203.766C658.44 204.085 658.556 204.387 658.755 204.608L672.72 219.886Z" fill="white"/>
<path d="M676.714 212.368H675.144V203.959C675.142 203.039 674.825 202.158 674.263 201.508C673.701 200.858 672.94 200.493 672.146 200.491H668.027V198.674H672.146C673.357 198.674 674.518 199.23 675.374 200.221C676.231 201.213 676.713 202.557 676.714 203.959V212.368Z" fill="white"/>
<path d="M671.664 196.238V202.56L666.269 199.58L671.664 196.238Z" fill="white"/>
<g opacity="0.3">
<path opacity="0.3" d="M671.879 184.38L657.115 202.466C656.817 202.831 656.657 203.318 656.669 203.82C656.681 204.322 656.865 204.798 657.179 205.143L672.794 222.24C672.932 222.405 673.098 222.536 673.282 222.625C673.465 222.713 673.663 222.758 673.861 222.755C674.427 222.663 673.131 183.794 673.131 183.794C672.897 183.77 672.661 183.81 672.444 183.912C672.226 184.014 672.032 184.174 671.879 184.38V184.38Z" fill="black"/>
</g>
</svg>
