<svg width="721" height="283" viewBox="0 0 721 283" fill="none" xmlns="http://www.w3.org/2000/svg">
<path d="M714.15 199.24L713.186 197.471C713.013 197.158 711.109 197.435 710.812 197.435C709.476 197.435 709.822 197.019 709.822 195.181C709.822 194.312 708.24 194.764 707.721 194.764C706.534 194.764 707.771 196.604 707.227 197.435C706.978 197.852 704.753 197.435 704.357 197.435C703.689 197.435 703.492 197.749 703.492 196.846V183.556C703.492 182.272 702.873 178.836 704.283 179.288C703.245 176.617 701.538 174.118 700.228 171.654C698.867 169.121 697.507 166.622 696.171 164.09C694.737 166.761 693.302 169.399 691.892 172.071C690.632 174.395 689.05 176.754 688.036 179.288C689.395 178.836 688.851 181.543 688.851 182.793V192.022C688.851 192.75 689.247 196.776 688.851 197.296C688.604 197.61 686.997 197.296 686.724 197.296H684.326C684.178 197.296 684.425 194.764 684.226 194.764H681.878C681.68 194.764 681.977 197.296 681.778 197.296H679.107C678.094 197.296 677.08 200.316 676.512 201.391C675.596 203.126 674.656 204.896 673.717 206.665V153.749C673.717 152.951 673.048 153.332 672.554 153.332C671.343 153.332 671.391 153.542 671.391 151.876V143.097C671.391 141.569 670.453 142.16 669.537 142.16H665.902C665.259 142.16 665.605 138.238 665.605 137.439V112.56C665.605 112.456 663.157 112.526 662.91 112.526C662.069 112.526 662.49 109.992 662.49 108.986C662.49 108.814 659.869 108.918 659.596 108.918C658.062 108.918 658.433 109.299 658.433 111.415C658.433 112.977 658.062 112.526 656.975 112.526H652.82C652.053 112.526 652.4 111.172 652.4 110.27V105.1C652.4 104.996 649.902 105.031 649.629 105.031C649.235 105.031 649.456 101.63 649.456 101.041C649.456 99.7921 649.58 99.8254 648.765 99.8254H638.352C638.304 99.8254 638.328 103.505 638.328 103.816C638.328 105.691 637.611 105.031 636.35 105.031C635.137 105.031 635.36 105.135 635.36 106.835V112.352C635.36 112.734 633.53 112.526 633.259 112.526H629.449C629.202 112.526 629.325 109.471 629.325 108.986C629.325 108.814 626.433 108.918 626.136 108.918C624.875 108.918 625.296 109.716 625.296 111.415C625.296 112.284 625.469 112.526 624.875 112.526H622.872C622.179 112.526 622.179 112.317 622.179 113.219V141.985C622.179 142.367 618.05 142.16 617.381 142.16C616.046 142.16 616.367 142.61 616.367 144.346V149.203C616.367 149.862 616.689 152.847 616.367 153.332C616.146 153.714 614.068 152.915 614.068 153.471V162.389C602.642 149.584 584.638 149.862 573.51 163.221V84.4198C573.51 82.8229 571.359 83.6898 570.469 83.6898C570.271 83.6898 570.568 82.0948 570.419 81.8854C570.295 81.7132 569.182 81.8854 568.985 81.8854C568.614 81.8854 567.921 82.0948 567.575 81.8854C567.451 81.8521 567.698 81.1574 567.501 81.1574H540.941C540.421 81.1574 540.397 81.8854 540.397 81.8854C540.026 81.8854 537.603 81.7465 537.603 82.0244C537.603 82.5116 537.8 83.6898 537.405 83.6898H535.525C535.155 83.6898 534.511 83.3786 534.511 84.0029V137.267C533.844 135.635 533.175 134.04 532.508 132.41C532.261 131.854 531.221 128.453 530.753 128.453H526.152C525.658 128.453 525.262 128.731 525.262 128.003C525.262 126.787 525.435 126.648 524.594 126.648H522.467C522.097 126.648 522.27 127.55 522.27 128.003C522.27 128.731 521.874 128.453 521.38 128.453H504.316C504.291 128.453 504.291 126.961 504.291 126.787C504.291 126.509 503.476 126.648 503.302 126.648H501.349C501.249 126.648 501.299 128.106 501.299 128.314C501.299 128.592 499.122 128.453 498.851 128.453C498.182 128.453 496.303 127.967 495.71 128.453C495.413 128.695 495.14 129.84 494.967 130.224C492.693 135.705 490.442 141.222 488.167 146.706C488.884 146.706 489.577 146.185 489.577 147.33V171.515C489.577 172.243 485.224 171.828 484.556 171.828C484.383 171.828 483.692 172 483.692 171.722C483.692 171.48 483.765 170.057 483.642 170.057C483.146 170.057 480.995 169.642 480.698 170.057C480.599 170.231 480.822 171.828 480.674 171.828H475.679C475.135 171.828 475.406 166.311 475.406 165.027V38.9289C475.406 38.3379 475.53 30.322 475.283 30.322C474.442 30.322 474.516 30.4277 474.516 29.2809V26.9227C474.516 26.5763 473.848 25.9168 473.699 25.7074C470.213 20.9185 466.726 16.1649 463.238 11.3761C462.472 10.335 460.271 10.9613 459.133 11.0298V4.95712H455.968V0H443.283V4.95712H440.116V11.0298C438.905 10.9945 436.802 10.3018 435.912 11.5151C434.23 13.8048 432.549 16.0964 430.892 18.3861C429.062 20.8853 427.232 23.3824 425.403 25.8815C424.957 26.4706 424.71 26.6095 424.71 27.4765V30.0461C424.71 30.8093 424.092 29.9404 423.844 30.322C423.547 30.774 423.844 33.2379 423.844 34.0012V147.469C423.844 149.238 424.042 161.487 423.622 161.487H394.662C393.624 161.487 394.612 156.074 394.218 156.074C393.624 156.074 388.183 156.109 388.183 156.005V129.044C388.183 127.725 387.713 124.323 388.307 123.143C389.667 120.333 391.003 117.558 392.363 114.746C393.055 113.325 392.561 109.888 392.561 108.258V90.4219C392.561 89.8681 392.858 86.7447 392.561 86.3279C392.214 85.911 390.113 86.3279 389.667 86.3279C388.85 86.3279 387.442 86.7447 387.119 85.9462C386.773 85.0793 387.119 82.6839 387.119 81.6427C387.119 81.5038 381.333 81.5743 380.764 81.5743C379.824 81.5743 379.8 81.7465 379.8 80.4627V75.7443C379.8 75.6054 376.981 75.6758 376.659 75.6758C376.238 75.6758 376.461 72.5172 376.461 71.9614C376.461 69.7421 376.288 70.2275 374.705 70.2275C373.271 70.2275 373.32 69.9496 373.32 71.9614C373.32 72.345 373.42 75.6758 373.247 75.6758H353.783C353.586 75.6758 353.686 72.7951 353.686 72.4487C353.686 70.1922 353.933 70.2275 352.299 70.2275C351.039 70.2275 350.569 69.6365 350.569 71.4761C350.569 72.1003 350.792 75.6758 350.371 75.6758C349.802 75.6758 347.601 75.1885 347.206 75.6758C346.86 76.1259 347.206 79.7346 347.206 80.4627C347.206 81.5742 347.304 81.5743 346.489 81.5743H342.334C341.962 81.5743 340.182 81.2279 339.885 81.5743C339.391 82.2671 340.257 85.044 339.885 85.9462C339.588 86.6742 338.476 86.3279 337.71 86.3279C337.19 86.3279 334.84 85.8425 334.469 86.3279C334.198 86.6743 334.469 89.4513 334.469 89.9366V112.977C334.469 113.462 334.371 114.157 334.569 114.573C335.929 117.384 337.289 120.159 338.65 122.971C339.02 123.734 338.847 125.19 338.847 126.094V174.464C338.847 174.812 332.145 174.638 331.601 174.638H300.269C299.229 174.638 298.339 175.227 298.339 173.632C298.339 172.521 296.188 173.076 295.52 173.076C295.371 173.076 294.481 172.937 294.383 173.076C294.283 173.251 294.481 174.638 294.357 174.638H290.895C290.202 174.638 288.744 174.221 288.125 174.638C287.408 175.088 286.617 177.276 286.121 178.108C285.53 179.149 284.936 180.155 284.366 181.196V80.6721C284.366 79.0067 283.922 79.6309 282.636 79.6309C281.424 79.6309 282.907 77.4802 281.622 77.4802C281.251 77.4802 280.409 77.6876 280.088 77.4802C279.965 77.3745 280.261 76.5428 280.014 76.5428H260.724C260.453 76.5428 260.824 77.4802 260.577 77.4802H258.846C258.029 77.4802 259.216 79.6309 258.103 79.6309C256.496 79.6309 256.372 79.1104 256.372 81.1222V148.301C256.372 149.62 253.899 149.238 253.899 148.301C253.899 147.573 254.195 144.553 253.628 144.553H249.917C248.483 144.553 248.656 144.449 248.656 146.496C248.656 148.197 249.052 148.892 247.816 148.892C247.569 148.892 244.601 148.892 244.601 148.892V41.1482C244.601 40.4887 243.091 40.8723 242.721 40.8723C241.46 40.8723 241.93 39.657 241.93 38.0268C241.93 37.5747 239.456 38.3379 239.456 37.7136C239.456 36.604 239.58 36.6373 238.889 36.6373H217.101C216.953 36.6373 216.063 36.4651 215.938 36.6373C215.691 37.0189 216.284 37.9211 215.74 37.9211H213.936C212.872 37.9211 213.812 40.8723 213.416 40.8723C213.143 40.8723 210.819 40.837 210.819 40.9055V146.913C210.819 149.445 210.695 148.892 208.742 148.892H199.37C198.701 148.892 197.787 149.377 197.787 148.301C197.787 147.573 198.108 144.553 197.514 144.553H193.805C192.371 144.553 192.544 144.449 192.544 146.496C192.544 147.712 192.939 148.892 191.975 148.892H187.77C187.376 148.892 186.015 148.579 185.743 148.995C184.309 151.181 182.874 153.367 181.415 155.518V140.876C181.811 141.5 182.231 142.124 182.627 142.749C182.998 142.056 184.531 140.181 184.037 139.418C183.344 138.341 182.677 137.267 181.984 136.226C179.214 131.889 176.469 127.586 173.7 123.282C169.297 116.413 164.895 109.542 160.493 102.706C156.116 109.542 151.715 116.413 147.312 123.282C144.543 127.586 141.773 131.889 139.028 136.226C138.336 137.267 137.643 138.341 136.975 139.418C136.481 140.181 138.138 141.778 138.558 142.402C138.855 141.95 139.127 141.5 139.424 141.05V179.844C136.629 176.893 134.033 173.423 131.337 170.231C130.472 169.225 129.779 167.767 128.617 167.767H121.94C121.074 167.767 109.228 167.802 109.228 167.767V141.743C109.228 141.604 114.421 141.639 115.015 141.639C112.591 137.406 110.168 133.138 107.744 128.905C104.109 122.519 100.474 116.135 96.8137 109.749C95.5522 107.495 94.2665 105.274 92.9806 103.017C92.6591 102.463 92.1153 100.937 91.5713 100.937H80.7395C79.8239 100.937 80.0966 100.589 80.0966 99.2696C80.0966 97.6394 79.8491 98.0563 78.7361 98.0563H71.8364C71.7373 98.0563 71.9354 100.937 71.7625 100.937H65.0852C64.4172 100.937 60.5101 100.242 60.0896 100.97C57.9628 104.718 55.811 108.466 53.6842 112.213C48.0953 122.034 42.5066 131.819 36.9177 141.639C38.6239 141.639 40.3302 141.674 42.0366 141.674C42.7541 141.674 42.6795 141.569 42.6795 142.576V184.077C42.6795 184.701 43.026 188.032 42.6795 188.517C42.4074 188.934 40.2563 188.517 39.8602 188.517H35.9776C35.1863 188.517 35.2609 188.414 35.2609 189.523V203.44C33.3314 201.911 31.4027 200.385 29.4489 198.893C28.1631 197.852 26.8529 196.846 25.5419 195.805C25.3684 195.666 24.429 194.694 24.2554 194.833C24.1952 194.882 24.1351 194.928 24.0743 194.975V155.291H0V218.994H0.00313314V279.99H2.04781V282H719.195V212.495C719.195 211.906 720.654 212.252 721 212.252C718.725 207.915 716.425 203.577 714.15 199.24Z" fill="#093965"/>
<path d="M152.328 140.172H74.3608V141.525H152.328V140.172Z" fill="#455A64"/>
<path d="M72.1825 129C71.896 128.999 71.6123 129.076 71.3475 129.226C71.0828 129.376 70.8421 129.596 70.6394 129.874C70.4367 130.152 70.2759 130.482 70.1662 130.845C70.0565 131.208 70 131.597 70 131.99V282.394H74.3617V131.99C74.3617 131.597 74.3053 131.208 74.1958 130.846C74.0863 130.483 73.9257 130.153 73.7234 129.876C73.521 129.598 73.2808 129.378 73.0164 129.228C72.752 129.077 72.4686 129 72.1825 129Z" fill="#00100F"/>
<path d="M74.4033 202.064C74.3638 200.932 73.5355 174.105 84.5925 158.191C89.7496 150.76 96.675 146.994 105.175 146.994H152.67V148.798H105.158C97.0333 148.798 90.43 152.374 85.5326 159.427C74.8799 174.759 75.7049 201.708 75.7147 201.978L74.4033 202.064Z" fill="#455A64"/>
<path d="M129.946 131.662H121.472C120.995 131.662 120.608 132.193 120.608 132.848V166.124C120.608 166.779 120.995 167.309 121.472 167.309H129.946C130.423 167.309 130.81 166.779 130.81 166.124V132.848C130.81 132.193 130.423 131.662 129.946 131.662Z" fill="#00100F"/>
<path d="M128.473 140.064C128.835 137.967 127.89 135.865 126.362 135.369C124.834 134.872 123.302 136.169 122.94 138.265C122.578 140.361 123.523 142.463 125.051 142.96C126.579 143.457 128.111 142.16 128.473 140.064Z" fill="#FF725E"/>
<path d="M127.72 152.479C128.83 150.956 128.83 148.486 127.72 146.963C126.609 145.439 124.809 145.439 123.699 146.962C122.589 148.486 122.589 150.956 123.699 152.479C124.809 154.002 126.609 154.002 127.72 152.479Z" fill="#E0E0E0"/>
<path d="M127.72 163.026C128.83 161.502 128.83 159.033 127.72 157.509C126.609 155.986 124.809 155.986 123.699 157.509C122.589 159.033 122.589 161.502 123.699 163.026C124.809 164.549 126.609 164.549 127.72 163.026Z" fill="#455A64"/>
<path d="M128.077 140.852C128.152 140.456 128.201 140.052 128.225 139.644C128.245 139.156 128.193 138.668 128.072 138.209C127.951 137.75 127.763 137.329 127.52 136.972C127.277 136.616 126.984 136.33 126.658 136.134C126.332 135.937 125.981 135.834 125.625 135.829C125.327 135.837 125.031 135.877 124.737 135.946C124.737 135.946 124.81 135.879 124.961 135.806C125.174 135.716 125.395 135.667 125.618 135.662C125.995 135.645 126.371 135.739 126.719 135.938C127.068 136.136 127.382 136.435 127.639 136.813C127.897 137.191 128.093 137.641 128.214 138.131C128.334 138.622 128.377 139.142 128.34 139.657C128.321 139.967 128.27 140.27 128.189 140.559C128.133 140.758 128.087 140.861 128.077 140.852Z" fill="#FFFDFD"/>
<path d="M128.077 151.264C128.151 150.866 128.2 150.46 128.225 150.051C128.245 149.564 128.193 149.075 128.072 148.616C127.951 148.157 127.763 147.736 127.52 147.38C127.277 147.023 126.984 146.738 126.658 146.541C126.332 146.345 125.981 146.241 125.625 146.236C125.327 146.245 125.031 146.284 124.737 146.353C124.805 146.289 124.881 146.242 124.961 146.214C125.174 146.123 125.395 146.074 125.618 146.069C125.996 146.049 126.373 146.14 126.722 146.337C127.072 146.535 127.387 146.833 127.645 147.212C127.903 147.592 128.098 148.043 128.217 148.535C128.337 149.027 128.377 149.549 128.336 150.065C128.318 150.374 128.267 150.677 128.185 150.967C128.165 151.075 128.128 151.176 128.077 151.264Z" fill="#FFFDFD"/>
<path d="M128.086 161.902C128.161 161.506 128.21 161.102 128.234 160.694C128.254 160.206 128.203 159.718 128.081 159.259C127.96 158.8 127.773 158.379 127.53 158.022C127.286 157.666 126.993 157.38 126.667 157.184C126.341 156.987 125.99 156.883 125.634 156.879C125.337 156.887 125.04 156.927 124.747 156.996C124.747 156.996 124.819 156.924 124.97 156.856C125.183 156.766 125.404 156.717 125.627 156.712C126.005 156.691 126.381 156.783 126.731 156.98C127.08 157.177 127.395 157.475 127.653 157.853C127.91 158.232 128.106 158.683 128.226 159.174C128.345 159.666 128.386 160.187 128.346 160.703C128.328 161.012 128.278 161.316 128.194 161.605C128.145 161.808 128.096 161.911 128.086 161.902Z" fill="#FFFDFD"/>
<path d="M129.972 164.995C129.926 164.995 129.886 157.834 129.886 149.004C129.886 140.175 129.926 133.014 129.972 133.014C130.018 133.014 130.06 140.17 130.06 149.004C130.06 157.838 130.021 164.995 129.972 164.995Z" fill="#FFFDFD"/>
<path d="M152.135 131.662H143.662C143.184 131.662 142.797 132.193 142.797 132.848V166.124C142.797 166.779 143.184 167.309 143.662 167.309H152.135C152.613 167.309 153 166.779 153 166.124V132.848C153 132.193 152.613 131.662 152.135 131.662Z" fill="#00100F"/>
<path d="M150.66 140.071C151.022 137.975 150.077 135.873 148.549 135.376C147.021 134.88 145.489 136.176 145.127 138.273C144.765 140.369 145.71 142.471 147.238 142.968C148.766 143.464 150.298 142.168 150.66 140.071Z" fill="#FF725E"/>
<path d="M149.909 152.479C151.019 150.956 151.019 148.486 149.909 146.962C148.799 145.439 146.999 145.439 145.888 146.962C144.778 148.486 144.778 150.956 145.888 152.479C146.999 154.002 148.799 154.002 149.909 152.479Z" fill="#E0E0E0"/>
<path d="M149.912 163.026C151.022 161.502 151.022 159.033 149.912 157.509C148.801 155.986 147.001 155.986 145.891 157.509C144.78 159.033 144.78 161.502 145.891 163.026C147.001 164.549 148.801 164.549 149.912 163.026Z" fill="#455A64"/>
<path d="M150.264 140.853C150.339 140.457 150.388 140.053 150.412 139.645C150.432 139.157 150.38 138.669 150.259 138.21C150.138 137.751 149.95 137.33 149.707 136.973C149.464 136.617 149.171 136.331 148.845 136.135C148.519 135.938 148.168 135.835 147.812 135.83C147.514 135.839 147.218 135.878 146.924 135.947C146.924 135.947 146.997 135.879 147.148 135.807C147.361 135.717 147.582 135.668 147.805 135.663C148.183 135.642 148.56 135.734 148.909 135.931C149.259 136.128 149.574 136.427 149.832 136.806C150.09 137.185 150.285 137.636 150.404 138.129C150.524 138.621 150.564 139.143 150.523 139.658C150.505 139.967 150.454 140.271 150.372 140.56C150.323 140.759 150.274 140.862 150.264 140.853Z" fill="#FFFDFD"/>
<path d="M150.267 151.264C150.337 150.865 150.385 150.46 150.412 150.051C150.432 149.564 150.38 149.076 150.259 148.617C150.139 148.158 149.951 147.738 149.708 147.381C149.466 147.025 149.173 146.739 148.847 146.542C148.522 146.346 148.171 146.241 147.815 146.236C147.516 146.245 147.219 146.284 146.924 146.353C146.992 146.289 147.068 146.242 147.148 146.214C147.361 146.123 147.582 146.075 147.805 146.069C148.183 146.049 148.56 146.14 148.909 146.337C149.259 146.535 149.574 146.833 149.832 147.212C150.09 147.592 150.285 148.043 150.404 148.535C150.524 149.027 150.564 149.549 150.523 150.065C150.507 150.374 150.456 150.678 150.372 150.967C150.35 151.073 150.315 151.174 150.267 151.264Z" fill="#FFFDFD"/>
<path d="M150.279 161.902C150.349 161.505 150.398 161.101 150.423 160.694C150.444 160.207 150.392 159.719 150.271 159.26C150.15 158.801 149.963 158.38 149.72 158.024C149.477 157.667 149.184 157.382 148.859 157.185C148.534 156.988 148.182 156.884 147.827 156.879C147.528 156.887 147.23 156.926 146.936 156.996C147.003 156.928 147.079 156.881 147.16 156.856C147.373 156.766 147.594 156.717 147.817 156.712C148.194 156.691 148.571 156.783 148.92 156.98C149.27 157.177 149.584 157.475 149.842 157.853C150.1 158.232 150.295 158.683 150.415 159.174C150.535 159.666 150.576 160.187 150.535 160.703C150.518 161.012 150.467 161.316 150.384 161.605C150.364 161.713 150.328 161.814 150.279 161.902Z" fill="#FFFDFD"/>
<path d="M152.166 164.995C152.116 164.995 152.08 157.834 152.08 149.004C152.08 140.175 152.116 133.014 152.166 133.014C152.215 133.014 152.251 140.17 152.251 149.004C152.251 157.838 152.212 164.995 152.166 164.995Z" fill="#FFFDFD"/>
<path d="M221.562 191.204L214.295 206.045C214.102 206.434 214 206.881 214 207.336C214 207.792 214.102 208.239 214.295 208.628L221.558 223.474C221.738 223.842 221.992 224.145 222.295 224.356C222.598 224.567 222.94 224.678 223.288 224.678H236.691C237.038 224.677 237.379 224.566 237.682 224.356C237.984 224.145 238.237 223.841 238.416 223.474L245.708 208.581C245.894 208.204 245.995 207.772 246 207.331C246.005 206.89 245.914 206.455 245.738 206.071L238.965 191.266C238.79 190.881 238.535 190.562 238.227 190.339C237.918 190.117 237.567 190 237.21 190H223.292C222.944 189.999 222.601 190.11 222.298 190.321C221.995 190.532 221.741 190.836 221.562 191.204Z" fill="#17282F"/>
<path d="M236.02 223.522H223.601C223.264 223.517 222.934 223.407 222.641 223.202C222.348 222.997 222.102 222.704 221.926 222.349L215.195 208.593C215.008 208.213 214.909 207.777 214.909 207.332C214.909 206.888 215.008 206.452 215.195 206.072L221.926 192.32C222.101 191.965 222.346 191.67 222.64 191.464C222.933 191.258 223.264 191.147 223.601 191.143H236.493C236.843 191.143 237.187 191.258 237.489 191.476C237.792 191.694 238.042 192.007 238.215 192.382L244.497 206.098C244.67 206.474 244.758 206.9 244.753 207.332C244.748 207.764 244.649 208.187 244.468 208.557L237.716 222.349C237.539 222.708 237.289 223.004 236.992 223.209C236.695 223.415 236.36 223.522 236.02 223.522ZM223.601 191.401C223.299 191.4 223.001 191.495 222.736 191.676C222.472 191.857 222.249 192.118 222.089 192.434L215.358 206.191C215.192 206.53 215.104 206.92 215.104 207.317C215.104 207.714 215.192 208.103 215.358 208.443L222.089 222.199C222.249 222.516 222.472 222.777 222.736 222.958C223.001 223.138 223.299 223.233 223.601 223.233H236.02C236.322 223.233 236.619 223.138 236.883 222.958C237.146 222.777 237.369 222.516 237.528 222.199L244.284 208.407C244.444 208.076 244.53 207.699 244.535 207.313C244.539 206.928 244.461 206.548 244.309 206.211L238.026 192.491C237.872 192.155 237.649 191.876 237.379 191.681C237.109 191.487 236.802 191.385 236.489 191.385L223.601 191.401Z" fill="white"/>
<path d="M229.771 221.883C230.114 221.883 230.391 221.54 230.391 221.118C230.391 220.696 230.114 220.354 229.771 220.354C229.429 220.354 229.151 220.696 229.151 221.118C229.151 221.54 229.429 221.883 229.771 221.883Z" fill="#E0E0E0"/>
<path d="M230.388 221.122C230.351 221.122 230.359 220.822 230.099 220.605C230.026 220.544 229.941 220.506 229.853 220.493C229.765 220.481 229.676 220.494 229.593 220.533C229.496 220.581 229.413 220.664 229.354 220.77C229.295 220.877 229.264 221.003 229.264 221.132C229.264 221.261 229.295 221.387 229.354 221.494C229.413 221.601 229.496 221.683 229.593 221.731C229.675 221.772 229.764 221.787 229.853 221.775C229.941 221.764 230.026 221.726 230.099 221.664C230.359 221.437 230.351 221.148 230.388 221.148C230.426 221.148 230.422 221.22 230.409 221.349C230.388 221.537 230.311 221.709 230.192 221.829C230.101 221.924 229.992 221.987 229.875 222.015C229.758 222.042 229.638 222.031 229.526 221.984C229.385 221.923 229.264 221.81 229.178 221.66C229.091 221.51 229.045 221.331 229.044 221.148C229.044 220.965 229.091 220.786 229.177 220.637C229.264 220.488 229.385 220.376 229.526 220.316C229.638 220.268 229.758 220.257 229.874 220.283C229.991 220.31 230.1 220.372 230.192 220.466C230.312 220.587 230.39 220.761 230.409 220.951C230.422 221.055 230.401 221.122 230.388 221.122Z" fill="#263238"/>
<path d="M225.504 204.647L224.938 205.913C224.914 205.969 224.876 206.015 224.829 206.042L223.326 206.848C223.236 206.897 223.165 206.986 223.127 207.097C223.089 207.209 223.087 207.334 223.121 207.447C223.137 207.506 223.163 207.559 223.197 207.605C223.231 207.651 223.273 207.687 223.318 207.713C223.364 207.738 223.414 207.752 223.464 207.754C223.514 207.755 223.564 207.744 223.611 207.721L225.194 206.941C225.229 206.922 225.261 206.894 225.286 206.858L225.856 206.037V208.274C225.861 208.313 225.861 208.353 225.856 208.392L224.943 211.094C224.928 211.139 224.922 211.188 224.925 211.236C224.929 211.284 224.942 211.331 224.964 211.371C224.985 211.412 225.014 211.446 225.048 211.469C225.083 211.493 225.121 211.506 225.16 211.507H225.441L224.989 214.452C224.975 214.528 224.976 214.607 224.991 214.683C225.006 214.759 225.035 214.83 225.075 214.89C225.116 214.95 225.166 214.998 225.224 215.03C225.281 215.063 225.344 215.079 225.407 215.077C225.496 215.075 225.582 215.039 225.653 214.973C225.724 214.907 225.776 214.815 225.801 214.71L226.53 211.833C226.543 211.779 226.569 211.732 226.604 211.696C226.639 211.66 226.682 211.638 226.727 211.631L227.095 211.58L227.845 214.607C227.876 214.738 227.944 214.852 228.037 214.927C228.13 215.001 228.242 215.033 228.352 215.015C228.419 215.004 228.484 214.975 228.542 214.931C228.6 214.886 228.649 214.827 228.687 214.757C228.725 214.687 228.75 214.608 228.761 214.525C228.771 214.442 228.768 214.357 228.75 214.276L228.193 211.652L228.725 211.606C228.761 211.602 228.797 211.588 228.828 211.565C228.859 211.541 228.886 211.51 228.906 211.472C228.926 211.434 228.938 211.391 228.942 211.346C228.947 211.301 228.942 211.256 228.93 211.213L228.712 210.448L230.069 210.077C230.131 210.057 230.185 210.008 230.218 209.94C230.25 209.873 230.26 209.792 230.245 209.715L229.948 208.217C229.934 208.149 229.901 208.09 229.855 208.051C229.809 208.011 229.753 207.993 229.696 208L229.089 208.077L229.11 207.215C229.112 207.15 229.131 207.088 229.164 207.039C229.197 206.989 229.243 206.955 229.294 206.941C229.663 206.832 230.513 206.569 230.735 206.259C230.97 205.902 231.183 205.524 231.372 205.128V208.692C231.372 208.735 231.363 208.778 231.347 208.816C231.027 209.637 230.748 210.48 230.509 211.342C230.509 211.6 230.509 213.212 230.547 214.142C230.55 214.318 230.609 214.486 230.71 214.611C230.812 214.735 230.948 214.806 231.091 214.808C231.237 214.806 231.376 214.732 231.478 214.603C231.58 214.475 231.637 214.301 231.636 214.121V211.389C231.635 211.336 231.645 211.285 231.665 211.239L232.239 209.994C232.267 209.948 232.306 209.914 232.351 209.896C232.395 209.878 232.443 209.876 232.488 209.892C232.533 209.908 232.573 209.939 232.603 209.983C232.634 210.027 232.653 210.081 232.658 210.139V211.761C232.652 211.798 232.652 211.837 232.658 211.874L233.454 214.318C233.483 214.41 233.529 214.492 233.588 214.559C233.647 214.625 233.718 214.674 233.795 214.701C233.872 214.728 233.953 214.732 234.032 214.714C234.111 214.696 234.185 214.656 234.249 214.597C234.343 214.508 234.411 214.385 234.443 214.246C234.476 214.106 234.471 213.958 234.429 213.822L233.743 211.626C233.722 211.562 233.722 211.49 233.743 211.425L233.83 211.089L236.264 210.386C236.324 210.369 236.376 210.324 236.409 210.261C236.443 210.197 236.455 210.12 236.444 210.046L236.117 207.979C236.108 207.913 236.081 207.853 236.04 207.809C235.998 207.766 235.946 207.742 235.891 207.742H234.819L234.903 206.218C234.924 205.808 234.828 205.402 234.63 205.071L233.981 204.043C233.877 203.868 233.741 203.725 233.584 203.626C233.426 203.528 233.253 203.476 233.077 203.475H231.72C231.55 203.48 231.384 203.539 231.238 203.645C231.091 203.75 230.969 203.9 230.882 204.079L230.212 205.37C230.186 205.425 230.146 205.467 230.099 205.489L229.152 205.954C229.104 205.979 229.051 205.982 229.002 205.964C228.952 205.946 228.909 205.908 228.88 205.856L228.151 204.559C228.084 204.445 227.996 204.352 227.894 204.287C227.792 204.222 227.679 204.188 227.565 204.187H226.132C226.003 204.187 225.877 204.229 225.767 204.31C225.656 204.391 225.565 204.508 225.504 204.647Z" fill="#E0E0E0"/>
<path d="M228.003 202.215C227.997 202.496 227.924 202.77 227.794 203C227.663 203.231 227.479 203.408 227.267 203.511C227.055 203.614 226.822 203.637 226.599 203.578C226.376 203.519 226.172 203.38 226.013 203.178C225.853 202.977 225.746 202.722 225.703 202.445C225.661 202.169 225.686 201.883 225.774 201.623C225.863 201.364 226.011 201.143 226.202 200.987C226.392 200.831 226.615 200.748 226.843 200.748C226.997 200.75 227.15 200.79 227.292 200.865C227.434 200.939 227.562 201.048 227.67 201.184C227.778 201.321 227.863 201.482 227.92 201.659C227.977 201.836 228.005 202.025 228.003 202.215Z" fill="#E0E0E0"/>
<path d="M233.813 201.134C233.807 201.432 233.73 201.721 233.592 201.965C233.453 202.209 233.259 202.398 233.034 202.507C232.81 202.615 232.564 202.64 232.327 202.577C232.091 202.514 231.875 202.367 231.707 202.153C231.538 201.94 231.424 201.67 231.38 201.377C231.335 201.084 231.362 200.781 231.456 200.507C231.551 200.232 231.708 199.998 231.91 199.834C232.112 199.67 232.348 199.583 232.59 199.584C232.917 199.595 233.228 199.763 233.457 200.052C233.685 200.342 233.813 200.73 233.813 201.134Z" fill="#E0E0E0"/>
<g opacity="0.3">
<path opacity="0.3" d="M223.292 190C222.944 189.999 222.601 190.11 222.298 190.321C221.995 190.532 221.741 190.836 221.562 191.204L214.295 206.045C214.102 206.434 214 206.881 214 207.336C214 207.792 214.102 208.239 214.295 208.628L221.558 223.474L237.202 190.01L223.292 190Z" fill="black"/>
</g>
<path d="M229.822 194.062C230.164 194.062 230.441 193.72 230.441 193.298C230.441 192.875 230.164 192.533 229.822 192.533C229.479 192.533 229.202 192.875 229.202 193.298C229.202 193.72 229.479 194.062 229.822 194.062Z" fill="#E0E0E0"/>
<path d="M230.439 193.303C230.406 193.303 230.414 192.998 230.15 192.787C230.077 192.725 229.992 192.687 229.904 192.675C229.815 192.664 229.726 192.679 229.643 192.719C229.546 192.767 229.463 192.85 229.405 192.957C229.346 193.064 229.315 193.19 229.315 193.319C229.315 193.448 229.346 193.574 229.405 193.68C229.463 193.787 229.546 193.87 229.643 193.918C229.726 193.957 229.816 193.97 229.904 193.958C229.992 193.945 230.077 193.907 230.15 193.846C230.414 193.618 230.406 193.303 230.439 193.329C230.473 193.355 230.473 193.396 230.46 193.525C230.441 193.716 230.363 193.889 230.242 194.011C230.151 194.104 230.042 194.167 229.925 194.193C229.809 194.219 229.689 194.208 229.576 194.161C229.436 194.101 229.314 193.988 229.228 193.839C229.142 193.69 229.095 193.512 229.095 193.329C229.096 193.145 229.142 192.967 229.228 192.817C229.315 192.667 229.436 192.554 229.576 192.492C229.689 192.445 229.809 192.435 229.926 192.462C230.042 192.489 230.151 192.553 230.242 192.647C230.361 192.768 230.439 192.939 230.46 193.128C230.473 193.231 230.452 193.303 230.439 193.303Z" fill="#263238"/>
<path d="M633.442 229.652H631.495V271.64H633.442V229.652Z" fill="#263238"/>
<path d="M231 224H229V266H231V224Z" fill="#263238"/>
<path d="M633.442 271.641C633.442 271.641 633.442 271.562 633.442 271.418C633.442 271.274 633.442 271.051 633.442 270.777C633.442 270.209 633.442 269.382 633.442 268.341C633.442 266.217 633.442 263.163 633.414 259.379C633.414 251.812 633.386 241.33 633.37 229.63L633.474 229.751H631.527C631.732 229.51 631.583 229.691 631.632 229.644V233.298C631.632 234.513 631.632 235.709 631.632 236.886C631.632 239.248 631.632 241.534 631.632 243.766C631.632 248.2 631.632 252.318 631.632 255.99C631.608 263.311 631.587 268.852 631.579 271.618L631.547 271.585H633.008H633.37H633.494H633.382H633.024H631.547H631.515V271.548C631.515 268.782 631.487 263.242 631.463 255.921C631.463 252.249 631.463 248.13 631.463 243.696C631.463 241.479 631.463 239.178 631.463 236.817V229.658C631.511 229.598 631.355 229.765 631.567 229.523H633.619V229.658C633.619 241.376 633.586 251.886 633.574 259.477C633.574 263.246 633.55 266.296 633.542 268.411C633.542 269.447 633.542 270.27 633.542 270.818C633.542 271.088 633.542 271.283 633.542 271.441C633.542 271.599 633.442 271.641 633.442 271.641Z" fill="#263238"/>
<path d="M633.948 282.093H630.978V271.611C630.978 271.388 631.055 271.174 631.191 271.016C631.327 270.858 631.512 270.77 631.705 270.77H633.222C633.415 270.77 633.599 270.858 633.736 271.016C633.872 271.174 633.948 271.388 633.948 271.611V282.093Z" fill="#263238"/>
<path d="M231.481 282H228.481V267.189C228.481 266.874 228.558 266.571 228.696 266.348C228.833 266.125 229.02 266 229.215 266H230.747C230.942 266 231.128 266.125 231.266 266.348C231.404 266.571 231.481 266.874 231.481 267.189V282Z" fill="#263238"/>
<path d="M648.036 211.642L631.969 194.054C631.438 193.472 630.599 193.499 630.097 194.115L614.909 212.72C614.406 213.335 614.43 214.306 614.961 214.888L631.028 232.476C631.56 233.058 632.398 233.031 632.901 232.415L648.089 213.81C648.591 213.194 648.568 212.224 648.036 211.642Z" fill="#17282F"/>
<path d="M631.862 230.644C631.386 230.646 630.927 230.434 630.582 230.054L616.617 214.789C616.499 214.659 616.403 214.504 616.337 214.331C616.27 214.159 616.234 213.973 616.229 213.785C616.225 213.596 616.253 213.408 616.311 213.232C616.369 213.056 616.457 212.895 616.569 212.758L629.771 196.586C629.939 196.381 630.141 196.215 630.364 196.1C630.587 195.984 630.828 195.921 631.073 195.913C631.317 195.905 631.561 195.953 631.789 196.054C632.018 196.156 632.227 196.308 632.404 196.503L645.915 211.293C646.093 211.488 646.236 211.721 646.336 211.98C646.435 212.239 646.49 212.517 646.497 212.801C646.504 213.084 646.462 213.366 646.375 213.63C646.287 213.895 646.156 214.137 645.988 214.343L633.215 229.989C633.04 230.198 632.829 230.364 632.597 230.477C632.364 230.59 632.114 230.646 631.862 230.644ZM630.718 229.886C630.879 230.061 631.069 230.198 631.275 230.288C631.482 230.378 631.702 230.42 631.923 230.412C632.141 230.405 632.357 230.349 632.556 230.246C632.756 230.143 632.936 229.996 633.087 229.812L645.859 214.166C646.162 213.794 646.324 213.298 646.311 212.788C646.299 212.277 646.112 211.793 645.791 211.442L632.264 196.661C631.944 196.31 631.517 196.121 631.076 196.135C630.636 196.149 630.218 196.365 629.916 196.735L616.713 212.906C616.525 213.139 616.423 213.448 616.431 213.766C616.439 214.085 616.554 214.387 616.754 214.608L630.718 229.886Z" fill="white"/>
<path d="M634.712 222.368H633.143V213.959C633.141 213.039 632.824 212.158 632.262 211.508C631.7 210.858 630.938 210.493 630.144 210.491H626.026V208.674H630.144C631.355 208.674 632.516 209.23 633.373 210.221C634.229 211.213 634.711 212.557 634.712 213.959V222.368Z" fill="white"/>
<path d="M629.663 206.238V212.56L624.268 209.58L629.663 206.238Z" fill="white"/>
<g opacity="0.3">
<path opacity="0.3" d="M629.877 194.38L615.113 212.466C614.816 212.831 614.656 213.318 614.668 213.82C614.68 214.322 614.863 214.798 615.178 215.143L630.792 232.24C630.931 232.405 631.097 232.536 631.28 232.625C631.464 232.713 631.661 232.758 631.86 232.756C632.426 232.663 631.129 193.794 631.129 193.794C630.896 193.77 630.66 193.81 630.442 193.912C630.224 194.014 630.031 194.174 629.877 194.38Z" fill="black"/>
</g>
<mask id="path-41-inside-1_7390_906" fill="white">
<path d="M210.065 254.045C210.453 254.331 210.8 254.735 211.085 255.232C211.37 255.729 211.587 256.309 211.722 256.938C211.99 258.201 212.066 259.541 211.943 260.856C211.756 263.396 210.82 265.969 209.824 268C208.434 266.132 208.128 262.867 208.018 261.202C207.87 258.59 208.637 253.654 210.078 254.019"/>
</mask>
<path d="M211.722 256.938L212.211 256.834L212.211 256.833L211.722 256.938ZM211.943 260.856L211.445 260.81L211.444 260.82L211.943 260.856ZM209.824 268L209.423 268.299L209.912 268.956L210.273 268.22L209.824 268ZM208.018 261.202L207.519 261.231L207.519 261.235L208.018 261.202ZM209.769 254.448C210.092 254.686 210.395 255.032 210.651 255.48L211.519 254.983C211.206 254.437 210.815 253.977 210.362 253.643L209.769 254.448ZM210.651 255.48C210.907 255.927 211.107 256.459 211.234 257.044L212.211 256.833C212.066 256.159 211.832 255.53 211.519 254.983L210.651 255.48ZM211.233 257.042C211.49 258.254 211.563 259.544 211.445 260.81L212.441 260.903C212.568 259.539 212.49 258.147 212.211 256.834L211.233 257.042ZM211.444 260.82C211.264 263.272 210.356 265.779 209.375 267.78L210.273 268.22C211.283 266.159 212.248 263.521 212.441 260.893L211.444 260.82ZM210.225 267.701C209.594 266.854 209.189 265.655 208.93 264.423C208.674 263.2 208.572 261.995 208.517 261.169L207.519 261.235C207.575 262.075 207.68 263.335 207.952 264.628C208.221 265.911 208.663 267.278 209.423 268.299L210.225 267.701ZM208.517 261.174C208.446 259.917 208.596 258.078 208.939 256.608C209.112 255.868 209.324 255.263 209.556 254.878C209.808 254.459 209.944 254.501 209.955 254.504L210.201 253.535C209.492 253.355 208.991 253.877 208.699 254.362C208.387 254.881 208.146 255.605 207.965 256.381C207.601 257.94 207.442 259.875 207.519 261.231L208.517 261.174Z" fill="#747778" mask="url(#path-41-inside-1_7390_906)"/>
<mask id="path-43-inside-2_7390_906" fill="white">
<path d="M211.051 272.931C210.974 272.059 211 271.156 211.125 270.314C211.25 269.472 211.47 268.72 211.763 268.136C212.06 267.561 212.403 267.127 212.773 266.858C213.144 266.589 213.533 266.491 213.92 266.569C214.1 266.564 214.278 266.649 214.442 266.818C214.606 266.988 214.751 267.237 214.869 267.548C214.955 267.879 215 268.257 215 268.641C215 269.026 214.955 269.404 214.869 269.734C214.697 270.389 214.454 270.929 214.163 271.301C213.191 272.696 212.137 273.652 211.038 272.868"/>
</mask>
<path d="M211.763 268.136L211.319 267.907L211.316 267.912L211.763 268.136ZM213.92 266.569L213.821 267.059L213.877 267.07L213.934 267.069L213.92 266.569ZM214.869 267.548L215.353 267.423L215.346 267.397L215.337 267.372L214.869 267.548ZM215 268.641H215.5H215ZM214.869 269.734L215.352 269.861L215.353 269.86L214.869 269.734ZM214.163 271.301L213.769 270.993L213.761 271.004L213.753 271.015L214.163 271.301ZM211.549 272.887C211.476 272.053 211.5 271.189 211.619 270.387L210.63 270.24C210.499 271.122 210.473 272.065 210.553 272.975L211.549 272.887ZM211.619 270.387C211.739 269.583 211.947 268.885 212.21 268.36L211.316 267.912C210.994 268.555 210.761 269.361 210.63 270.24L211.619 270.387ZM212.208 268.365C212.482 267.833 212.781 267.471 213.067 267.263L212.479 266.454C212.025 266.783 211.637 267.29 211.319 267.907L212.208 268.365ZM213.067 267.263C213.344 267.062 213.594 267.013 213.821 267.059L214.019 266.079C213.473 265.969 212.943 266.117 212.479 266.454L213.067 267.263ZM213.934 267.069C213.938 267.069 213.949 267.069 213.971 267.08C213.995 267.091 214.034 267.116 214.083 267.166L214.801 266.471C214.572 266.234 214.267 266.059 213.907 266.069L213.934 267.069ZM214.083 267.166C214.183 267.27 214.298 267.452 214.401 267.725L215.337 267.372C215.204 267.021 215.028 266.705 214.801 266.471L214.083 267.166ZM214.385 267.674C214.459 267.959 214.5 268.294 214.5 268.641H215.5C215.5 268.219 215.45 267.799 215.353 267.423L214.385 267.674ZM214.5 268.641C214.5 268.989 214.459 269.324 214.385 269.609L215.353 269.86C215.45 269.483 215.5 269.063 215.5 268.641H214.5ZM214.385 269.608C214.224 270.222 214.004 270.693 213.769 270.993L214.557 271.609C214.904 271.165 215.171 270.555 215.352 269.861L214.385 269.608ZM213.753 271.015C213.274 271.702 212.817 272.215 212.39 272.473C212.184 272.598 212.006 272.649 211.851 272.65C211.7 272.651 211.529 272.604 211.328 272.461L210.747 273.275C211.096 273.524 211.468 273.652 211.855 273.65C212.237 273.648 212.59 273.521 212.906 273.33C213.524 272.957 214.08 272.295 214.574 271.587L213.753 271.015Z" fill="#747778" mask="url(#path-43-inside-2_7390_906)"/>
<path d="M209.613 282.286C209.619 282.075 209.633 281.866 209.654 281.66C209.688 281.221 209.736 280.649 209.791 279.967C209.915 278.08 210.173 276.251 210.554 274.553C210.955 272.854 211.546 271.429 212.266 270.424C212.483 270.137 212.713 269.904 212.951 269.727C213.033 269.664 213.105 269.641 213.149 269.61C213.173 269.599 213.198 269.599 213.221 269.61C212.899 269.867 212.588 270.195 212.294 270.589C211.602 271.614 211.035 273.024 210.647 274.687C210.271 276.366 210.006 278.164 209.863 280.022C209.794 280.735 209.739 281.307 209.698 281.707C209.678 281.906 209.649 282.1 209.613 282.286Z" fill="#747778"/>
<path d="M209.655 255.744C209.659 255.835 209.659 255.927 209.655 256.018L209.676 256.802C209.676 257.483 209.707 258.471 209.724 259.693C209.758 262.137 209.785 265.522 209.779 269.251C209.772 272.981 209.734 276.366 209.69 278.81C209.666 280.032 209.645 281.019 209.628 281.701C209.628 282.022 209.628 282.281 209.604 282.485C209.607 282.576 209.607 282.668 209.604 282.759C209.599 282.668 209.599 282.576 209.604 282.485C209.604 282.281 209.604 282.022 209.604 281.701C209.604 280.996 209.621 280.009 209.635 278.81C209.659 276.366 209.69 272.989 209.696 269.259C209.703 265.53 209.696 262.153 209.669 259.709C209.669 258.51 209.669 257.523 209.652 256.81C209.652 256.488 209.652 256.23 209.652 256.026C209.648 255.932 209.649 255.837 209.655 255.744Z" fill="#747778"/>
<mask id="path-47-inside-3_7390_906" fill="white">
<path d="M209.11 274.793C208.974 272.947 208.648 271.202 208.159 269.703C207.669 268.204 207.03 266.994 206.295 266.174C205.922 265.767 205.429 265.493 205.121 266.174C204.813 266.856 204.881 267.961 205.035 268.854C205.364 270.698 205.924 272.278 206.645 273.394C207.366 274.51 208.215 275.111 209.086 275.122"/>
</mask>
<path d="M206.295 266.174L206.668 265.841L206.664 265.837L206.295 266.174ZM205.035 268.854L204.543 268.939L204.543 268.942L205.035 268.854ZM209.608 274.756C209.47 272.877 209.138 271.092 208.634 269.548L207.683 269.859C208.158 271.313 208.478 273.017 208.611 274.829L209.608 274.756ZM208.634 269.548C208.132 268.009 207.464 266.73 206.668 265.841L205.923 266.508C206.596 267.259 207.207 268.399 207.683 269.859L208.634 269.548ZM206.664 265.837C206.465 265.619 206.15 265.336 205.765 265.273C205.547 265.237 205.315 265.273 205.104 265.414C204.905 265.547 204.766 265.746 204.665 265.968L205.577 266.38C205.63 266.262 205.668 266.24 205.66 266.245C205.655 266.249 205.643 266.255 205.627 266.258C205.62 266.259 205.614 266.26 205.609 266.26C205.605 266.26 205.602 266.259 205.603 266.259C205.607 266.26 205.644 266.269 205.711 266.317C205.776 266.362 205.85 266.428 205.927 266.512L206.664 265.837ZM204.665 265.968C204.469 266.403 204.407 266.931 204.405 267.433C204.403 267.943 204.462 268.473 204.543 268.939L205.528 268.769C205.454 268.342 205.403 267.873 205.405 267.437C205.407 266.993 205.465 266.628 205.577 266.38L204.665 265.968ZM204.543 268.942C204.879 270.827 205.456 272.476 206.225 273.665L207.065 273.123C206.392 272.081 205.849 270.57 205.528 268.766L204.543 268.942ZM206.225 273.665C206.987 274.844 207.966 275.608 209.079 275.622L209.092 274.622C208.464 274.614 207.745 274.176 207.065 273.123L206.225 273.665Z" fill="#747778" mask="url(#path-47-inside-3_7390_906)"/>
<path d="M206.468 269.049C206.552 269.107 206.632 269.186 206.708 269.284C206.801 269.377 206.89 269.487 206.975 269.613C207.093 269.761 207.208 269.926 207.317 270.107C207.452 270.316 207.583 270.541 207.708 270.78C207.848 271.031 207.982 271.329 208.125 271.642C208.427 272.354 208.692 273.143 208.916 273.993C209.136 274.844 209.312 275.751 209.44 276.696C209.495 277.107 209.54 277.526 209.574 277.949C209.605 278.317 209.627 278.688 209.639 279.062C209.659 279.407 209.639 279.72 209.659 279.986C209.665 280.219 209.665 280.451 209.659 280.684C209.657 280.883 209.648 281.083 209.632 281.279C209.608 281.279 209.632 280.425 209.58 279.077C209.564 278.711 209.538 278.347 209.502 277.988C209.467 277.572 209.421 277.162 209.365 276.758C209.235 275.834 209.06 274.946 208.844 274.11C208.624 273.28 208.364 272.508 208.071 271.807C207.943 271.5 207.808 271.21 207.667 270.937C207.545 270.691 207.419 270.461 207.287 270.248C206.811 269.441 206.468 269.088 206.468 269.049Z" fill="#747778"/>
<path d="M45.8301 222.809C47.0558 242.819 48.2837 262.826 49.514 282.831L50.4726 282.902C49.8598 262.547 49.2093 241.722 45.8301 222.809Z" fill="#747778"/>
<path d="M56.0606 220C53.486 226.456 52.452 235.325 51.8015 243.928C50.8771 256.134 50.7915 270.566 51.0689 282.906L52.4144 282.977C51.8817 261.646 53.1189 240.277 56.0606 220Z" fill="#747778"/>
<path d="M46.2838 260.455C45.9955 257.719 45.6637 254.94 44.943 252.614C43.9609 249.468 42.362 247.48 40.7531 245.932C39.1441 244.384 37.4547 243.146 36 241C37.6223 246.71 41.3028 248.2 43.1765 253.572C44.1084 256.229 44.4972 259.563 44.8525 262.796C45.6469 269.845 46.1397 275.951 46.9341 283H48C47.6531 275.414 47.0798 267.884 46.2838 260.455Z" fill="#747778"/>
<path d="M53 283C53 283 53.9566 264.097 54.6653 260.629C55.3739 257.162 62.0633 247.579 61.9995 248.014C61.9358 248.449 56.9789 258.964 56.2739 261.108C55.5688 263.251 54.3428 283 54.3428 283H53Z" fill="#747778"/>
</svg>
