<svg width="721" height="336" viewBox="0 0 721 336" fill="none" xmlns="http://www.w3.org/2000/svg">
<path d="M714.15 236.686L713.186 234.584C713.013 234.212 711.109 234.542 710.812 234.542C709.476 234.542 709.822 234.047 709.822 231.864C709.822 230.832 708.24 231.369 707.721 231.369C706.534 231.369 707.771 233.554 707.227 234.542C706.978 235.037 704.753 234.542 704.357 234.542C703.689 234.542 703.492 234.914 703.492 233.842V218.054C703.492 216.529 702.873 212.447 704.283 212.984C703.245 209.811 701.538 206.842 700.228 203.915C698.867 200.907 697.507 197.938 696.171 194.929C694.737 198.103 693.302 201.237 691.892 204.41C690.632 207.172 689.05 209.973 688.036 212.984C689.395 212.447 688.851 215.662 688.851 217.148V228.112C688.851 228.976 689.247 233.759 688.851 234.377C688.604 234.749 686.997 234.377 686.724 234.377H684.326C684.178 234.377 684.425 231.369 684.226 231.369H681.878C681.68 231.369 681.977 234.377 681.778 234.377H679.107C678.094 234.377 677.08 237.964 676.512 239.241C675.596 241.303 674.656 243.404 673.717 245.506V182.645C673.717 181.697 673.048 182.15 672.554 182.15C671.343 182.15 671.391 182.399 671.391 180.42V169.991C671.391 168.175 670.453 168.877 669.537 168.877H665.902C665.259 168.877 665.605 164.219 665.605 163.27V133.714C665.605 133.591 663.157 133.675 662.91 133.675C662.069 133.675 662.49 130.664 662.49 129.469C662.49 129.265 659.869 129.388 659.596 129.388C658.062 129.388 658.433 129.841 658.433 132.355C658.433 134.21 658.062 133.675 656.975 133.675H652.82C652.053 133.675 652.4 132.066 652.4 130.994V124.852C652.4 124.729 649.902 124.771 649.629 124.771C649.235 124.771 649.456 120.73 649.456 120.031C649.456 118.547 649.58 118.587 648.765 118.587H638.352C638.304 118.587 638.328 122.958 638.328 123.327C638.328 125.554 637.611 124.771 636.35 124.771C635.137 124.771 635.36 124.894 635.36 126.914V133.468C635.36 133.921 633.53 133.675 633.259 133.675H629.449C629.202 133.675 629.325 130.046 629.325 129.469C629.325 129.265 626.433 129.388 626.136 129.388C624.875 129.388 625.296 130.337 625.296 132.355C625.296 133.387 625.469 133.675 624.875 133.675H622.872C622.179 133.675 622.179 133.426 622.179 134.498V168.671C622.179 169.124 618.05 168.877 617.381 168.877C616.046 168.877 616.367 169.412 616.367 171.474V177.244C616.367 178.028 616.689 181.573 616.367 182.15C616.146 182.603 614.068 181.655 614.068 182.315V192.909C602.642 177.698 584.638 178.028 573.51 193.897V100.286C573.51 98.3889 571.359 99.4187 570.469 99.4187C570.271 99.4187 570.568 97.524 570.419 97.2752C570.295 97.0706 569.182 97.2752 568.985 97.2752C568.614 97.2752 567.921 97.524 567.575 97.2752C567.451 97.2357 567.698 96.4104 567.501 96.4104H540.941C540.421 96.4104 540.397 97.2752 540.397 97.2752C540.026 97.2752 537.603 97.1102 537.603 97.4403C537.603 98.0192 537.8 99.4187 537.405 99.4187H535.525C535.155 99.4187 534.511 99.0491 534.511 99.7907V163.065C533.844 161.126 533.175 159.232 532.508 157.295C532.261 156.635 531.221 152.594 530.753 152.594H526.152C525.658 152.594 525.262 152.925 525.262 152.06C525.262 150.616 525.435 150.451 524.594 150.451H522.467C522.097 150.451 522.27 151.523 522.27 152.06C522.27 152.925 521.874 152.594 521.38 152.594H504.316C504.291 152.594 504.291 150.823 504.291 150.616C504.291 150.286 503.476 150.451 503.302 150.451H501.349C501.249 150.451 501.299 152.183 501.299 152.429C501.299 152.759 499.122 152.594 498.851 152.594C498.182 152.594 496.303 152.018 495.71 152.594C495.413 152.883 495.14 154.243 494.967 154.698C492.693 161.21 490.442 167.764 488.167 174.278C488.884 174.278 489.577 173.66 489.577 175.02V203.75C489.577 204.615 485.224 204.122 484.556 204.122C484.383 204.122 483.692 204.326 483.692 203.996C483.692 203.708 483.765 202.018 483.642 202.018C483.146 202.018 480.995 201.525 480.698 202.018C480.599 202.225 480.822 204.122 480.674 204.122H475.679C475.135 204.122 475.406 197.568 475.406 196.043V46.2454C475.406 45.5433 475.53 36.0208 475.283 36.0208C474.442 36.0208 474.516 36.1464 474.516 34.784V31.9826C474.516 31.5711 473.848 30.7877 473.699 30.5389C470.213 24.8501 466.726 19.203 463.238 13.5142C462.472 12.2774 460.271 13.0214 459.133 13.1027V5.88879H455.968V0H443.283V5.88879H440.116V13.1027C438.905 13.0609 436.802 12.2379 435.912 13.6793C434.23 16.3993 432.549 19.1217 430.892 21.8417C429.062 24.8105 427.232 27.777 425.403 30.7458C424.957 31.4456 424.71 31.6106 424.71 32.6405V35.693C424.71 36.5997 424.092 35.5675 423.844 36.0208C423.547 36.5578 423.844 39.4848 423.844 40.3915V175.185C423.844 177.286 424.042 191.837 423.622 191.837H394.662C393.624 191.837 394.612 185.407 394.218 185.407C393.624 185.407 388.183 185.449 388.183 185.326V153.296C388.183 151.73 387.713 147.689 388.307 146.287C389.667 142.949 391.003 139.652 392.363 136.311C393.055 134.624 392.561 130.541 392.561 128.605V107.416C392.561 106.758 392.858 103.048 392.561 102.553C392.214 102.057 390.113 102.553 389.667 102.553C388.85 102.553 387.442 103.048 387.119 102.099C386.773 101.069 387.119 98.2238 387.119 96.987C387.119 96.8219 381.333 96.9056 380.764 96.9056C379.824 96.9056 379.8 97.1102 379.8 95.5851V89.98C379.8 89.8149 376.981 89.8986 376.659 89.8986C376.238 89.8986 376.461 86.1463 376.461 85.4861C376.461 82.8497 376.288 83.4263 374.705 83.4263C373.271 83.4263 373.32 83.0961 373.32 85.4861C373.32 85.9417 373.42 89.8986 373.247 89.8986H353.783C353.586 89.8986 353.686 86.4764 353.686 86.0649C353.686 83.3844 353.933 83.4263 352.299 83.4263C351.039 83.4263 350.569 82.7242 350.569 84.9095C350.569 85.6511 350.792 89.8986 350.371 89.8986C349.802 89.8986 347.601 89.3197 347.206 89.8986C346.86 90.4333 347.206 94.7202 347.206 95.5851C347.206 96.9056 347.304 96.9056 346.489 96.9056H342.334C341.962 96.9056 340.182 96.4941 339.885 96.9056C339.391 97.7286 340.257 101.027 339.885 102.099C339.588 102.964 338.476 102.553 337.71 102.553C337.19 102.553 334.84 101.976 334.469 102.553C334.198 102.964 334.469 106.263 334.469 106.84V134.21C334.469 134.786 334.371 135.612 334.569 136.107C335.929 139.445 337.289 142.742 338.65 146.083C339.02 146.989 338.847 148.719 338.847 149.793V207.253C338.847 207.667 332.145 207.46 331.601 207.46H300.269C299.229 207.46 298.339 208.16 298.339 206.265C298.339 204.945 296.188 205.605 295.52 205.605C295.371 205.605 294.481 205.44 294.383 205.605C294.283 205.812 294.481 207.46 294.357 207.46H290.895C290.202 207.46 288.744 206.965 288.125 207.46C287.408 207.995 286.617 210.594 286.121 211.582C285.53 212.819 284.936 214.014 284.366 215.251V95.8338C284.366 93.8554 283.922 94.597 282.636 94.597C281.424 94.597 282.907 92.0421 281.622 92.0421C281.251 92.0421 280.409 92.2885 280.088 92.0421C279.965 91.9165 280.261 90.9285 280.014 90.9285H260.724C260.453 90.9285 260.824 92.0421 260.577 92.0421H258.846C258.029 92.0421 259.216 94.597 258.103 94.597C256.496 94.597 256.372 93.9787 256.372 96.3686V176.173C256.372 177.74 253.899 177.286 253.899 176.173C253.899 175.308 254.195 171.721 253.628 171.721H249.917C248.483 171.721 248.656 171.598 248.656 174.029C248.656 176.05 249.052 176.875 247.816 176.875C247.569 176.875 244.601 176.875 244.601 176.875V48.8817C244.601 48.0983 243.091 48.554 242.721 48.554C241.46 48.554 241.93 47.1102 241.93 45.1736C241.93 44.6366 239.456 45.5433 239.456 44.8017C239.456 43.4835 239.58 43.523 238.889 43.523H217.101C216.953 43.523 216.063 43.3184 215.938 43.523C215.691 43.9763 216.284 45.0481 215.74 45.0481H213.936C212.872 45.0481 213.812 48.554 213.416 48.554C213.143 48.554 210.819 48.5121 210.819 48.5935V174.524C210.819 177.533 210.695 176.875 208.742 176.875H199.37C198.701 176.875 197.787 177.451 197.787 176.173C197.787 175.308 198.108 171.721 197.514 171.721H193.805C192.371 171.721 192.544 171.598 192.544 174.029C192.544 175.473 192.939 176.875 191.975 176.875H187.77C187.376 176.875 186.015 176.503 185.743 176.998C184.309 179.595 182.874 182.192 181.415 184.747V167.352C181.811 168.094 182.231 168.836 182.627 169.577C182.998 168.754 184.531 166.527 184.037 165.62C183.344 164.342 182.677 163.065 181.984 161.829C179.214 156.677 176.469 151.564 173.7 146.452C169.297 138.292 164.895 130.13 160.493 122.009C156.116 130.13 151.715 138.292 147.312 146.452C144.543 151.564 141.773 156.677 139.028 161.829C138.336 163.065 137.643 164.342 136.975 165.62C136.481 166.527 138.138 168.424 138.558 169.166C138.855 168.629 139.127 168.094 139.424 167.559V213.644C136.629 210.138 134.033 206.017 131.337 202.225C130.472 201.03 129.779 199.298 128.617 199.298H121.94C121.074 199.298 109.228 199.34 109.228 199.298V168.382C109.228 168.217 114.421 168.259 115.015 168.259C112.591 163.23 110.168 158.16 107.744 153.131C104.109 145.546 100.474 137.962 96.8137 130.376C95.5522 127.698 94.2665 125.059 92.9806 122.379C92.6591 121.721 92.1153 119.907 91.5713 119.907H80.7395C79.8239 119.907 80.0966 119.494 80.0966 117.927C80.0966 115.99 79.8491 116.485 78.7361 116.485H71.8364C71.7373 116.485 71.9354 119.907 71.7625 119.907H65.0852C64.4172 119.907 60.5101 119.082 60.0896 119.947C57.9628 124.399 55.811 128.851 53.6842 133.303C48.0953 144.969 42.5066 156.593 36.9177 168.259C38.6239 168.259 40.3302 168.301 42.0366 168.301C42.7541 168.301 42.6795 168.175 42.6795 169.373V218.673C42.6795 219.414 43.026 223.371 42.6795 223.948C42.4074 224.443 40.2563 223.948 39.8602 223.948H35.9776C35.1863 223.948 35.2609 223.825 35.2609 225.143V241.675C33.3314 239.859 31.4027 238.046 29.4489 236.274C28.1631 235.037 26.8529 233.842 25.5419 232.606C25.3684 232.44 24.429 231.285 24.2554 231.45C24.1952 231.508 24.1351 231.564 24.0743 231.62V184.477H0V260.152H0.00313314V332.612H2.04781V335H719.195V252.432C719.195 251.732 720.654 252.143 721 252.143C718.725 246.992 716.425 241.837 714.15 236.686Z" fill="#99D1CE"/>
<path d="M0 334.852H0.575227H2.2725L8.79883 334.833L32.8731 334.802L112.822 334.772L112.638 334.871V330.049L112.822 330.148L32.866 330.129L8.79883 330.099L2.2725 330.08H0.575227H0C0 330.08 0.191743 330.08 0.575227 330.08H2.2725L8.79883 330.061L32.866 330.03L112.822 330H113V335H112.815L32.866 334.97L8.79173 334.939H2.2654H0.568126L0 334.852Z" fill="#263238"/>
<path d="M719 334.939H715.915H706.773H671.653L542.1 334.969L111.966 335H111V330H111.966L542.138 330.031L671.653 330.061L706.773 330.08H715.915H719H715.915H706.773L671.653 330.1L542.138 330.13L111.966 330.161L112.932 330.061V334.9L111.966 334.801L542.1 334.832L671.653 334.862L706.773 334.881H715.915L719 334.939Z" fill="#263238"/>
<path d="M689 334.939H686.829H680.393H655.67L564.472 334.969L261.68 335H261V330H261.68L564.498 330.031L655.67 330.061L680.393 330.08L655.67 330.1L564.498 330.13L261.68 330.161L262.36 330.061V334.9L261.68 334.801L564.472 334.832L655.67 334.862L680.393 334.881H686.829L689 334.939Z" fill="#263238"/>
<path d="M719 334.939H717.6H713.45H697.507L638.697 334.969L443.439 335H443V330H443.439L638.714 330.031L697.507 330.061L713.45 330.08L697.507 330.1L638.714 330.13L443.439 330.161L443.877 330.061V334.9L443.439 334.801L638.697 334.832L697.507 334.862L713.45 334.881H717.6L719 334.939Z" fill="#263238"/>
<path d="M153.328 188.172H75.3608V189.525H153.328V188.172Z" fill="#455A64"/>
<path d="M73.1825 177C72.896 176.999 72.6123 177.076 72.3475 177.226C72.0828 177.376 71.8421 177.596 71.6394 177.874C71.4367 178.152 71.2759 178.482 71.1662 178.845C71.0565 179.208 71 179.597 71 179.99V330.394H75.3617V179.99C75.3617 179.597 75.3053 179.208 75.1958 178.846C75.0863 178.483 74.9257 178.153 74.7234 177.876C74.521 177.598 74.2808 177.378 74.0164 177.228C73.752 177.077 73.4686 177 73.1825 177Z" fill="#263238"/>
<path d="M75.4033 250.064C75.3638 248.932 74.5355 222.105 85.5925 206.191C90.7496 198.76 97.675 194.994 106.175 194.994H153.67V196.798H106.158C98.0333 196.798 91.43 200.374 86.5326 207.427C75.8799 222.759 76.7049 249.708 76.7147 249.978L75.4033 250.064Z" fill="#455A64"/>
<path d="M130.946 179.662H122.472C121.995 179.662 121.608 180.193 121.608 180.848V214.124C121.608 214.779 121.995 215.309 122.472 215.309H130.946C131.423 215.309 131.81 214.779 131.81 214.124V180.848C131.81 180.193 131.423 179.662 130.946 179.662Z" fill="#263238"/>
<path d="M129.473 188.064C129.835 185.967 128.89 183.865 127.362 183.369C125.834 182.872 124.302 184.169 123.94 186.265C123.578 188.361 124.523 190.463 126.051 190.96C127.579 191.457 129.111 190.16 129.473 188.064Z" fill="#FF725E"/>
<path d="M128.72 200.479C129.83 198.956 129.83 196.486 128.72 194.963C127.609 193.439 125.809 193.439 124.699 194.962C123.589 196.486 123.589 198.956 124.699 200.479C125.809 202.002 127.609 202.002 128.72 200.479Z" fill="#E0E0E0"/>
<path d="M128.72 211.026C129.83 209.502 129.83 207.033 128.72 205.509C127.609 203.986 125.809 203.986 124.699 205.509C123.589 207.033 123.589 209.502 124.699 211.026C125.809 212.549 127.609 212.549 128.72 211.026Z" fill="#455A64"/>
<path d="M129.077 188.852C129.152 188.456 129.201 188.052 129.225 187.644C129.245 187.156 129.193 186.668 129.072 186.209C128.951 185.75 128.763 185.329 128.52 184.972C128.277 184.616 127.984 184.33 127.658 184.134C127.332 183.937 126.981 183.834 126.625 183.829C126.327 183.837 126.031 183.877 125.737 183.946C125.737 183.946 125.81 183.879 125.961 183.806C126.174 183.716 126.395 183.667 126.618 183.662C126.995 183.645 127.371 183.739 127.719 183.938C128.068 184.136 128.382 184.435 128.639 184.813C128.897 185.191 129.093 185.641 129.214 186.131C129.334 186.622 129.377 187.142 129.34 187.657C129.321 187.967 129.27 188.27 129.189 188.559C129.133 188.758 129.087 188.861 129.077 188.852Z" fill="white"/>
<path d="M129.077 199.264C129.151 198.866 129.2 198.46 129.225 198.051C129.245 197.564 129.193 197.075 129.072 196.616C128.951 196.157 128.763 195.736 128.52 195.38C128.277 195.023 127.984 194.738 127.658 194.541C127.332 194.345 126.981 194.241 126.625 194.236C126.327 194.245 126.031 194.284 125.737 194.353C125.805 194.289 125.881 194.242 125.961 194.214C126.174 194.123 126.395 194.074 126.618 194.069C126.996 194.049 127.373 194.14 127.722 194.337C128.072 194.535 128.387 194.833 128.645 195.212C128.903 195.592 129.098 196.043 129.217 196.535C129.337 197.027 129.377 197.549 129.336 198.065C129.318 198.374 129.267 198.677 129.185 198.967C129.165 199.075 129.128 199.176 129.077 199.264Z" fill="white"/>
<path d="M129.086 209.902C129.161 209.506 129.21 209.102 129.234 208.694C129.254 208.206 129.203 207.718 129.081 207.259C128.96 206.8 128.773 206.379 128.53 206.022C128.286 205.666 127.993 205.38 127.667 205.184C127.341 204.987 126.99 204.883 126.634 204.879C126.337 204.887 126.04 204.927 125.747 204.996C125.747 204.996 125.819 204.924 125.97 204.856C126.183 204.766 126.404 204.717 126.627 204.712C127.005 204.691 127.381 204.783 127.731 204.98C128.08 205.177 128.395 205.475 128.653 205.853C128.91 206.232 129.106 206.683 129.226 207.174C129.345 207.666 129.386 208.187 129.346 208.703C129.328 209.012 129.278 209.316 129.194 209.605C129.145 209.808 129.096 209.911 129.086 209.902Z" fill="white"/>
<path d="M130.972 212.995C130.926 212.995 130.886 205.834 130.886 197.004C130.886 188.175 130.926 181.014 130.972 181.014C131.018 181.014 131.06 188.17 131.06 197.004C131.06 205.838 131.021 212.995 130.972 212.995Z" fill="white"/>
<path d="M153.135 179.662H144.662C144.184 179.662 143.797 180.193 143.797 180.848V214.124C143.797 214.779 144.184 215.309 144.662 215.309H153.135C153.613 215.309 154 214.779 154 214.124V180.848C154 180.193 153.613 179.662 153.135 179.662Z" fill="#263238"/>
<path d="M151.66 188.071C152.022 185.975 151.077 183.873 149.549 183.376C148.021 182.88 146.489 184.176 146.127 186.273C145.765 188.369 146.71 190.471 148.238 190.968C149.766 191.464 151.298 190.168 151.66 188.071Z" fill="#FF725E"/>
<path d="M150.909 200.479C152.019 198.956 152.019 196.486 150.909 194.962C149.799 193.439 147.999 193.439 146.888 194.962C145.778 196.486 145.778 198.956 146.888 200.479C147.999 202.002 149.799 202.002 150.909 200.479Z" fill="#E0E0E0"/>
<path d="M150.912 211.026C152.022 209.502 152.022 207.033 150.912 205.509C149.801 203.986 148.001 203.986 146.891 205.509C145.78 207.033 145.78 209.502 146.891 211.026C148.001 212.549 149.801 212.549 150.912 211.026Z" fill="#455A64"/>
<path d="M151.264 188.853C151.339 188.457 151.388 188.053 151.412 187.645C151.432 187.157 151.38 186.669 151.259 186.21C151.138 185.751 150.95 185.33 150.707 184.973C150.464 184.617 150.171 184.331 149.845 184.135C149.519 183.938 149.168 183.835 148.812 183.83C148.514 183.839 148.218 183.878 147.924 183.947C147.924 183.947 147.997 183.879 148.148 183.807C148.361 183.717 148.582 183.668 148.805 183.663C149.183 183.642 149.56 183.734 149.909 183.931C150.259 184.128 150.574 184.427 150.832 184.806C151.09 185.185 151.285 185.636 151.404 186.129C151.524 186.621 151.564 187.143 151.523 187.658C151.505 187.967 151.454 188.271 151.372 188.56C151.323 188.759 151.274 188.862 151.264 188.853Z" fill="white"/>
<path d="M151.267 199.264C151.337 198.865 151.385 198.46 151.412 198.051C151.432 197.564 151.38 197.076 151.259 196.617C151.139 196.158 150.951 195.738 150.708 195.381C150.466 195.025 150.173 194.739 149.847 194.542C149.522 194.346 149.171 194.241 148.815 194.236C148.516 194.245 148.219 194.284 147.924 194.353C147.992 194.289 148.068 194.242 148.148 194.214C148.361 194.123 148.582 194.075 148.805 194.069C149.183 194.049 149.56 194.14 149.909 194.337C150.259 194.535 150.574 194.833 150.832 195.212C151.09 195.592 151.285 196.043 151.404 196.535C151.524 197.027 151.564 197.549 151.523 198.065C151.507 198.374 151.456 198.678 151.372 198.967C151.35 199.073 151.315 199.174 151.267 199.264Z" fill="white"/>
<path d="M151.279 209.902C151.349 209.505 151.398 209.101 151.423 208.694C151.444 208.207 151.392 207.719 151.271 207.26C151.15 206.801 150.963 206.38 150.72 206.024C150.477 205.667 150.184 205.382 149.859 205.185C149.534 204.988 149.182 204.884 148.827 204.879C148.528 204.887 148.23 204.926 147.936 204.996C148.003 204.928 148.079 204.881 148.16 204.856C148.373 204.766 148.594 204.717 148.817 204.712C149.194 204.691 149.571 204.783 149.92 204.98C150.27 205.177 150.584 205.475 150.842 205.853C151.1 206.232 151.295 206.683 151.415 207.174C151.535 207.666 151.576 208.187 151.535 208.703C151.518 209.012 151.467 209.316 151.384 209.605C151.364 209.713 151.328 209.814 151.279 209.902Z" fill="white"/>
<path d="M153.166 212.995C153.116 212.995 153.08 205.834 153.08 197.004C153.08 188.175 153.116 181.014 153.166 181.014C153.215 181.014 153.251 188.17 153.251 197.004C153.251 205.838 153.212 212.995 153.166 212.995Z" fill="white"/>
<mask id="path-25-inside-1_7382_1619" fill="white">
<path d="M208.065 301.045C208.453 301.331 208.8 301.735 209.085 302.232C209.37 302.729 209.587 303.309 209.722 303.938C209.99 305.201 210.066 306.541 209.943 307.856C209.756 310.396 208.82 312.969 207.824 315C206.434 313.132 206.128 309.867 206.018 308.202C205.87 305.59 206.637 300.654 208.078 301.019"/>
</mask>
<path d="M209.722 303.938L210.211 303.834L210.211 303.833L209.722 303.938ZM209.943 307.856L209.445 307.81L209.444 307.82L209.943 307.856ZM207.824 315L207.423 315.299L207.912 315.956L208.273 315.22L207.824 315ZM206.018 308.202L205.519 308.231L205.519 308.235L206.018 308.202ZM207.769 301.448C208.092 301.686 208.395 302.032 208.651 302.48L209.519 301.983C209.206 301.437 208.815 300.977 208.362 300.643L207.769 301.448ZM208.651 302.48C208.907 302.927 209.107 303.459 209.234 304.044L210.211 303.833C210.066 303.159 209.832 302.53 209.519 301.983L208.651 302.48ZM209.233 304.042C209.49 305.254 209.563 306.544 209.445 307.81L210.441 307.903C210.568 306.539 210.49 305.147 210.211 303.834L209.233 304.042ZM209.444 307.82C209.264 310.272 208.356 312.779 207.375 314.78L208.273 315.22C209.283 313.159 210.248 310.521 210.441 307.893L209.444 307.82ZM208.225 314.701C207.594 313.854 207.189 312.655 206.93 311.423C206.674 310.2 206.572 308.995 206.517 308.169L205.519 308.235C205.575 309.075 205.68 310.335 205.952 311.628C206.221 312.911 206.663 314.278 207.423 315.299L208.225 314.701ZM206.517 308.174C206.446 306.917 206.596 305.078 206.939 303.608C207.112 302.868 207.324 302.263 207.556 301.878C207.808 301.459 207.944 301.501 207.955 301.504L208.201 300.535C207.492 300.355 206.991 300.877 206.699 301.362C206.387 301.881 206.146 302.605 205.965 303.381C205.601 304.94 205.442 306.875 205.519 308.231L206.517 308.174Z" fill="#666666" mask="url(#path-25-inside-1_7382_1619)"/>
<mask id="path-27-inside-2_7382_1619" fill="white">
<path d="M209.051 319.931C208.974 319.059 209 318.156 209.125 317.314C209.25 316.472 209.47 315.72 209.763 315.136C210.06 314.561 210.403 314.127 210.773 313.858C211.144 313.589 211.533 313.491 211.92 313.569C212.1 313.564 212.278 313.649 212.442 313.818C212.606 313.988 212.751 314.237 212.869 314.548C212.955 314.879 213 315.257 213 315.641C213 316.026 212.955 316.404 212.869 316.734C212.697 317.389 212.454 317.929 212.163 318.301C211.191 319.696 210.137 320.652 209.038 319.868"/>
</mask>
<path d="M209.763 315.136L209.319 314.907L209.316 314.912L209.763 315.136ZM211.92 313.569L211.821 314.059L211.877 314.07L211.934 314.069L211.92 313.569ZM212.869 314.548L213.353 314.423L213.346 314.397L213.337 314.372L212.869 314.548ZM213 315.641H213.5H213ZM212.869 316.734L213.352 316.861L213.353 316.86L212.869 316.734ZM212.163 318.301L211.769 317.993L211.761 318.004L211.753 318.015L212.163 318.301ZM209.549 319.887C209.476 319.053 209.5 318.189 209.619 317.387L208.63 317.24C208.499 318.122 208.473 319.065 208.553 319.975L209.549 319.887ZM209.619 317.387C209.739 316.583 209.947 315.885 210.21 315.36L209.316 314.912C208.994 315.555 208.761 316.361 208.63 317.24L209.619 317.387ZM210.208 315.365C210.482 314.833 210.781 314.471 211.067 314.263L210.479 313.454C210.025 313.783 209.637 314.29 209.319 314.907L210.208 315.365ZM211.067 314.263C211.344 314.062 211.594 314.013 211.821 314.059L212.019 313.079C211.473 312.969 210.943 313.117 210.479 313.454L211.067 314.263ZM211.934 314.069C211.938 314.069 211.949 314.069 211.971 314.08C211.995 314.091 212.034 314.116 212.083 314.166L212.801 313.471C212.572 313.234 212.267 313.059 211.907 313.069L211.934 314.069ZM212.083 314.166C212.183 314.27 212.298 314.452 212.401 314.725L213.337 314.372C213.204 314.021 213.028 313.705 212.801 313.471L212.083 314.166ZM212.385 314.674C212.459 314.959 212.5 315.294 212.5 315.641H213.5C213.5 315.219 213.45 314.799 213.353 314.423L212.385 314.674ZM212.5 315.641C212.5 315.989 212.459 316.324 212.385 316.609L213.353 316.86C213.45 316.483 213.5 316.063 213.5 315.641H212.5ZM212.385 316.608C212.224 317.222 212.004 317.693 211.769 317.993L212.557 318.609C212.904 318.165 213.171 317.555 213.352 316.861L212.385 316.608ZM211.753 318.015C211.274 318.702 210.817 319.215 210.39 319.473C210.184 319.598 210.006 319.649 209.851 319.65C209.7 319.651 209.529 319.604 209.328 319.461L208.747 320.275C209.096 320.524 209.468 320.652 209.855 320.65C210.237 320.648 210.59 320.521 210.906 320.33C211.524 319.957 212.08 319.295 212.574 318.587L211.753 318.015Z" fill="#666666" mask="url(#path-27-inside-2_7382_1619)"/>
<path d="M207.613 329.286C207.619 329.075 207.633 328.866 207.654 328.66C207.688 328.221 207.736 327.649 207.791 326.967C207.915 325.08 208.173 323.251 208.554 321.553C208.955 319.854 209.546 318.429 210.266 317.424C210.483 317.137 210.713 316.904 210.951 316.727C211.033 316.664 211.105 316.641 211.149 316.61C211.173 316.599 211.198 316.599 211.221 316.61C210.899 316.867 210.588 317.195 210.294 317.589C209.602 318.614 209.035 320.024 208.647 321.687C208.271 323.366 208.006 325.164 207.863 327.022C207.794 327.735 207.739 328.307 207.698 328.707C207.678 328.906 207.649 329.1 207.613 329.286Z" fill="#263238"/>
<path d="M207.655 302.744C207.659 302.835 207.659 302.927 207.655 303.018L207.676 303.802C207.676 304.483 207.707 305.471 207.724 306.693C207.758 309.137 207.785 312.522 207.779 316.251C207.772 319.981 207.734 323.366 207.69 325.81C207.666 327.032 207.645 328.019 207.628 328.701C207.628 329.022 207.628 329.281 207.604 329.485C207.607 329.576 207.607 329.668 207.604 329.759C207.599 329.668 207.599 329.576 207.604 329.485C207.604 329.281 207.604 329.022 207.604 328.701C207.604 327.996 207.621 327.009 207.635 325.81C207.659 323.366 207.69 319.989 207.696 316.259C207.703 312.53 207.696 309.153 207.669 306.709C207.669 305.51 207.669 304.523 207.652 303.81C207.652 303.488 207.652 303.23 207.652 303.026C207.648 302.932 207.649 302.837 207.655 302.744Z" fill="#263238"/>
<mask id="path-31-inside-3_7382_1619" fill="white">
<path d="M207.11 321.793C206.974 319.947 206.648 318.202 206.159 316.703C205.669 315.204 205.03 313.994 204.295 313.174C203.922 312.767 203.429 312.493 203.121 313.174C202.813 313.856 202.881 314.961 203.035 315.854C203.364 317.698 203.924 319.278 204.645 320.394C205.366 321.51 206.215 322.111 207.086 322.122"/>
</mask>
<path d="M204.295 313.174L204.668 312.841L204.664 312.837L204.295 313.174ZM203.035 315.854L202.543 315.939L202.543 315.942L203.035 315.854ZM207.608 321.756C207.47 319.877 207.138 318.092 206.634 316.548L205.683 316.859C206.158 318.313 206.478 320.017 206.611 321.829L207.608 321.756ZM206.634 316.548C206.132 315.009 205.464 313.73 204.668 312.841L203.923 313.508C204.596 314.259 205.207 315.399 205.683 316.859L206.634 316.548ZM204.664 312.837C204.465 312.619 204.15 312.336 203.765 312.273C203.547 312.237 203.315 312.273 203.104 312.414C202.905 312.547 202.766 312.746 202.665 312.968L203.577 313.38C203.63 313.262 203.668 313.24 203.66 313.245C203.655 313.249 203.643 313.255 203.627 313.258C203.62 313.259 203.614 313.26 203.609 313.26C203.605 313.26 203.602 313.259 203.603 313.259C203.607 313.26 203.644 313.269 203.711 313.317C203.776 313.362 203.85 313.428 203.927 313.512L204.664 312.837ZM202.665 312.968C202.469 313.403 202.407 313.931 202.405 314.433C202.403 314.943 202.462 315.473 202.543 315.939L203.528 315.769C203.454 315.342 203.403 314.873 203.405 314.437C203.407 313.993 203.465 313.628 203.577 313.38L202.665 312.968ZM202.543 315.942C202.879 317.827 203.456 319.476 204.225 320.665L205.065 320.123C204.392 319.081 203.849 317.57 203.528 315.766L202.543 315.942ZM204.225 320.665C204.987 321.844 205.966 322.608 207.079 322.622L207.092 321.622C206.464 321.614 205.745 321.176 205.065 320.123L204.225 320.665Z" fill="#666666" mask="url(#path-31-inside-3_7382_1619)"/>
<path d="M204.468 316.049C204.552 316.107 204.632 316.186 204.708 316.284C204.801 316.377 204.89 316.487 204.975 316.613C205.093 316.761 205.208 316.926 205.317 317.107C205.452 317.316 205.583 317.541 205.708 317.78C205.848 318.031 205.982 318.329 206.125 318.642C206.427 319.354 206.692 320.143 206.916 320.993C207.136 321.844 207.312 322.751 207.44 323.696C207.495 324.107 207.54 324.526 207.574 324.949C207.605 325.317 207.627 325.688 207.639 326.062C207.659 326.407 207.639 326.72 207.659 326.986C207.665 327.219 207.665 327.451 207.659 327.684C207.657 327.883 207.648 328.083 207.632 328.279C207.608 328.279 207.632 327.425 207.58 326.077C207.564 325.711 207.538 325.347 207.502 324.988C207.467 324.572 207.421 324.162 207.365 323.758C207.235 322.834 207.06 321.946 206.844 321.11C206.624 320.28 206.364 319.508 206.071 318.807C205.943 318.5 205.808 318.21 205.667 317.937C205.545 317.691 205.419 317.461 205.287 317.248C204.811 316.441 204.468 316.088 204.468 316.049Z" fill="#263238"/>
<path d="M43.8301 269.809C45.0558 289.819 46.2837 309.826 47.514 329.831L48.4726 329.902C47.8598 309.547 47.2093 288.722 43.8301 269.809Z" fill="#455A64"/>
<path d="M54.0606 267C51.486 273.456 50.452 282.325 49.8015 290.928C48.8771 303.134 48.7915 317.566 49.0689 329.906L50.4144 329.977C49.8817 308.646 51.1189 287.277 54.0606 267Z" fill="#455A64"/>
<path d="M44.2838 307.455C43.9955 304.719 43.6637 301.94 42.943 299.614C41.9609 296.468 40.362 294.48 38.7531 292.932C37.1441 291.384 35.4547 290.146 34 288C35.6223 293.71 39.3028 295.2 41.1765 300.572C42.1084 303.229 42.4972 306.563 42.8525 309.796C43.6469 316.845 44.1397 322.951 44.9341 330H46C45.6531 322.414 45.0798 314.884 44.2838 307.455Z" fill="#455A64"/>
<path d="M51 330C51 330 51.9566 311.097 52.6653 307.629C53.3739 304.162 60.0633 294.579 59.9995 295.014C59.9358 295.449 54.9789 305.964 54.2739 308.108C53.5688 310.251 52.3428 330 52.3428 330H51Z" fill="#455A64"/>
<path d="M256.785 318.329C256.785 318.329 256.785 318.241 256.785 318.081C256.785 317.921 256.785 317.673 256.785 317.368C256.785 316.738 256.785 315.818 256.785 314.661C256.785 312.3 256.764 308.906 256.752 304.702C256.752 296.292 256.722 284.643 256.705 271.64L256.814 271.775H254.787C255.001 271.506 254.846 271.707 254.892 271.656V279.704C254.892 282.328 254.892 284.87 254.892 287.35C254.892 292.278 254.892 296.855 254.892 300.936C254.867 309.072 254.846 315.229 254.837 318.303L254.804 318.267H256.328H256.705H256.835H256.718H256.349H254.804H254.77V318.226C254.77 315.152 254.741 308.994 254.716 300.858C254.716 296.777 254.716 292.2 254.716 287.272C254.716 284.808 254.716 282.251 254.716 279.627V271.671C254.766 271.604 254.607 271.79 254.829 271.521H256.965V271.671C256.965 284.694 256.932 296.374 256.919 304.81C256.919 308.999 256.894 312.388 256.886 314.739C256.886 315.891 256.886 316.805 256.886 317.415C256.886 317.714 256.886 317.931 256.886 318.107C256.886 318.282 256.785 318.329 256.785 318.329Z" fill="#263238"/>
<path d="M257.318 329.939C257.313 329.823 257.313 329.708 257.318 329.593C257.318 329.35 257.318 329.035 257.318 328.647C257.318 327.8 257.318 326.633 257.28 325.207C257.242 323.781 257.28 322.045 257.246 320.149C257.246 319.674 257.246 319.189 257.246 318.693V318.321C257.249 318.21 257.233 318.099 257.2 317.995C257.167 317.892 257.116 317.798 257.052 317.72C256.988 317.642 256.912 317.581 256.828 317.541C256.633 317.485 256.432 317.468 256.233 317.489H255.584C255.37 317.489 255.131 317.489 254.934 317.489C254.84 317.504 254.749 317.544 254.668 317.606C254.587 317.669 254.518 317.752 254.465 317.851C254.409 317.962 254.375 318.087 254.365 318.217C254.365 318.347 254.365 318.517 254.365 318.662V319.561C254.365 320.16 254.365 320.744 254.365 321.317C254.365 322.464 254.365 323.559 254.365 324.597C254.365 326.664 254.365 328.472 254.34 329.928L254.268 329.841L256.526 329.887L257.142 329.913H257.364C257.298 329.919 257.232 329.919 257.167 329.913H256.568L254.268 329.959H254.197V329.872C254.197 328.415 254.197 326.602 254.168 324.54C254.168 323.507 254.168 322.414 254.168 321.26V318.682C254.168 318.527 254.168 318.388 254.168 318.217C254.182 317.971 254.266 317.739 254.404 317.561C254.543 317.382 254.727 317.269 254.926 317.241C255.173 317.241 255.374 317.241 255.6 317.241H256.568C256.688 317.235 256.808 317.26 256.92 317.313C257.032 317.364 257.134 317.444 257.22 317.547C257.305 317.65 257.371 317.775 257.414 317.913C257.456 318.048 257.476 318.192 257.473 318.336V318.682C257.473 319.199 257.473 319.685 257.473 320.165C257.473 322.081 257.473 323.812 257.443 325.279C257.414 326.746 257.414 327.862 257.406 328.699C257.406 329.076 257.406 329.381 257.406 329.618C257.389 329.73 257.359 329.838 257.318 329.939Z" fill="#263238"/>
<path d="M247.562 239.204L240.295 254.045C240.102 254.434 240 254.881 240 255.336C240 255.792 240.102 256.239 240.295 256.628L247.558 271.474C247.738 271.842 247.992 272.145 248.295 272.356C248.598 272.567 248.94 272.678 249.288 272.678H262.691C263.038 272.677 263.379 272.566 263.682 272.356C263.984 272.145 264.237 271.841 264.416 271.474L271.708 256.581C271.894 256.204 271.995 255.772 272 255.331C272.005 254.89 271.914 254.455 271.738 254.071L264.965 239.266C264.79 238.881 264.535 238.562 264.227 238.339C263.918 238.117 263.567 238 263.21 238H249.292C248.944 237.999 248.601 238.11 248.298 238.321C247.995 238.532 247.741 238.836 247.562 239.204Z" fill="#17282F"/>
<path d="M262.02 271.522H249.601C249.264 271.517 248.934 271.407 248.641 271.202C248.348 270.997 248.102 270.704 247.926 270.349L241.195 256.593C241.008 256.213 240.909 255.777 240.909 255.332C240.909 254.888 241.008 254.452 241.195 254.072L247.926 240.32C248.101 239.965 248.346 239.67 248.64 239.464C248.933 239.258 249.264 239.147 249.601 239.143H262.493C262.843 239.143 263.187 239.258 263.489 239.476C263.792 239.694 264.042 240.007 264.215 240.382L270.497 254.098C270.67 254.474 270.758 254.9 270.753 255.332C270.748 255.764 270.649 256.187 270.468 256.557L263.716 270.349C263.539 270.708 263.289 271.004 262.992 271.209C262.695 271.415 262.36 271.522 262.02 271.522ZM249.601 239.401C249.299 239.4 249.001 239.495 248.736 239.676C248.472 239.857 248.249 240.118 248.089 240.434L241.358 254.191C241.192 254.53 241.104 254.92 241.104 255.317C241.104 255.714 241.192 256.103 241.358 256.443L248.089 270.199C248.249 270.516 248.472 270.777 248.736 270.958C249.001 271.138 249.299 271.233 249.601 271.233H262.02C262.322 271.233 262.619 271.138 262.883 270.958C263.146 270.777 263.369 270.516 263.528 270.199L270.284 256.407C270.444 256.076 270.53 255.699 270.535 255.313C270.539 254.928 270.461 254.548 270.309 254.211L264.026 240.491C263.872 240.155 263.649 239.876 263.379 239.681C263.109 239.487 262.802 239.385 262.489 239.385L249.601 239.401Z" fill="white"/>
<path d="M255.771 269.883C256.114 269.883 256.391 269.54 256.391 269.118C256.391 268.696 256.114 268.354 255.771 268.354C255.429 268.354 255.151 268.696 255.151 269.118C255.151 269.54 255.429 269.883 255.771 269.883Z" fill="#E0E0E0"/>
<path d="M256.388 269.122C256.351 269.122 256.359 268.822 256.099 268.605C256.026 268.544 255.941 268.506 255.853 268.493C255.765 268.481 255.676 268.494 255.593 268.533C255.496 268.581 255.413 268.664 255.354 268.77C255.295 268.877 255.264 269.003 255.264 269.132C255.264 269.261 255.295 269.387 255.354 269.494C255.413 269.601 255.496 269.683 255.593 269.731C255.675 269.772 255.764 269.787 255.853 269.775C255.941 269.764 256.026 269.726 256.099 269.664C256.359 269.437 256.351 269.148 256.388 269.148C256.426 269.148 256.422 269.22 256.409 269.349C256.388 269.537 256.311 269.709 256.192 269.829C256.101 269.924 255.992 269.987 255.875 270.015C255.758 270.042 255.638 270.031 255.526 269.984C255.385 269.923 255.264 269.81 255.178 269.66C255.091 269.51 255.045 269.331 255.044 269.148C255.044 268.965 255.091 268.786 255.177 268.637C255.264 268.488 255.385 268.376 255.526 268.316C255.638 268.268 255.758 268.257 255.874 268.283C255.991 268.31 256.1 268.372 256.192 268.466C256.312 268.587 256.39 268.761 256.409 268.951C256.422 269.055 256.401 269.122 256.388 269.122Z" fill="#263238"/>
<path d="M251.504 252.647L250.938 253.913C250.914 253.969 250.876 254.015 250.829 254.042L249.326 254.848C249.236 254.897 249.165 254.986 249.127 255.097C249.089 255.209 249.087 255.334 249.121 255.447C249.137 255.506 249.163 255.559 249.197 255.605C249.231 255.651 249.273 255.687 249.318 255.713C249.364 255.738 249.414 255.752 249.464 255.754C249.514 255.755 249.564 255.744 249.611 255.721L251.194 254.941C251.229 254.922 251.261 254.894 251.286 254.858L251.856 254.037V256.274C251.861 256.313 251.861 256.353 251.856 256.392L250.943 259.094C250.928 259.139 250.922 259.188 250.925 259.236C250.929 259.284 250.942 259.331 250.964 259.371C250.985 259.412 251.014 259.446 251.048 259.469C251.083 259.493 251.121 259.506 251.16 259.507H251.441L250.989 262.452C250.975 262.528 250.976 262.607 250.991 262.683C251.006 262.759 251.035 262.83 251.075 262.89C251.116 262.95 251.166 262.998 251.224 263.03C251.281 263.063 251.344 263.079 251.407 263.077C251.496 263.075 251.582 263.039 251.653 262.973C251.724 262.907 251.776 262.815 251.801 262.71L252.53 259.833C252.543 259.779 252.569 259.732 252.604 259.696C252.639 259.66 252.682 259.638 252.727 259.631L253.095 259.58L253.845 262.607C253.876 262.738 253.944 262.852 254.037 262.927C254.13 263.001 254.242 263.033 254.352 263.015C254.419 263.004 254.484 262.975 254.542 262.931C254.6 262.886 254.649 262.827 254.687 262.757C254.725 262.687 254.75 262.608 254.761 262.525C254.771 262.442 254.768 262.357 254.75 262.276L254.193 259.652L254.725 259.606C254.761 259.602 254.797 259.588 254.828 259.565C254.859 259.541 254.886 259.51 254.906 259.472C254.926 259.434 254.938 259.391 254.942 259.346C254.947 259.301 254.942 259.256 254.93 259.213L254.712 258.448L256.069 258.077C256.131 258.057 256.185 258.008 256.218 257.94C256.25 257.873 256.26 257.792 256.245 257.715L255.948 256.217C255.934 256.149 255.901 256.09 255.855 256.051C255.809 256.011 255.753 255.993 255.696 256L255.089 256.077L255.11 255.215C255.112 255.15 255.131 255.088 255.164 255.039C255.197 254.989 255.243 254.955 255.294 254.941C255.663 254.832 256.513 254.569 256.735 254.259C256.97 253.902 257.183 253.524 257.372 253.128V256.692C257.372 256.735 257.363 256.778 257.347 256.816C257.027 257.637 256.748 258.48 256.509 259.342C256.509 259.6 256.509 261.212 256.547 262.142C256.55 262.318 256.609 262.486 256.71 262.611C256.812 262.735 256.948 262.806 257.091 262.808C257.237 262.806 257.376 262.732 257.478 262.603C257.58 262.475 257.637 262.301 257.636 262.121V259.389C257.635 259.336 257.645 259.285 257.665 259.239L258.239 257.994C258.267 257.948 258.306 257.914 258.351 257.896C258.395 257.878 258.443 257.876 258.488 257.892C258.533 257.908 258.573 257.939 258.603 257.983C258.634 258.027 258.653 258.081 258.658 258.139V259.761C258.652 259.798 258.652 259.837 258.658 259.874L259.454 262.318C259.483 262.41 259.529 262.492 259.588 262.559C259.647 262.625 259.718 262.674 259.795 262.701C259.872 262.728 259.953 262.732 260.032 262.714C260.111 262.696 260.185 262.656 260.249 262.597C260.343 262.508 260.411 262.385 260.443 262.246C260.476 262.106 260.471 261.958 260.429 261.822L259.743 259.626C259.722 259.562 259.722 259.49 259.743 259.425L259.83 259.089L262.264 258.386C262.324 258.369 262.376 258.324 262.409 258.261C262.443 258.197 262.455 258.12 262.444 258.046L262.117 255.979C262.108 255.913 262.081 255.853 262.04 255.809C261.998 255.766 261.946 255.742 261.891 255.742H260.819L260.903 254.218C260.924 253.808 260.828 253.402 260.63 253.071L259.981 252.043C259.877 251.868 259.741 251.725 259.584 251.626C259.426 251.528 259.253 251.476 259.077 251.475H257.72C257.55 251.48 257.384 251.539 257.238 251.645C257.091 251.75 256.969 251.9 256.882 252.079L256.212 253.37C256.186 253.425 256.146 253.467 256.099 253.489L255.152 253.954C255.104 253.979 255.051 253.982 255.002 253.964C254.952 253.946 254.909 253.908 254.88 253.856L254.151 252.559C254.084 252.445 253.996 252.352 253.894 252.287C253.792 252.222 253.679 252.188 253.565 252.187H252.132C252.003 252.187 251.877 252.229 251.767 252.31C251.656 252.391 251.565 252.508 251.504 252.647Z" fill="#E0E0E0"/>
<path d="M254.003 250.215C253.997 250.496 253.924 250.77 253.794 251C253.663 251.231 253.479 251.408 253.267 251.511C253.055 251.614 252.822 251.637 252.599 251.578C252.376 251.519 252.172 251.38 252.013 251.178C251.853 250.977 251.746 250.722 251.703 250.445C251.661 250.169 251.686 249.883 251.774 249.623C251.863 249.364 252.011 249.143 252.202 248.987C252.392 248.831 252.615 248.748 252.843 248.748C252.997 248.75 253.15 248.79 253.292 248.865C253.434 248.939 253.562 249.048 253.67 249.184C253.778 249.321 253.863 249.482 253.92 249.659C253.977 249.836 254.005 250.025 254.003 250.215Z" fill="#E0E0E0"/>
<path d="M259.813 249.134C259.807 249.432 259.73 249.721 259.592 249.965C259.453 250.209 259.259 250.398 259.034 250.507C258.81 250.615 258.564 250.64 258.327 250.577C258.091 250.514 257.875 250.367 257.707 250.153C257.538 249.94 257.424 249.67 257.38 249.377C257.335 249.084 257.362 248.781 257.456 248.507C257.551 248.232 257.708 247.998 257.91 247.834C258.112 247.67 258.348 247.583 258.59 247.584C258.917 247.595 259.228 247.763 259.457 248.052C259.685 248.342 259.813 248.73 259.813 249.134Z" fill="#E0E0E0"/>
<g opacity="0.3">
<path opacity="0.3" d="M249.292 238C248.944 237.999 248.601 238.11 248.298 238.321C247.995 238.532 247.741 238.836 247.562 239.204L240.295 254.045C240.102 254.434 240 254.881 240 255.336C240 255.792 240.102 256.239 240.295 256.628L247.558 271.474L263.202 238.01L249.292 238Z" fill="black"/>
</g>
<path d="M255.822 242.062C256.164 242.062 256.441 241.72 256.441 241.298C256.441 240.875 256.164 240.533 255.822 240.533C255.479 240.533 255.202 240.875 255.202 241.298C255.202 241.72 255.479 242.062 255.822 242.062Z" fill="#E0E0E0"/>
<path d="M256.439 241.303C256.406 241.303 256.414 240.998 256.15 240.787C256.077 240.725 255.992 240.687 255.904 240.675C255.815 240.664 255.726 240.679 255.643 240.719C255.546 240.767 255.463 240.85 255.405 240.957C255.346 241.064 255.315 241.19 255.315 241.319C255.315 241.448 255.346 241.574 255.405 241.68C255.463 241.787 255.546 241.87 255.643 241.918C255.726 241.957 255.816 241.97 255.904 241.958C255.992 241.945 256.077 241.907 256.15 241.846C256.414 241.618 256.406 241.303 256.439 241.329C256.473 241.355 256.473 241.396 256.46 241.525C256.441 241.716 256.363 241.889 256.242 242.011C256.151 242.104 256.042 242.167 255.925 242.193C255.809 242.219 255.689 242.208 255.576 242.161C255.436 242.101 255.314 241.988 255.228 241.839C255.142 241.69 255.095 241.512 255.095 241.329C255.096 241.145 255.142 240.967 255.228 240.817C255.315 240.667 255.436 240.554 255.576 240.492C255.689 240.445 255.809 240.435 255.926 240.462C256.042 240.489 256.151 240.553 256.242 240.647C256.361 240.768 256.439 240.939 256.46 241.128C256.473 241.231 256.452 241.303 256.439 241.303Z" fill="#263238"/>
<path d="M675.443 282.652H673.497V324.64H675.443V282.652Z" fill="#263238"/>
<path d="M675.443 324.641C675.443 324.641 675.443 324.562 675.443 324.418C675.443 324.274 675.443 324.051 675.443 323.777C675.443 323.209 675.443 322.382 675.443 321.341C675.443 319.217 675.443 316.163 675.415 312.379C675.415 304.812 675.387 294.33 675.371 282.63L675.476 282.751H673.529C673.733 282.51 673.585 282.691 673.633 282.644V286.298C673.633 287.513 673.633 288.709 673.633 289.886C673.633 292.248 673.633 294.534 673.633 296.766C673.633 301.2 673.633 305.318 673.633 308.99C673.609 316.311 673.589 321.852 673.581 324.618L673.549 324.585H675.01H675.371H675.496H675.383H675.026H673.549H673.517V324.548C673.517 321.782 673.489 316.242 673.464 308.921C673.464 305.249 673.464 301.13 673.464 296.696C673.464 294.479 673.464 292.178 673.464 289.817V282.658C673.513 282.598 673.356 282.765 673.569 282.523H675.62V282.658C675.62 294.376 675.588 304.886 675.576 312.477C675.576 316.246 675.552 319.296 675.544 321.411C675.544 322.447 675.544 323.27 675.544 323.818C675.544 324.088 675.544 324.283 675.544 324.441C675.544 324.599 675.443 324.641 675.443 324.641Z" fill="#263238"/>
<path d="M675.95 335.093H672.979V324.611C672.979 324.388 673.056 324.174 673.192 324.016C673.329 323.858 673.513 323.77 673.706 323.77H675.223C675.416 323.77 675.601 323.858 675.737 324.016C675.873 324.174 675.95 324.388 675.95 324.611V335.093Z" fill="#263238"/>
<path d="M675.951 335.091C675.951 335.091 675.951 334.979 675.951 334.779C675.951 334.579 675.951 334.277 675.951 333.929C675.951 333.166 675.931 332.116 675.919 330.833C675.907 329.55 675.919 327.988 675.887 326.282C675.887 325.855 675.887 325.418 675.887 324.972V324.637C675.889 324.537 675.874 324.437 675.843 324.344C675.81 324.251 675.761 324.166 675.699 324.095C675.637 324.025 675.563 323.97 675.481 323.935C675.295 323.885 675.102 323.869 674.911 323.889H674.289C674.089 323.889 673.86 323.889 673.671 323.889C673.58 323.901 673.493 323.937 673.415 323.993C673.337 324.049 673.271 324.125 673.222 324.214C673.168 324.314 673.135 324.427 673.125 324.544C673.125 324.66 673.125 324.814 673.125 324.944V327.333C673.125 328.365 673.125 329.35 673.125 330.285C673.125 332.144 673.125 333.771 673.097 335.081L673.029 335.002L675.196 335.044L675.786 335.068H675.999C675.936 335.073 675.873 335.073 675.811 335.068H675.237L673.029 335.109H672.965V335.03C672.965 333.72 672.965 332.088 672.937 330.233C672.937 329.304 672.937 328.314 672.937 327.282V325.701C672.937 325.436 672.937 325.167 672.937 324.893C672.937 324.753 672.937 324.628 672.937 324.474C672.944 324.309 672.988 324.149 673.065 324.009C673.132 323.891 673.221 323.791 673.325 323.717C673.429 323.642 673.546 323.595 673.667 323.577C673.904 323.577 674.097 323.577 674.309 323.577H675.241C675.354 323.571 675.468 323.593 675.574 323.642C675.681 323.689 675.779 323.761 675.862 323.854C675.944 323.946 676.008 324.058 676.051 324.181C676.09 324.303 676.109 324.433 676.108 324.563V324.962C676.108 325.427 676.108 325.864 676.108 326.296C676.108 328.021 676.108 329.578 676.075 330.898C676.043 332.218 676.051 333.222 676.043 333.975C676.043 334.315 676.043 334.589 676.043 334.803C676.022 334.902 675.991 334.999 675.951 335.091Z" fill="#263238"/>
<path d="M690.038 264.642L673.971 247.054C673.439 246.472 672.601 246.499 672.098 247.115L656.91 265.72C656.408 266.335 656.431 267.306 656.963 267.888L673.029 285.476C673.561 286.058 674.399 286.031 674.902 285.415L690.09 266.81C690.593 266.194 690.569 265.224 690.038 264.642Z" fill="#17282F"/>
<path d="M673.864 283.644C673.387 283.646 672.928 283.434 672.583 283.054L658.618 267.789C658.5 267.659 658.405 267.504 658.338 267.331C658.272 267.159 658.235 266.973 658.231 266.785C658.226 266.596 658.254 266.408 658.312 266.232C658.371 266.056 658.458 265.895 658.57 265.758L671.772 249.586C671.941 249.381 672.142 249.215 672.365 249.1C672.589 248.984 672.83 248.921 673.074 248.913C673.319 248.905 673.562 248.953 673.791 249.054C674.019 249.156 674.228 249.308 674.406 249.503L687.917 264.293C688.095 264.488 688.237 264.721 688.337 264.98C688.437 265.239 688.492 265.517 688.498 265.801C688.505 266.084 688.464 266.366 688.376 266.63C688.289 266.895 688.157 267.137 687.989 267.343L675.217 282.989C675.041 283.198 674.831 283.364 674.598 283.477C674.366 283.59 674.116 283.646 673.864 283.644ZM672.72 282.886C672.881 283.061 673.07 283.198 673.277 283.288C673.483 283.378 673.703 283.42 673.924 283.412C674.143 283.405 674.358 283.349 674.558 283.246C674.758 283.143 674.938 282.996 675.088 282.812L687.861 267.166C688.163 266.794 688.326 266.298 688.313 265.788C688.3 265.277 688.113 264.793 687.792 264.442L674.265 249.661C673.945 249.31 673.518 249.121 673.078 249.135C672.637 249.149 672.22 249.365 671.917 249.735L658.715 265.906C658.526 266.139 658.425 266.448 658.432 266.766C658.44 267.085 658.556 267.387 658.755 267.608L672.72 282.886Z" fill="white"/>
<path d="M676.714 275.368H675.144V266.959C675.142 266.039 674.825 265.158 674.263 264.508C673.701 263.858 672.94 263.493 672.146 263.491H668.027V261.674H672.146C673.357 261.674 674.518 262.23 675.374 263.221C676.231 264.213 676.713 265.557 676.714 266.959V275.368Z" fill="white"/>
<path d="M671.664 259.238V265.56L666.269 262.58L671.664 259.238Z" fill="white"/>
<g opacity="0.3">
<path opacity="0.3" d="M671.879 247.38L657.115 265.466C656.817 265.831 656.657 266.318 656.669 266.82C656.681 267.322 656.865 267.798 657.179 268.143L672.794 285.24C672.932 285.405 673.098 285.536 673.282 285.625C673.465 285.713 673.663 285.758 673.861 285.756C674.427 285.663 673.131 246.794 673.131 246.794C672.897 246.77 672.661 246.81 672.444 246.912C672.226 247.014 672.032 247.174 671.879 247.38Z" fill="black"/>
</g>
</svg>
