<svg width="38" height="47" viewBox="0 0 38 47" fill="none" xmlns="http://www.w3.org/2000/svg">
<path d="M16.9318 3.92786C16.9318 3.59676 16.6888 3.36008 16.348 3.36008H10.5579C10.2172 3.36008 9.92531 3.64397 9.92531 3.97539C9.92531 4.3068 10.2172 4.59069 10.5579 4.59069H16.2991C16.6399 4.54316 16.9317 4.30647 16.9317 3.92784L16.9318 3.92786ZM37.9997 25.9333C37.9997 19.8288 33.0855 14.8123 26.9548 14.3864L26.9552 3.92786C26.9552 1.7508 25.155 0 22.9168 0H4.03841C1.80008 0 0 1.75089 0 3.92786V42.5912C0 44.7683 1.80017 46.5191 4.03841 46.5191H22.9168C25.1551 46.5191 26.9552 44.7682 26.9552 42.5912V37.5274C33.1342 37.0544 38 32.0382 38 25.9332L37.9997 25.9333ZM25.3492 42.5439C25.3492 43.869 24.2302 44.9573 22.8679 44.9573H4.03816C2.6758 44.9573 1.55681 43.869 1.55681 42.5439L1.50828 37.291V10.3165L1.50794 7.61893V6.10441V5.06329V3.92769C1.50794 2.60263 2.62693 1.51427 3.98929 1.51427H22.8676C24.23 1.51427 25.349 2.60263 25.349 3.92769V6.10474L25.3493 7.61893V14.4336C19.1214 14.8122 14.1586 19.8285 14.1586 25.9806C14.1586 32.1326 19.1215 37.1963 25.3493 37.5275L25.3492 42.5439ZM29.1928 28.1575L26.6141 30.6657C26.3222 30.9496 25.8355 30.9496 25.5921 30.6657L23.0134 28.1575C22.7215 27.8736 22.7215 27.4478 23.0134 27.1636C23.1593 27.0216 23.3542 26.9744 23.5486 26.9744C23.7431 26.9744 23.9379 27.0692 24.0839 27.1636L25.3976 28.4414V21.8163C25.3976 21.4376 25.7384 21.1065 26.1273 21.1065C26.5166 21.1065 26.857 21.438 26.857 21.8163V28.4414L28.1708 27.1636C28.4627 26.8797 28.9005 26.8797 29.1928 27.1636C29.4361 27.4006 29.4361 27.8736 29.1928 28.1575H29.1928Z" fill="#04294B" fill-opacity="0.72"/>
</svg>
