<svg width="26" height="33" viewBox="0 0 26 33" fill="none" xmlns="http://www.w3.org/2000/svg">
<path d="M23.6362 4.26953V25.6025C23.6362 26.7341 23.1381 27.8193 22.2515 28.6195C21.365 29.4196 20.1626 29.8691 18.9088 29.8691H4.72656C4.72656 30.4349 4.9756 30.9775 5.41887 31.3776C5.86215 31.7777 6.46337 32.0024 7.09026 32.0024H23.6362C24.2631 32.0024 24.8643 31.7777 25.3076 31.3776C25.7508 30.9775 25.9999 30.4349 25.9999 29.8691V6.40283C25.9999 5.83704 25.7508 5.29443 25.3076 4.89436C24.8643 4.49429 24.2631 4.26953 23.6362 4.26953Z" fill="#04294B" fill-opacity="0.72"/>
<path d="M21.2733 25.5996V2.1333C21.2733 1.56751 21.0243 1.0249 20.581 0.624829C20.1377 0.224758 19.5365 0 18.9096 0H2.3637C1.73681 0 1.13559 0.224758 0.692312 0.624829C0.249032 1.0249 0 1.56751 0 2.1333V25.5996C0 26.1654 0.249032 26.708 0.692312 27.1081C1.13559 27.5081 1.73681 27.7329 2.3637 27.7329H18.9096C19.5365 27.7329 20.1377 27.5081 20.581 27.1081C21.0243 26.708 21.2733 26.1654 21.2733 25.5996ZM15.3641 20.2663H5.90925C5.59581 20.2663 5.2952 20.154 5.07356 19.9539C4.85192 19.7539 4.7274 19.4826 4.7274 19.1997C4.7274 18.9168 4.85192 18.6455 5.07356 18.4455C5.2952 18.2454 5.59581 18.133 5.90925 18.133H15.3641C15.6775 18.133 15.9781 18.2454 16.1998 18.4455C16.4214 18.6455 16.5459 18.9168 16.5459 19.1997C16.5459 19.4826 16.4214 19.7539 16.1998 19.9539C15.9781 20.154 15.6775 20.2663 15.3641 20.2663ZM15.3641 14.9331H5.90925C5.59581 14.9331 5.2952 14.8207 5.07356 14.6207C4.85192 14.4206 4.7274 14.1493 4.7274 13.8664C4.7274 13.5836 4.85192 13.3122 5.07356 13.1122C5.2952 12.9122 5.59581 12.7998 5.90925 12.7998H15.3641C15.6775 12.7998 15.9781 12.9122 16.1998 13.1122C16.4214 13.3122 16.5459 13.5836 16.5459 13.8664C16.5459 14.1493 16.4214 14.4206 16.1998 14.6207C15.9781 14.8207 15.6775 14.9331 15.3641 14.9331ZM15.3641 9.59985H5.90925C5.59581 9.59985 5.2952 9.48747 5.07356 9.28743C4.85192 9.0874 4.7274 8.81609 4.7274 8.5332C4.7274 8.2503 4.85192 7.979 5.07356 7.77896C5.2952 7.57893 5.59581 7.46655 5.90925 7.46655H15.3641C15.6775 7.46655 15.9781 7.57893 16.1998 7.77896C16.4214 7.979 16.5459 8.2503 16.5459 8.5332C16.5459 8.81609 16.4214 9.0874 16.1998 9.28743C15.9781 9.48747 15.6775 9.59985 15.3641 9.59985Z" fill="#04294B" fill-opacity="0.72"/>
</svg>
