<svg width="32" height="39" viewBox="0 0 32 39" fill="none" xmlns="http://www.w3.org/2000/svg">
<path d="M2.1619 27.9649C0.830574 29.9693 0.217508 34.4143 0.00113092 37.9725H0.00144678C-0.0156095 38.2505 0.118942 38.519 0.362786 38.6925C0.624629 38.8947 0.961323 39.0025 1.30721 38.9946H4.72476V26.2656C3.6297 26.643 2.697 27.1556 2.16196 27.9652L2.1619 27.9649Z" fill="#04294B" fill-opacity="0.72"/>
<path d="M15.998 28.4208C13.6531 28.4225 11.4592 27.3874 10.1374 25.6565H8.68359V30.8311H23.3125V25.6565L21.8595 25.6562C20.5373 27.3874 18.3432 28.4225 15.9979 28.4209L15.998 28.4208Z" fill="#04294B" fill-opacity="0.72"/>
<path d="M29.8361 27.9688C29.2989 27.1573 28.3621 26.6427 27.2629 26.2656L27.2383 38.9982H30.69C31.0361 39.0061 31.3735 38.8985 31.6356 38.6962C31.8785 38.522 32.0127 38.2541 31.9957 37.9761C31.7793 34.418 31.1675 29.9731 29.8362 27.9685L29.8361 27.9688Z" fill="#04294B" fill-opacity="0.72"/>
<path d="M24.2287 9.72722C23.3197 8.70565 22.1807 7.86589 20.8857 7.26215C21.6235 6.80402 22.1244 6.10032 22.2757 5.30883C22.4273 4.51763 22.2163 3.70497 21.6907 3.05375C21.1655 2.40255 20.3689 1.96758 19.481 1.84618C19.1545 1.14501 18.5424 0.580437 17.7681 0.267109C16.9937 -0.0464937 16.1153 -0.0854502 15.3102 0.158152C14.5048 0.401473 13.8333 0.909027 13.4306 1.57796C12.406 1.46674 11.381 1.78402 10.6527 2.43773C9.92467 3.09176 9.5747 4.00914 9.70424 4.92456C9.83374 5.83968 10.4285 6.65039 11.3161 7.12175C10.4538 7.47319 9.67683 7.9717 9.02834 8.58932C7.16861 10.4374 6.584 13.069 6.58206 15.4833C6.57827 17.7852 6.96866 20.0962 6.68219 22.3823L13.009 22.3877V22.3874C11.1243 20.5205 10.142 18.0633 10.2763 15.5516C10.2693 15.3732 10.3198 15.1968 10.4212 15.0429C10.5343 14.921 10.6783 14.8247 10.841 14.7626C12.0318 14.2034 13.2225 13.6451 14.4136 13.0882C14.9904 14.4434 16.4108 15.4025 17.9411 15.8917C19.4695 16.3809 21.1154 16.4684 22.7379 16.5508C22.309 18.6701 21.3358 20.6717 19.8949 22.3981C21.7313 22.3928 23.569 22.3877 25.4078 22.3823C25.4116 19.2581 25.4157 16.1342 25.4195 13.0114C25.4439 12.5064 25.3996 12.0006 25.2881 11.5051C25.0816 10.8517 24.7202 10.2453 24.2287 9.72736L24.2287 9.72722Z" fill="#04294B" fill-opacity="0.72"/>
</svg>
