<svg width="47" height="43" viewBox="0 0 47 43" fill="none" xmlns="http://www.w3.org/2000/svg">
<path d="M2.67009 43H44.3295C45.825 43 47 41.925 47 40.5568L46.9996 6.35228C46.9996 4.9841 45.8246 3.9091 44.3292 3.9091H36.3177V1.95438C36.3177 0.879379 35.3565 8.155e-06 34.1815 8.155e-06C33.0065 8.155e-06 32.0453 0.879379 32.0453 1.95438V3.90875L14.9543 3.90909V1.95437C14.9543 0.879371 13.9931 0 12.8181 0C11.6431 0 10.6819 0.879371 10.6819 1.95437V3.90874L2.67048 3.90908C1.17501 3.90908 0 4.98408 0 6.35226V40.5568C0 41.925 1.17501 43 2.67048 43L2.67009 43ZM4.27209 7.81819H10.6811V9.28418C10.6811 10.3592 11.6423 11.2386 12.8173 11.2386C13.9923 11.2386 14.9535 10.3592 14.9535 9.28418V7.81819H32.0446V9.28418C32.0446 10.3592 33.0057 11.2386 34.1808 11.2386C35.3558 11.2386 36.3169 10.3592 36.3169 9.28418V7.81819H42.726V39.0909H4.27209V7.81819Z" fill="#04294B" fill-opacity="0.72"/>
<path d="M28.3081 14.6602H18.6944C18.374 14.6602 18.1602 14.8555 18.1602 15.1489V23.4557C18.1602 23.7488 18.3736 23.9444 18.6944 23.9444H28.3081C28.6285 23.9444 28.8424 23.7491 28.8424 23.4557L28.842 15.1489C28.842 14.8555 28.6285 14.6602 28.3077 14.6602H28.3081Z" fill="#04294B" fill-opacity="0.72"/>
<path d="M40.0556 14.6602H30.9757C30.6553 14.6602 30.4414 14.8555 30.4414 15.1489V23.4557C30.4414 23.7488 30.6549 23.9444 30.9757 23.9444H40.0552C40.3756 23.9444 40.5894 23.7491 40.5894 23.4557V15.1489C40.5894 14.8555 40.376 14.6602 40.0556 14.6602H40.0556Z" fill="#04294B" fill-opacity="0.72"/>
<path d="M16.0243 25.8984H6.9444C6.624 25.8984 6.41016 26.0938 6.41016 26.3872V34.694C6.41016 34.9871 6.62363 35.1827 6.9444 35.1827H16.0239C16.3443 35.1827 16.5582 34.9874 16.5582 34.694V26.3869C16.5582 26.0937 16.3447 25.8984 16.0243 25.8984L16.0243 25.8984Z" fill="#04294B" fill-opacity="0.72"/>
<path d="M28.3081 25.8984H18.6944C18.374 25.8984 18.1602 26.0938 18.1602 26.3872V34.694C18.1602 34.9871 18.3736 35.1827 18.6944 35.1827H28.3081C28.6285 35.1827 28.8424 34.9874 28.8424 34.694L28.842 26.3869C28.842 26.0937 28.6285 25.8984 28.3077 25.8984L28.3081 25.8984Z" fill="#04294B" fill-opacity="0.72"/>
<path d="M40.0556 25.8984H30.9757C30.6553 25.8984 30.4414 26.0938 30.4414 26.3872V34.694C30.4414 34.9871 30.6549 35.1827 30.9757 35.1827H40.0552C40.3756 35.1827 40.5894 34.9874 40.5894 34.694V26.3869C40.5894 26.0937 40.376 25.8984 40.0556 25.8984L40.0556 25.8984Z" fill="#04294B" fill-opacity="0.72"/>
<path d="M16.0243 14.6602H6.9444C6.624 14.6602 6.41016 14.8555 6.41016 15.1489V23.4557C6.41016 23.7488 6.62363 23.9444 6.9444 23.9444H16.0239C16.3443 23.9444 16.5582 23.7491 16.5582 23.4557V15.1489C16.5582 14.8555 16.3447 14.6602 16.0243 14.6602H16.0243ZM11.7515 22.4785C11.4311 22.4785 11.2172 22.2832 11.2172 21.9897C11.2172 21.6966 11.4307 21.501 11.7515 21.501C12.0719 21.501 12.2857 21.6963 12.2857 21.9897C12.2853 22.2829 12.0719 22.4785 11.7515 22.4785ZM12.2853 20.0353C12.2853 20.3285 12.0719 20.5241 11.7511 20.5241C11.4307 20.5241 11.2168 20.3288 11.2168 20.0353V17.1033C11.2168 16.8102 11.4303 16.6146 11.7511 16.6146C12.0715 16.6146 12.2853 16.8099 12.2853 17.1033V20.0353Z" fill="#04294B" fill-opacity="0.72"/>
</svg>
