<svg width="42" height="44" viewBox="0 0 42 44" fill="none" xmlns="http://www.w3.org/2000/svg">
<path d="M1.89629 30.3396C0.860123 31.4218 0 36.1458 0 36.1458C0 40.0509 7.62693 43.281 17.609 43.8888L13.3732 24.3337C8.54079 25.7957 3.9155 28.2332 1.89612 30.3396H1.89629ZM40.1048 30.3396C38.0865 28.2332 33.461 25.7964 28.6269 24.3337L24.3943 43.8888C34.3741 43.281 42 40.0512 42 36.1458C42.0036 36.1458 41.1445 31.4218 40.1044 30.3396H40.1048ZM21.0001 25.8324C26.8534 25.8324 31.5986 18.0333 31.5986 11.6201C31.5986 5.20308 26.8541 0 21.0001 0C15.1472 0 10.4016 5.20264 10.4016 11.6201C10.4016 18.0341 15.1471 25.8324 21.0001 25.8324ZM21.0034 28.0219C20.0286 28.0219 19.0869 27.8443 18.1861 27.5402L20.1507 30.858L18.3685 43.9311C19.2342 43.9744 20.1083 44 21.0032 44C21.8964 44 22.7685 43.9713 23.6323 43.9311L21.8511 30.858L23.822 27.5364C22.9165 27.8436 21.9771 28.0219 21.0036 28.0219H21.0034Z" fill="#04294B" fill-opacity="0.72"/>
</svg>
