<svg width="35" height="35" viewBox="0 0 35 35" fill="none" xmlns="http://www.w3.org/2000/svg">
<path d="M30.8519 15.2578C30.601 15.292 30.3436 15.3125 30.0734 15.3125C28.4005 15.3125 26.9077 14.5332 25.8847 13.3301C24.8616 14.5332 23.3689 15.3125 21.6895 15.3125C20.0102 15.3125 18.5174 14.5332 17.4944 13.3301C16.4713 14.5332 14.985 15.3125 13.2993 15.3125C11.6263 15.3125 10.1336 14.5332 9.11054 13.3301C8.08749 14.5332 6.59474 15.3125 4.91282 15.3125C4.65159 15.3125 4.38843 15.292 4.13299 15.2578C0.57355 14.752 -1.11062 10.2949 0.792959 7.0957L4.48173 0.897559C4.80987 0.340361 5.39604 0 6.02209 0H28.9796C29.6037 0 30.1892 0.340293 30.5174 0.897559L34.2042 7.0957C36.1152 10.3018 34.423 14.752 30.8519 15.2578ZM31.1222 17.4248C31.341 17.3906 31.6562 17.3359 31.9136 17.2676V30.625C31.9136 33.0381 30.067 35 27.7957 35H7.206C4.93213 35 3.08806 33.0381 3.08806 30.625V17.2676C3.33707 17.3359 3.5938 17.3906 3.85825 17.4248H3.86597C4.20441 17.4727 4.55701 17.5 4.91282 17.5C5.71325 17.5 6.48536 17.3701 7.206 17.1309V26.25H27.7957V17.1377C28.5163 17.3701 29.282 17.5 30.0734 17.5C30.4337 17.5 30.7812 17.4727 31.1222 17.4248Z" fill="#04294B" fill-opacity="0.72"/>
</svg>
